solid ADT_chamber
   facet normal 0.000000e+000 -1.000000e+000 0.000000e+000
      outer loop
         vertex -1.000000e+000 -1.000000e+000 -1.250000e+000
         vertex 1.000000e+000 -1.000000e+000 -1.250000e+000
         vertex -1.000000e+000 -1.000000e+000 -1.200000e+000
      endloop
   endfacet
   facet normal 0.000000e+000 -1.000000e+000 0.000000e+000
      outer loop
         vertex -1.000000e+000 -1.000000e+000 -1.200000e+000
         vertex 1.000000e+000 -1.000000e+000 -1.250000e+000
         vertex 1.000000e+000 -1.000000e+000 -1.200000e+000
      endloop
   endfacet
   facet normal 0.000000e+000 -1.000000e+000 0.000000e+000
      outer loop
         vertex 1.250000e+000 -1.000000e+000 1.000000e+000
         vertex 1.200000e+000 -1.000000e+000 1.000000e+000
         vertex 1.250000e+000 -1.000000e+000 -1.000000e+000
      endloop
   endfacet
   facet normal 0.000000e+000 -1.000000e+000 0.000000e+000
      outer loop
         vertex 1.250000e+000 -1.000000e+000 -1.000000e+000
         vertex 1.200000e+000 -1.000000e+000 1.000000e+000
         vertex 1.200000e+000 -1.000000e+000 -1.000000e+000
      endloop
   endfacet
   facet normal 0.000000e+000 -1.000000e+000 0.000000e+000
      outer loop
         vertex -1.200000e+000 -1.000000e+000 -1.000000e+000
         vertex -1.200000e+000 -1.000000e+000 1.000000e+000
         vertex -1.250000e+000 -1.000000e+000 -1.000000e+000
      endloop
   endfacet
   facet normal 0.000000e+000 -1.000000e+000 0.000000e+000
      outer loop
         vertex -1.250000e+000 -1.000000e+000 -1.000000e+000
         vertex -1.200000e+000 -1.000000e+000 1.000000e+000
         vertex -1.250000e+000 -1.000000e+000 1.000000e+000
      endloop
   endfacet
   facet normal 0.000000e+000 -1.000000e+000 0.000000e+000
      outer loop
         vertex 1.000000e+000 -1.000000e+000 1.250000e+000
         vertex -1.000000e+000 -1.000000e+000 1.250000e+000
         vertex 1.000000e+000 -1.000000e+000 1.200000e+000
      endloop
   endfacet
   facet normal 0.000000e+000 -1.000000e+000 0.000000e+000
      outer loop
         vertex 1.000000e+000 -1.000000e+000 1.200000e+000
         vertex -1.000000e+000 -1.000000e+000 1.250000e+000
         vertex -1.000000e+000 -1.000000e+000 1.200000e+000
      endloop
   endfacet
   facet normal 1.000000e+000 0.000000e+000 0.000000e+000
      outer loop
         vertex 1.250000e+000 -1.200000e+000 1.250000e+000
         vertex 1.250000e+000 -1.200000e+000 1.000000e+000
         vertex 1.250000e+000 -1.000000e+000 1.000000e+000
      endloop
   endfacet
   facet normal 1.000000e+000 0.000000e+000 0.000000e+000
      outer loop
         vertex 1.250000e+000 -1.200000e+000 -1.000000e+000
         vertex 1.250000e+000 -1.200000e+000 -1.250000e+000
         vertex 1.250000e+000 -1.000000e+000 -1.000000e+000
      endloop
   endfacet
   facet normal 1.000000e+000 0.000000e+000 0.000000e+000
      outer loop
         vertex 1.250000e+000 -1.000000e+000 -1.000000e+000
         vertex 1.250000e+000 -1.200000e+000 -1.250000e+000
         vertex 1.250000e+000 1.000000e+000 -1.250000e+000
      endloop
   endfacet
   facet normal 1.000000e+000 0.000000e+000 0.000000e+000
      outer loop
         vertex 1.250000e+000 -1.000000e+000 -1.000000e+000
         vertex 1.250000e+000 1.000000e+000 -1.250000e+000
         vertex 1.250000e+000 -1.000000e+000 1.000000e+000
      endloop
   endfacet
   facet normal 1.000000e+000 0.000000e+000 0.000000e+000
      outer loop
         vertex 1.250000e+000 -1.000000e+000 1.000000e+000
         vertex 1.250000e+000 1.000000e+000 -1.250000e+000
         vertex 1.250000e+000 1.000000e+000 1.250000e+000
      endloop
   endfacet
   facet normal 1.000000e+000 0.000000e+000 0.000000e+000
      outer loop
         vertex 1.250000e+000 -1.000000e+000 1.000000e+000
         vertex 1.250000e+000 1.000000e+000 1.250000e+000
         vertex 1.250000e+000 -1.200000e+000 1.250000e+000
      endloop
   endfacet
   facet normal 0.000000e+000 0.000000e+000 -1.000000e+000
      outer loop
         vertex 1.250000e+000 -1.200000e+000 -1.250000e+000
         vertex 1.000000e+000 -1.200000e+000 -1.250000e+000
         vertex 1.000000e+000 -1.000000e+000 -1.250000e+000
      endloop
   endfacet
   facet normal 0.000000e+000 0.000000e+000 -1.000000e+000
      outer loop
         vertex -1.000000e+000 -1.200000e+000 -1.250000e+000
         vertex -1.250000e+000 -1.200000e+000 -1.250000e+000
         vertex -1.000000e+000 -1.000000e+000 -1.250000e+000
      endloop
   endfacet
   facet normal 0.000000e+000 0.000000e+000 -1.000000e+000
      outer loop
         vertex -1.000000e+000 -1.000000e+000 -1.250000e+000
         vertex -1.250000e+000 -1.200000e+000 -1.250000e+000
         vertex -1.250000e+000 1.000000e+000 -1.250000e+000
      endloop
   endfacet
   facet normal 0.000000e+000 0.000000e+000 -1.000000e+000
      outer loop
         vertex -1.000000e+000 -1.000000e+000 -1.250000e+000
         vertex -1.250000e+000 1.000000e+000 -1.250000e+000
         vertex 1.000000e+000 -1.000000e+000 -1.250000e+000
      endloop
   endfacet
   facet normal 0.000000e+000 0.000000e+000 -1.000000e+000
      outer loop
         vertex 1.000000e+000 -1.000000e+000 -1.250000e+000
         vertex -1.250000e+000 1.000000e+000 -1.250000e+000
         vertex 1.250000e+000 1.000000e+000 -1.250000e+000
      endloop
   endfacet
   facet normal 0.000000e+000 0.000000e+000 -1.000000e+000
      outer loop
         vertex 1.000000e+000 -1.000000e+000 -1.250000e+000
         vertex 1.250000e+000 1.000000e+000 -1.250000e+000
         vertex 1.250000e+000 -1.200000e+000 -1.250000e+000
      endloop
   endfacet
   facet normal -1.000000e+000 0.000000e+000 0.000000e+000
      outer loop
         vertex -1.250000e+000 -1.200000e+000 -1.250000e+000
         vertex -1.250000e+000 -1.200000e+000 -1.000000e+000
         vertex -1.250000e+000 -1.000000e+000 -1.000000e+000
      endloop
   endfacet
   facet normal -1.000000e+000 0.000000e+000 0.000000e+000
      outer loop
         vertex -1.250000e+000 -1.200000e+000 1.000000e+000
         vertex -1.250000e+000 -1.200000e+000 1.250000e+000
         vertex -1.250000e+000 -1.000000e+000 1.000000e+000
      endloop
   endfacet
   facet normal -1.000000e+000 0.000000e+000 0.000000e+000
      outer loop
         vertex -1.250000e+000 -1.000000e+000 1.000000e+000
         vertex -1.250000e+000 -1.200000e+000 1.250000e+000
         vertex -1.250000e+000 1.000000e+000 1.250000e+000
      endloop
   endfacet
   facet normal -1.000000e+000 0.000000e+000 0.000000e+000
      outer loop
         vertex -1.250000e+000 -1.000000e+000 1.000000e+000
         vertex -1.250000e+000 1.000000e+000 1.250000e+000
         vertex -1.250000e+000 -1.000000e+000 -1.000000e+000
      endloop
   endfacet
   facet normal -1.000000e+000 0.000000e+000 0.000000e+000
      outer loop
         vertex -1.250000e+000 -1.000000e+000 -1.000000e+000
         vertex -1.250000e+000 1.000000e+000 1.250000e+000
         vertex -1.250000e+000 1.000000e+000 -1.250000e+000
      endloop
   endfacet
   facet normal -1.000000e+000 0.000000e+000 0.000000e+000
      outer loop
         vertex -1.250000e+000 -1.000000e+000 -1.000000e+000
         vertex -1.250000e+000 1.000000e+000 -1.250000e+000
         vertex -1.250000e+000 -1.200000e+000 -1.250000e+000
      endloop
   endfacet
   facet normal 0.000000e+000 0.000000e+000 1.000000e+000
      outer loop
         vertex -1.250000e+000 -1.200000e+000 1.250000e+000
         vertex -1.000000e+000 -1.200000e+000 1.250000e+000
         vertex -1.000000e+000 -1.000000e+000 1.250000e+000
      endloop
   endfacet
   facet normal 0.000000e+000 0.000000e+000 1.000000e+000
      outer loop
         vertex 1.000000e+000 -1.200000e+000 1.250000e+000
         vertex 1.250000e+000 -1.200000e+000 1.250000e+000
         vertex 1.000000e+000 -1.000000e+000 1.250000e+000
      endloop
   endfacet
   facet normal 0.000000e+000 0.000000e+000 1.000000e+000
      outer loop
         vertex 1.000000e+000 -1.000000e+000 1.250000e+000
         vertex 1.250000e+000 -1.200000e+000 1.250000e+000
         vertex 1.250000e+000 1.000000e+000 1.250000e+000
      endloop
   endfacet
   facet normal 0.000000e+000 0.000000e+000 1.000000e+000
      outer loop
         vertex 1.000000e+000 -1.000000e+000 1.250000e+000
         vertex 1.250000e+000 1.000000e+000 1.250000e+000
         vertex -1.000000e+000 -1.000000e+000 1.250000e+000
      endloop
   endfacet
   facet normal 0.000000e+000 0.000000e+000 1.000000e+000
      outer loop
         vertex -1.000000e+000 -1.000000e+000 1.250000e+000
         vertex 1.250000e+000 1.000000e+000 1.250000e+000
         vertex -1.250000e+000 1.000000e+000 1.250000e+000
      endloop
   endfacet
   facet normal 0.000000e+000 0.000000e+000 1.000000e+000
      outer loop
         vertex -1.000000e+000 -1.000000e+000 1.250000e+000
         vertex -1.250000e+000 1.000000e+000 1.250000e+000
         vertex -1.250000e+000 -1.200000e+000 1.250000e+000
      endloop
   endfacet
   facet normal 0.000000e+000 1.000000e+000 0.000000e+000
      outer loop
         vertex -1.854102e-001 1.000000e+000 5.706339e-001
         vertex -2.723943e-001 1.000000e+000 5.346039e-001
         vertex -1.250000e+000 1.000000e+000 1.250000e+000
      endloop
   endfacet
   facet normal 0.000000e+000 1.000000e+000 0.000000e+000
      outer loop
         vertex -1.250000e+000 1.000000e+000 1.250000e+000
         vertex -2.723943e-001 1.000000e+000 5.346039e-001
         vertex -3.526711e-001 1.000000e+000 4.854102e-001
      endloop
   endfacet
   facet normal 0.000000e+000 1.000000e+000 0.000000e+000
      outer loop
         vertex -1.250000e+000 1.000000e+000 1.250000e+000
         vertex -3.526711e-001 1.000000e+000 4.854102e-001
         vertex -4.242641e-001 1.000000e+000 4.242641e-001
      endloop
   endfacet
   facet normal 0.000000e+000 1.000000e+000 0.000000e+000
      outer loop
         vertex -4.242641e-001 1.000000e+000 4.242641e-001
         vertex -4.854102e-001 1.000000e+000 3.526711e-001
         vertex -1.250000e+000 1.000000e+000 1.250000e+000
      endloop
   endfacet
   facet normal 0.000000e+000 1.000000e+000 0.000000e+000
      outer loop
         vertex -1.250000e+000 1.000000e+000 1.250000e+000
         vertex -4.854102e-001 1.000000e+000 3.526711e-001
         vertex -5.346039e-001 1.000000e+000 2.723943e-001
      endloop
   endfacet
   facet normal 0.000000e+000 1.000000e+000 0.000000e+000
      outer loop
         vertex -1.250000e+000 1.000000e+000 1.250000e+000
         vertex -5.346039e-001 1.000000e+000 2.723943e-001
         vertex -5.706339e-001 1.000000e+000 1.854102e-001
      endloop
   endfacet
   facet normal 0.000000e+000 1.000000e+000 0.000000e+000
      outer loop
         vertex -5.706339e-001 1.000000e+000 1.854102e-001
         vertex -5.926130e-001 1.000000e+000 9.386068e-002
         vertex -1.250000e+000 1.000000e+000 1.250000e+000
      endloop
   endfacet
   facet normal 0.000000e+000 1.000000e+000 0.000000e+000
      outer loop
         vertex -1.250000e+000 1.000000e+000 1.250000e+000
         vertex -5.926130e-001 1.000000e+000 9.386068e-002
         vertex -6.000000e-001 1.000000e+000 1.102182e-016
      endloop
   endfacet
   facet normal 0.000000e+000 1.000000e+000 0.000000e+000
      outer loop
         vertex -1.250000e+000 1.000000e+000 1.250000e+000
         vertex -6.000000e-001 1.000000e+000 1.102182e-016
         vertex -1.250000e+000 1.000000e+000 -1.250000e+000
      endloop
   endfacet
   facet normal 0.000000e+000 1.000000e+000 0.000000e+000
      outer loop
         vertex -1.250000e+000 1.000000e+000 -1.250000e+000
         vertex -6.000000e-001 1.000000e+000 1.102182e-016
         vertex -5.926130e-001 1.000000e+000 -9.386068e-002
      endloop
   endfacet
   facet normal 0.000000e+000 1.000000e+000 0.000000e+000
      outer loop
         vertex -1.250000e+000 1.000000e+000 -1.250000e+000
         vertex -5.926130e-001 1.000000e+000 -9.386068e-002
         vertex -5.706339e-001 1.000000e+000 -1.854102e-001
      endloop
   endfacet
   facet normal 0.000000e+000 1.000000e+000 0.000000e+000
      outer loop
         vertex -5.706339e-001 1.000000e+000 -1.854102e-001
         vertex -5.346039e-001 1.000000e+000 -2.723943e-001
         vertex -1.250000e+000 1.000000e+000 -1.250000e+000
      endloop
   endfacet
   facet normal 0.000000e+000 1.000000e+000 0.000000e+000
      outer loop
         vertex -1.250000e+000 1.000000e+000 -1.250000e+000
         vertex -5.346039e-001 1.000000e+000 -2.723943e-001
         vertex -4.854102e-001 1.000000e+000 -3.526711e-001
      endloop
   endfacet
   facet normal 0.000000e+000 1.000000e+000 0.000000e+000
      outer loop
         vertex -1.250000e+000 1.000000e+000 -1.250000e+000
         vertex -4.854102e-001 1.000000e+000 -3.526711e-001
         vertex -4.242641e-001 1.000000e+000 -4.242641e-001
      endloop
   endfacet
   facet normal 0.000000e+000 1.000000e+000 0.000000e+000
      outer loop
         vertex -4.242641e-001 1.000000e+000 -4.242641e-001
         vertex -3.526711e-001 1.000000e+000 -4.854102e-001
         vertex -1.250000e+000 1.000000e+000 -1.250000e+000
      endloop
   endfacet
   facet normal 0.000000e+000 1.000000e+000 0.000000e+000
      outer loop
         vertex -1.250000e+000 1.000000e+000 -1.250000e+000
         vertex -3.526711e-001 1.000000e+000 -4.854102e-001
         vertex -2.723943e-001 1.000000e+000 -5.346039e-001
      endloop
   endfacet
   facet normal 0.000000e+000 1.000000e+000 0.000000e+000
      outer loop
         vertex -1.250000e+000 1.000000e+000 -1.250000e+000
         vertex -2.723943e-001 1.000000e+000 -5.346039e-001
         vertex -1.854102e-001 1.000000e+000 -5.706339e-001
      endloop
   endfacet
   facet normal 0.000000e+000 1.000000e+000 0.000000e+000
      outer loop
         vertex 1.854102e-001 1.000000e+000 5.706339e-001
         vertex 9.386068e-002 1.000000e+000 5.926130e-001
         vertex 1.250000e+000 1.000000e+000 1.250000e+000
      endloop
   endfacet
   facet normal 0.000000e+000 1.000000e+000 0.000000e+000
      outer loop
         vertex 1.250000e+000 1.000000e+000 1.250000e+000
         vertex 9.386068e-002 1.000000e+000 5.926130e-001
         vertex 2.204364e-016 1.000000e+000 6.000000e-001
      endloop
   endfacet
   facet normal 0.000000e+000 1.000000e+000 0.000000e+000
      outer loop
         vertex 1.250000e+000 1.000000e+000 1.250000e+000
         vertex 2.204364e-016 1.000000e+000 6.000000e-001
         vertex -1.250000e+000 1.000000e+000 1.250000e+000
      endloop
   endfacet
   facet normal 0.000000e+000 1.000000e+000 0.000000e+000
      outer loop
         vertex -1.250000e+000 1.000000e+000 1.250000e+000
         vertex 2.204364e-016 1.000000e+000 6.000000e-001
         vertex -9.386068e-002 1.000000e+000 5.926130e-001
      endloop
   endfacet
   facet normal 0.000000e+000 1.000000e+000 0.000000e+000
      outer loop
         vertex -1.250000e+000 1.000000e+000 1.250000e+000
         vertex -9.386068e-002 1.000000e+000 5.926130e-001
         vertex -1.854102e-001 1.000000e+000 5.706339e-001
      endloop
   endfacet
   facet normal 0.000000e+000 1.000000e+000 0.000000e+000
      outer loop
         vertex -1.854102e-001 1.000000e+000 -5.706339e-001
         vertex -9.386068e-002 1.000000e+000 -5.926130e-001
         vertex -1.250000e+000 1.000000e+000 -1.250000e+000
      endloop
   endfacet
   facet normal 0.000000e+000 1.000000e+000 0.000000e+000
      outer loop
         vertex -1.250000e+000 1.000000e+000 -1.250000e+000
         vertex -9.386068e-002 1.000000e+000 -5.926130e-001
         vertex 0.000000e+000 1.000000e+000 -6.000000e-001
      endloop
   endfacet
   facet normal 0.000000e+000 1.000000e+000 0.000000e+000
      outer loop
         vertex -1.250000e+000 1.000000e+000 -1.250000e+000
         vertex 0.000000e+000 1.000000e+000 -6.000000e-001
         vertex 1.250000e+000 1.000000e+000 -1.250000e+000
      endloop
   endfacet
   facet normal 0.000000e+000 1.000000e+000 0.000000e+000
      outer loop
         vertex 1.250000e+000 1.000000e+000 -1.250000e+000
         vertex 0.000000e+000 1.000000e+000 -6.000000e-001
         vertex 9.386068e-002 1.000000e+000 -5.926130e-001
      endloop
   endfacet
   facet normal 0.000000e+000 1.000000e+000 0.000000e+000
      outer loop
         vertex 1.250000e+000 1.000000e+000 -1.250000e+000
         vertex 9.386068e-002 1.000000e+000 -5.926130e-001
         vertex 1.854102e-001 1.000000e+000 -5.706339e-001
      endloop
   endfacet
   facet normal 0.000000e+000 1.000000e+000 0.000000e+000
      outer loop
         vertex 1.854102e-001 1.000000e+000 -5.706339e-001
         vertex 2.723943e-001 1.000000e+000 -5.346039e-001
         vertex 1.250000e+000 1.000000e+000 -1.250000e+000
      endloop
   endfacet
   facet normal 0.000000e+000 1.000000e+000 0.000000e+000
      outer loop
         vertex 1.250000e+000 1.000000e+000 -1.250000e+000
         vertex 2.723943e-001 1.000000e+000 -5.346039e-001
         vertex 3.526711e-001 1.000000e+000 -4.854102e-001
      endloop
   endfacet
   facet normal 0.000000e+000 1.000000e+000 0.000000e+000
      outer loop
         vertex 1.250000e+000 1.000000e+000 -1.250000e+000
         vertex 3.526711e-001 1.000000e+000 -4.854102e-001
         vertex 4.242641e-001 1.000000e+000 -4.242641e-001
      endloop
   endfacet
   facet normal 0.000000e+000 1.000000e+000 0.000000e+000
      outer loop
         vertex 4.242641e-001 1.000000e+000 4.242641e-001
         vertex 3.526711e-001 1.000000e+000 4.854102e-001
         vertex 1.250000e+000 1.000000e+000 1.250000e+000
      endloop
   endfacet
   facet normal 0.000000e+000 1.000000e+000 0.000000e+000
      outer loop
         vertex 1.250000e+000 1.000000e+000 1.250000e+000
         vertex 3.526711e-001 1.000000e+000 4.854102e-001
         vertex 2.723943e-001 1.000000e+000 5.346039e-001
      endloop
   endfacet
   facet normal 0.000000e+000 1.000000e+000 0.000000e+000
      outer loop
         vertex 1.250000e+000 1.000000e+000 1.250000e+000
         vertex 2.723943e-001 1.000000e+000 5.346039e-001
         vertex 1.854102e-001 1.000000e+000 5.706339e-001
      endloop
   endfacet
   facet normal 0.000000e+000 1.000000e+000 0.000000e+000
      outer loop
         vertex 4.242641e-001 1.000000e+000 -4.242641e-001
         vertex 4.854102e-001 1.000000e+000 -3.526711e-001
         vertex 1.250000e+000 1.000000e+000 -1.250000e+000
      endloop
   endfacet
   facet normal 0.000000e+000 1.000000e+000 0.000000e+000
      outer loop
         vertex 1.250000e+000 1.000000e+000 -1.250000e+000
         vertex 4.854102e-001 1.000000e+000 -3.526711e-001
         vertex 5.346039e-001 1.000000e+000 -2.723943e-001
      endloop
   endfacet
   facet normal 0.000000e+000 1.000000e+000 0.000000e+000
      outer loop
         vertex 1.250000e+000 1.000000e+000 -1.250000e+000
         vertex 5.346039e-001 1.000000e+000 -2.723943e-001
         vertex 5.706339e-001 1.000000e+000 -1.854102e-001
      endloop
   endfacet
   facet normal 0.000000e+000 1.000000e+000 0.000000e+000
      outer loop
         vertex 5.706339e-001 1.000000e+000 -1.854102e-001
         vertex 5.926130e-001 1.000000e+000 -9.386068e-002
         vertex 1.250000e+000 1.000000e+000 -1.250000e+000
      endloop
   endfacet
   facet normal 0.000000e+000 1.000000e+000 0.000000e+000
      outer loop
         vertex 1.250000e+000 1.000000e+000 -1.250000e+000
         vertex 5.926130e-001 1.000000e+000 -9.386068e-002
         vertex 6.000000e-001 1.000000e+000 -3.673941e-017
      endloop
   endfacet
   facet normal 0.000000e+000 1.000000e+000 0.000000e+000
      outer loop
         vertex 1.250000e+000 1.000000e+000 -1.250000e+000
         vertex 6.000000e-001 1.000000e+000 -3.673941e-017
         vertex 1.250000e+000 1.000000e+000 1.250000e+000
      endloop
   endfacet
   facet normal 0.000000e+000 1.000000e+000 0.000000e+000
      outer loop
         vertex 1.250000e+000 1.000000e+000 1.250000e+000
         vertex 6.000000e-001 1.000000e+000 -3.673941e-017
         vertex 5.926130e-001 1.000000e+000 9.386068e-002
      endloop
   endfacet
   facet normal 0.000000e+000 1.000000e+000 0.000000e+000
      outer loop
         vertex 1.250000e+000 1.000000e+000 1.250000e+000
         vertex 5.926130e-001 1.000000e+000 9.386068e-002
         vertex 5.706339e-001 1.000000e+000 1.854102e-001
      endloop
   endfacet
   facet normal 0.000000e+000 1.000000e+000 0.000000e+000
      outer loop
         vertex 5.706339e-001 1.000000e+000 1.854102e-001
         vertex 5.346039e-001 1.000000e+000 2.723943e-001
         vertex 1.250000e+000 1.000000e+000 1.250000e+000
      endloop
   endfacet
   facet normal 0.000000e+000 1.000000e+000 0.000000e+000
      outer loop
         vertex 1.250000e+000 1.000000e+000 1.250000e+000
         vertex 5.346039e-001 1.000000e+000 2.723943e-001
         vertex 4.854102e-001 1.000000e+000 3.526711e-001
      endloop
   endfacet
   facet normal 0.000000e+000 1.000000e+000 0.000000e+000
      outer loop
         vertex 1.250000e+000 1.000000e+000 1.250000e+000
         vertex 4.854102e-001 1.000000e+000 3.526711e-001
         vertex 4.242641e-001 1.000000e+000 4.242641e-001
      endloop
   endfacet
   facet normal -5.228807e-002 0.000000e+000 9.986320e-001
      outer loop
         vertex -1.469576e-016 1.000000e+000 -6.000000e-001
         vertex -1.469576e-016 9.500000e-001 -6.000000e-001
         vertex 9.386068e-002 1.000000e+000 -5.926130e-001
      endloop
   endfacet
   facet normal -1.045761e-001 0.000000e+000 9.945168e-001
      outer loop
         vertex 9.386068e-002 1.000000e+000 -5.926130e-001
         vertex -1.469576e-016 9.500000e-001 -6.000000e-001
         vertex 9.386068e-002 9.500000e-001 -5.926130e-001
      endloop
   endfacet
   facet normal -2.078648e-001 0.000000e+000 9.781576e-001
      outer loop
         vertex 9.386068e-002 1.000000e+000 -5.926130e-001
         vertex 9.386068e-002 9.500000e-001 -5.926130e-001
         vertex 1.854102e-001 1.000000e+000 -5.706339e-001
      endloop
   endfacet
   facet normal -2.588653e-001 0.000000e+000 9.659134e-001
      outer loop
         vertex 1.854102e-001 1.000000e+000 -5.706339e-001
         vertex 9.386068e-002 9.500000e-001 -5.926130e-001
         vertex 1.854102e-001 9.500000e-001 -5.706339e-001
      endloop
   endfacet
   facet normal -3.583232e-001 0.000000e+000 9.335976e-001
      outer loop
         vertex 1.854102e-001 1.000000e+000 -5.706339e-001
         vertex 1.854102e-001 9.500000e-001 -5.706339e-001
         vertex 2.723943e-001 1.000000e+000 -5.346039e-001
      endloop
   endfacet
   facet normal -4.067805e-001 0.000000e+000 9.135259e-001
      outer loop
         vertex 2.723943e-001 1.000000e+000 -5.346039e-001
         vertex 1.854102e-001 9.500000e-001 -5.706339e-001
         vertex 2.723943e-001 9.500000e-001 -5.346039e-001
      endloop
   endfacet
   facet normal -4.999584e-001 0.000000e+000 8.660494e-001
      outer loop
         vertex 2.723943e-001 1.000000e+000 -5.346039e-001
         vertex 2.723943e-001 9.500000e-001 -5.346039e-001
         vertex 3.526711e-001 1.000000e+000 -4.854102e-001
      endloop
   endfacet
   facet normal -5.446792e-001 0.000000e+000 8.386444e-001
      outer loop
         vertex 3.526711e-001 1.000000e+000 -4.854102e-001
         vertex 2.723943e-001 9.500000e-001 -5.346039e-001
         vertex 3.526711e-001 9.500000e-001 -4.854102e-001
      endloop
   endfacet
   facet normal -6.292831e-001 0.000000e+000 7.771761e-001
      outer loop
         vertex 3.526711e-001 1.000000e+000 -4.854102e-001
         vertex 3.526711e-001 9.500000e-001 -4.854102e-001
         vertex 4.242641e-001 1.000000e+000 -4.242641e-001
      endloop
   endfacet
   facet normal -6.691663e-001 0.000000e+000 7.431127e-001
      outer loop
         vertex 4.242641e-001 1.000000e+000 -4.242641e-001
         vertex 3.526711e-001 9.500000e-001 -4.854102e-001
         vertex 4.242641e-001 9.500000e-001 -4.242641e-001
      endloop
   endfacet
   facet normal -7.431127e-001 0.000000e+000 6.691663e-001
      outer loop
         vertex 4.242641e-001 1.000000e+000 -4.242641e-001
         vertex 4.242641e-001 9.500000e-001 -4.242641e-001
         vertex 4.854102e-001 1.000000e+000 -3.526711e-001
      endloop
   endfacet
   facet normal -7.771761e-001 0.000000e+000 6.292831e-001
      outer loop
         vertex 4.854102e-001 1.000000e+000 -3.526711e-001
         vertex 4.242641e-001 9.500000e-001 -4.242641e-001
         vertex 4.854102e-001 9.500000e-001 -3.526711e-001
      endloop
   endfacet
   facet normal -8.386444e-001 0.000000e+000 5.446792e-001
      outer loop
         vertex 4.854102e-001 1.000000e+000 -3.526711e-001
         vertex 4.854102e-001 9.500000e-001 -3.526711e-001
         vertex 5.346039e-001 1.000000e+000 -2.723943e-001
      endloop
   endfacet
   facet normal -8.660494e-001 0.000000e+000 4.999584e-001
      outer loop
         vertex 5.346039e-001 1.000000e+000 -2.723943e-001
         vertex 4.854102e-001 9.500000e-001 -3.526711e-001
         vertex 5.346039e-001 9.500000e-001 -2.723943e-001
      endloop
   endfacet
   facet normal -9.135259e-001 0.000000e+000 4.067805e-001
      outer loop
         vertex 5.346039e-001 1.000000e+000 -2.723943e-001
         vertex 5.346039e-001 9.500000e-001 -2.723943e-001
         vertex 5.706339e-001 1.000000e+000 -1.854102e-001
      endloop
   endfacet
   facet normal -9.335976e-001 0.000000e+000 3.583232e-001
      outer loop
         vertex 5.706339e-001 1.000000e+000 -1.854102e-001
         vertex 5.346039e-001 9.500000e-001 -2.723943e-001
         vertex 5.706339e-001 9.500000e-001 -1.854102e-001
      endloop
   endfacet
   facet normal -9.659134e-001 0.000000e+000 2.588653e-001
      outer loop
         vertex 5.706339e-001 1.000000e+000 -1.854102e-001
         vertex 5.706339e-001 9.500000e-001 -1.854102e-001
         vertex 5.926130e-001 1.000000e+000 -9.386068e-002
      endloop
   endfacet
   facet normal -9.781575e-001 0.000000e+000 2.078648e-001
      outer loop
         vertex 5.926130e-001 1.000000e+000 -9.386068e-002
         vertex 5.706339e-001 9.500000e-001 -1.854102e-001
         vertex 5.926130e-001 9.500000e-001 -9.386068e-002
      endloop
   endfacet
   facet normal -9.945168e-001 0.000000e+000 1.045761e-001
      outer loop
         vertex 5.926130e-001 1.000000e+000 -9.386068e-002
         vertex 5.926130e-001 9.500000e-001 -9.386068e-002
         vertex 6.000000e-001 1.000000e+000 -3.673941e-017
      endloop
   endfacet
   facet normal -9.986320e-001 0.000000e+000 5.228807e-002
      outer loop
         vertex 6.000000e-001 1.000000e+000 -3.673941e-017
         vertex 5.926130e-001 9.500000e-001 -9.386068e-002
         vertex 6.000000e-001 9.500000e-001 -3.673941e-017
      endloop
   endfacet
   facet normal -9.986320e-001 0.000000e+000 -5.228807e-002
      outer loop
         vertex 6.000000e-001 1.000000e+000 -3.673941e-017
         vertex 6.000000e-001 9.500000e-001 -3.673941e-017
         vertex 5.926130e-001 1.000000e+000 9.386068e-002
      endloop
   endfacet
   facet normal -9.945168e-001 0.000000e+000 -1.045761e-001
      outer loop
         vertex 5.926130e-001 1.000000e+000 9.386068e-002
         vertex 6.000000e-001 9.500000e-001 -3.673941e-017
         vertex 5.926130e-001 9.500000e-001 9.386068e-002
      endloop
   endfacet
   facet normal -9.781576e-001 0.000000e+000 -2.078648e-001
      outer loop
         vertex 5.926130e-001 1.000000e+000 9.386068e-002
         vertex 5.926130e-001 9.500000e-001 9.386068e-002
         vertex 5.706339e-001 1.000000e+000 1.854102e-001
      endloop
   endfacet
   facet normal -9.659134e-001 0.000000e+000 -2.588653e-001
      outer loop
         vertex 5.706339e-001 1.000000e+000 1.854102e-001
         vertex 5.926130e-001 9.500000e-001 9.386068e-002
         vertex 5.706339e-001 9.500000e-001 1.854102e-001
      endloop
   endfacet
   facet normal -9.335976e-001 0.000000e+000 -3.583232e-001
      outer loop
         vertex 5.706339e-001 1.000000e+000 1.854102e-001
         vertex 5.706339e-001 9.500000e-001 1.854102e-001
         vertex 5.346039e-001 1.000000e+000 2.723943e-001
      endloop
   endfacet
   facet normal -9.135259e-001 0.000000e+000 -4.067805e-001
      outer loop
         vertex 5.346039e-001 1.000000e+000 2.723943e-001
         vertex 5.706339e-001 9.500000e-001 1.854102e-001
         vertex 5.346039e-001 9.500000e-001 2.723943e-001
      endloop
   endfacet
   facet normal -8.660494e-001 0.000000e+000 -4.999584e-001
      outer loop
         vertex 5.346039e-001 1.000000e+000 2.723943e-001
         vertex 5.346039e-001 9.500000e-001 2.723943e-001
         vertex 4.854102e-001 1.000000e+000 3.526711e-001
      endloop
   endfacet
   facet normal -8.386444e-001 0.000000e+000 -5.446792e-001
      outer loop
         vertex 4.854102e-001 1.000000e+000 3.526711e-001
         vertex 5.346039e-001 9.500000e-001 2.723943e-001
         vertex 4.854102e-001 9.500000e-001 3.526711e-001
      endloop
   endfacet
   facet normal -7.771761e-001 0.000000e+000 -6.292831e-001
      outer loop
         vertex 4.854102e-001 1.000000e+000 3.526711e-001
         vertex 4.854102e-001 9.500000e-001 3.526711e-001
         vertex 4.242641e-001 1.000000e+000 4.242641e-001
      endloop
   endfacet
   facet normal -7.431127e-001 0.000000e+000 -6.691663e-001
      outer loop
         vertex 4.242641e-001 1.000000e+000 4.242641e-001
         vertex 4.854102e-001 9.500000e-001 3.526711e-001
         vertex 4.242641e-001 9.500000e-001 4.242641e-001
      endloop
   endfacet
   facet normal -6.691663e-001 0.000000e+000 -7.431127e-001
      outer loop
         vertex 4.242641e-001 1.000000e+000 4.242641e-001
         vertex 4.242641e-001 9.500000e-001 4.242641e-001
         vertex 3.526711e-001 1.000000e+000 4.854102e-001
      endloop
   endfacet
   facet normal -6.292831e-001 0.000000e+000 -7.771761e-001
      outer loop
         vertex 3.526711e-001 1.000000e+000 4.854102e-001
         vertex 4.242641e-001 9.500000e-001 4.242641e-001
         vertex 3.526711e-001 9.500000e-001 4.854102e-001
      endloop
   endfacet
   facet normal -5.446792e-001 0.000000e+000 -8.386444e-001
      outer loop
         vertex 3.526711e-001 1.000000e+000 4.854102e-001
         vertex 3.526711e-001 9.500000e-001 4.854102e-001
         vertex 2.723943e-001 1.000000e+000 5.346039e-001
      endloop
   endfacet
   facet normal -4.999584e-001 0.000000e+000 -8.660494e-001
      outer loop
         vertex 2.723943e-001 1.000000e+000 5.346039e-001
         vertex 3.526711e-001 9.500000e-001 4.854102e-001
         vertex 2.723943e-001 9.500000e-001 5.346039e-001
      endloop
   endfacet
   facet normal -4.067805e-001 0.000000e+000 -9.135259e-001
      outer loop
         vertex 2.723943e-001 1.000000e+000 5.346039e-001
         vertex 2.723943e-001 9.500000e-001 5.346039e-001
         vertex 1.854102e-001 1.000000e+000 5.706339e-001
      endloop
   endfacet
   facet normal -3.583232e-001 0.000000e+000 -9.335976e-001
      outer loop
         vertex 1.854102e-001 1.000000e+000 5.706339e-001
         vertex 2.723943e-001 9.500000e-001 5.346039e-001
         vertex 1.854102e-001 9.500000e-001 5.706339e-001
      endloop
   endfacet
   facet normal -2.588653e-001 0.000000e+000 -9.659134e-001
      outer loop
         vertex 1.854102e-001 1.000000e+000 5.706339e-001
         vertex 1.854102e-001 9.500000e-001 5.706339e-001
         vertex 9.386068e-002 1.000000e+000 5.926130e-001
      endloop
   endfacet
   facet normal -2.078648e-001 0.000000e+000 -9.781575e-001
      outer loop
         vertex 9.386068e-002 1.000000e+000 5.926130e-001
         vertex 1.854102e-001 9.500000e-001 5.706339e-001
         vertex 9.386068e-002 9.500000e-001 5.926130e-001
      endloop
   endfacet
   facet normal -1.045761e-001 0.000000e+000 -9.945168e-001
      outer loop
         vertex 9.386068e-002 1.000000e+000 5.926130e-001
         vertex 9.386068e-002 9.500000e-001 5.926130e-001
         vertex 7.347881e-017 1.000000e+000 6.000000e-001
      endloop
   endfacet
   facet normal -5.228807e-002 0.000000e+000 -9.986320e-001
      outer loop
         vertex 7.347881e-017 1.000000e+000 6.000000e-001
         vertex 9.386068e-002 9.500000e-001 5.926130e-001
         vertex 7.347881e-017 9.500000e-001 6.000000e-001
      endloop
   endfacet
   facet normal 5.228807e-002 0.000000e+000 -9.986320e-001
      outer loop
         vertex 7.347881e-017 1.000000e+000 6.000000e-001
         vertex 7.347881e-017 9.500000e-001 6.000000e-001
         vertex -9.386068e-002 1.000000e+000 5.926130e-001
      endloop
   endfacet
   facet normal 1.045761e-001 0.000000e+000 -9.945168e-001
      outer loop
         vertex -9.386068e-002 1.000000e+000 5.926130e-001
         vertex 7.347881e-017 9.500000e-001 6.000000e-001
         vertex -9.386068e-002 9.500000e-001 5.926130e-001
      endloop
   endfacet
   facet normal 2.078648e-001 0.000000e+000 -9.781576e-001
      outer loop
         vertex -9.386068e-002 1.000000e+000 5.926130e-001
         vertex -9.386068e-002 9.500000e-001 5.926130e-001
         vertex -1.854102e-001 1.000000e+000 5.706339e-001
      endloop
   endfacet
   facet normal 2.588653e-001 0.000000e+000 -9.659134e-001
      outer loop
         vertex -1.854102e-001 1.000000e+000 5.706339e-001
         vertex -9.386068e-002 9.500000e-001 5.926130e-001
         vertex -1.854102e-001 9.500000e-001 5.706339e-001
      endloop
   endfacet
   facet normal 3.583232e-001 0.000000e+000 -9.335976e-001
      outer loop
         vertex -1.854102e-001 1.000000e+000 5.706339e-001
         vertex -1.854102e-001 9.500000e-001 5.706339e-001
         vertex -2.723943e-001 1.000000e+000 5.346039e-001
      endloop
   endfacet
   facet normal 4.067805e-001 0.000000e+000 -9.135259e-001
      outer loop
         vertex -2.723943e-001 1.000000e+000 5.346039e-001
         vertex -1.854102e-001 9.500000e-001 5.706339e-001
         vertex -2.723943e-001 9.500000e-001 5.346039e-001
      endloop
   endfacet
   facet normal 4.999584e-001 0.000000e+000 -8.660494e-001
      outer loop
         vertex -2.723943e-001 1.000000e+000 5.346039e-001
         vertex -2.723943e-001 9.500000e-001 5.346039e-001
         vertex -3.526711e-001 1.000000e+000 4.854102e-001
      endloop
   endfacet
   facet normal 5.446792e-001 0.000000e+000 -8.386444e-001
      outer loop
         vertex -3.526711e-001 1.000000e+000 4.854102e-001
         vertex -2.723943e-001 9.500000e-001 5.346039e-001
         vertex -3.526711e-001 9.500000e-001 4.854102e-001
      endloop
   endfacet
   facet normal 6.292831e-001 0.000000e+000 -7.771761e-001
      outer loop
         vertex -3.526711e-001 1.000000e+000 4.854102e-001
         vertex -3.526711e-001 9.500000e-001 4.854102e-001
         vertex -4.242641e-001 1.000000e+000 4.242641e-001
      endloop
   endfacet
   facet normal 6.691663e-001 0.000000e+000 -7.431127e-001
      outer loop
         vertex -4.242641e-001 1.000000e+000 4.242641e-001
         vertex -3.526711e-001 9.500000e-001 4.854102e-001
         vertex -4.242641e-001 9.500000e-001 4.242641e-001
      endloop
   endfacet
   facet normal 7.431127e-001 0.000000e+000 -6.691663e-001
      outer loop
         vertex -4.242641e-001 1.000000e+000 4.242641e-001
         vertex -4.242641e-001 9.500000e-001 4.242641e-001
         vertex -4.854102e-001 1.000000e+000 3.526711e-001
      endloop
   endfacet
   facet normal 7.771761e-001 0.000000e+000 -6.292831e-001
      outer loop
         vertex -4.854102e-001 1.000000e+000 3.526711e-001
         vertex -4.242641e-001 9.500000e-001 4.242641e-001
         vertex -4.854102e-001 9.500000e-001 3.526711e-001
      endloop
   endfacet
   facet normal 8.386444e-001 0.000000e+000 -5.446792e-001
      outer loop
         vertex -4.854102e-001 1.000000e+000 3.526711e-001
         vertex -4.854102e-001 9.500000e-001 3.526711e-001
         vertex -5.346039e-001 1.000000e+000 2.723943e-001
      endloop
   endfacet
   facet normal 8.660494e-001 0.000000e+000 -4.999584e-001
      outer loop
         vertex -5.346039e-001 1.000000e+000 2.723943e-001
         vertex -4.854102e-001 9.500000e-001 3.526711e-001
         vertex -5.346039e-001 9.500000e-001 2.723943e-001
      endloop
   endfacet
   facet normal 9.135259e-001 0.000000e+000 -4.067805e-001
      outer loop
         vertex -5.346039e-001 1.000000e+000 2.723943e-001
         vertex -5.346039e-001 9.500000e-001 2.723943e-001
         vertex -5.706339e-001 1.000000e+000 1.854102e-001
      endloop
   endfacet
   facet normal 9.335976e-001 0.000000e+000 -3.583232e-001
      outer loop
         vertex -5.706339e-001 1.000000e+000 1.854102e-001
         vertex -5.346039e-001 9.500000e-001 2.723943e-001
         vertex -5.706339e-001 9.500000e-001 1.854102e-001
      endloop
   endfacet
   facet normal 9.659134e-001 0.000000e+000 -2.588653e-001
      outer loop
         vertex -5.706339e-001 1.000000e+000 1.854102e-001
         vertex -5.706339e-001 9.500000e-001 1.854102e-001
         vertex -5.926130e-001 1.000000e+000 9.386068e-002
      endloop
   endfacet
   facet normal 9.781575e-001 0.000000e+000 -2.078648e-001
      outer loop
         vertex -5.926130e-001 1.000000e+000 9.386068e-002
         vertex -5.706339e-001 9.500000e-001 1.854102e-001
         vertex -5.926130e-001 9.500000e-001 9.386068e-002
      endloop
   endfacet
   facet normal 9.945168e-001 0.000000e+000 -1.045761e-001
      outer loop
         vertex -5.926130e-001 1.000000e+000 9.386068e-002
         vertex -5.926130e-001 9.500000e-001 9.386068e-002
         vertex -6.000000e-001 1.000000e+000 1.102182e-016
      endloop
   endfacet
   facet normal 9.986320e-001 0.000000e+000 -5.228807e-002
      outer loop
         vertex -6.000000e-001 1.000000e+000 1.102182e-016
         vertex -5.926130e-001 9.500000e-001 9.386068e-002
         vertex -6.000000e-001 9.500000e-001 1.102182e-016
      endloop
   endfacet
   facet normal 9.986320e-001 0.000000e+000 5.228807e-002
      outer loop
         vertex -6.000000e-001 1.000000e+000 1.102182e-016
         vertex -6.000000e-001 9.500000e-001 1.102182e-016
         vertex -5.926130e-001 1.000000e+000 -9.386068e-002
      endloop
   endfacet
   facet normal 9.945168e-001 0.000000e+000 1.045761e-001
      outer loop
         vertex -5.926130e-001 1.000000e+000 -9.386068e-002
         vertex -6.000000e-001 9.500000e-001 1.102182e-016
         vertex -5.926130e-001 9.500000e-001 -9.386068e-002
      endloop
   endfacet
   facet normal 9.781576e-001 0.000000e+000 2.078648e-001
      outer loop
         vertex -5.926130e-001 1.000000e+000 -9.386068e-002
         vertex -5.926130e-001 9.500000e-001 -9.386068e-002
         vertex -5.706339e-001 1.000000e+000 -1.854102e-001
      endloop
   endfacet
   facet normal 9.659134e-001 0.000000e+000 2.588653e-001
      outer loop
         vertex -5.706339e-001 1.000000e+000 -1.854102e-001
         vertex -5.926130e-001 9.500000e-001 -9.386068e-002
         vertex -5.706339e-001 9.500000e-001 -1.854102e-001
      endloop
   endfacet
   facet normal 9.335976e-001 0.000000e+000 3.583232e-001
      outer loop
         vertex -5.706339e-001 1.000000e+000 -1.854102e-001
         vertex -5.706339e-001 9.500000e-001 -1.854102e-001
         vertex -5.346039e-001 1.000000e+000 -2.723943e-001
      endloop
   endfacet
   facet normal 9.135259e-001 0.000000e+000 4.067805e-001
      outer loop
         vertex -5.346039e-001 1.000000e+000 -2.723943e-001
         vertex -5.706339e-001 9.500000e-001 -1.854102e-001
         vertex -5.346039e-001 9.500000e-001 -2.723943e-001
      endloop
   endfacet
   facet normal 8.660494e-001 0.000000e+000 4.999584e-001
      outer loop
         vertex -5.346039e-001 1.000000e+000 -2.723943e-001
         vertex -5.346039e-001 9.500000e-001 -2.723943e-001
         vertex -4.854102e-001 1.000000e+000 -3.526711e-001
      endloop
   endfacet
   facet normal 8.386444e-001 0.000000e+000 5.446792e-001
      outer loop
         vertex -4.854102e-001 1.000000e+000 -3.526711e-001
         vertex -5.346039e-001 9.500000e-001 -2.723943e-001
         vertex -4.854102e-001 9.500000e-001 -3.526711e-001
      endloop
   endfacet
   facet normal 7.771761e-001 0.000000e+000 6.292831e-001
      outer loop
         vertex -4.854102e-001 1.000000e+000 -3.526711e-001
         vertex -4.854102e-001 9.500000e-001 -3.526711e-001
         vertex -4.242641e-001 1.000000e+000 -4.242641e-001
      endloop
   endfacet
   facet normal 7.431127e-001 0.000000e+000 6.691663e-001
      outer loop
         vertex -4.242641e-001 1.000000e+000 -4.242641e-001
         vertex -4.854102e-001 9.500000e-001 -3.526711e-001
         vertex -4.242641e-001 9.500000e-001 -4.242641e-001
      endloop
   endfacet
   facet normal 6.691663e-001 0.000000e+000 7.431127e-001
      outer loop
         vertex -4.242641e-001 1.000000e+000 -4.242641e-001
         vertex -4.242641e-001 9.500000e-001 -4.242641e-001
         vertex -3.526711e-001 1.000000e+000 -4.854102e-001
      endloop
   endfacet
   facet normal 6.292831e-001 0.000000e+000 7.771761e-001
      outer loop
         vertex -3.526711e-001 1.000000e+000 -4.854102e-001
         vertex -4.242641e-001 9.500000e-001 -4.242641e-001
         vertex -3.526711e-001 9.500000e-001 -4.854102e-001
      endloop
   endfacet
   facet normal 5.446792e-001 0.000000e+000 8.386444e-001
      outer loop
         vertex -3.526711e-001 1.000000e+000 -4.854102e-001
         vertex -3.526711e-001 9.500000e-001 -4.854102e-001
         vertex -2.723943e-001 1.000000e+000 -5.346039e-001
      endloop
   endfacet
   facet normal 4.999584e-001 0.000000e+000 8.660494e-001
      outer loop
         vertex -2.723943e-001 1.000000e+000 -5.346039e-001
         vertex -3.526711e-001 9.500000e-001 -4.854102e-001
         vertex -2.723943e-001 9.500000e-001 -5.346039e-001
      endloop
   endfacet
   facet normal 4.067805e-001 0.000000e+000 9.135259e-001
      outer loop
         vertex -2.723943e-001 1.000000e+000 -5.346039e-001
         vertex -2.723943e-001 9.500000e-001 -5.346039e-001
         vertex -1.854102e-001 1.000000e+000 -5.706339e-001
      endloop
   endfacet
   facet normal 3.583232e-001 0.000000e+000 9.335976e-001
      outer loop
         vertex -1.854102e-001 1.000000e+000 -5.706339e-001
         vertex -2.723943e-001 9.500000e-001 -5.346039e-001
         vertex -1.854102e-001 9.500000e-001 -5.706339e-001
      endloop
   endfacet
   facet normal 2.588653e-001 0.000000e+000 9.659134e-001
      outer loop
         vertex -1.854102e-001 1.000000e+000 -5.706339e-001
         vertex -1.854102e-001 9.500000e-001 -5.706339e-001
         vertex -9.386068e-002 1.000000e+000 -5.926130e-001
      endloop
   endfacet
   facet normal 2.078648e-001 0.000000e+000 9.781575e-001
      outer loop
         vertex -9.386068e-002 1.000000e+000 -5.926130e-001
         vertex -1.854102e-001 9.500000e-001 -5.706339e-001
         vertex -9.386068e-002 9.500000e-001 -5.926130e-001
      endloop
   endfacet
   facet normal 1.045761e-001 0.000000e+000 9.945168e-001
      outer loop
         vertex -9.386068e-002 1.000000e+000 -5.926130e-001
         vertex -9.386068e-002 9.500000e-001 -5.926130e-001
         vertex -1.469576e-016 1.000000e+000 -6.000000e-001
      endloop
   endfacet
   facet normal 5.228807e-002 0.000000e+000 9.986320e-001
      outer loop
         vertex -1.469576e-016 1.000000e+000 -6.000000e-001
         vertex -9.386068e-002 9.500000e-001 -5.926130e-001
         vertex -1.469576e-016 9.500000e-001 -6.000000e-001
      endloop
   endfacet
   facet normal -1.000000e+000 0.000000e+000 0.000000e+000
      outer loop
         vertex 1.200000e+000 -1.200000e+000 -1.200000e+000
         vertex 1.200000e+000 -1.200000e+000 -1.000000e+000
         vertex 1.200000e+000 -1.000000e+000 -1.000000e+000
      endloop
   endfacet
   facet normal -1.000000e+000 0.000000e+000 0.000000e+000
      outer loop
         vertex 1.200000e+000 -1.200000e+000 1.000000e+000
         vertex 1.200000e+000 -1.200000e+000 1.200000e+000
         vertex 1.200000e+000 -1.000000e+000 1.000000e+000
      endloop
   endfacet
   facet normal -1.000000e+000 0.000000e+000 0.000000e+000
      outer loop
         vertex 1.200000e+000 -1.000000e+000 1.000000e+000
         vertex 1.200000e+000 -1.200000e+000 1.200000e+000
         vertex 1.200000e+000 9.500000e-001 1.200000e+000
      endloop
   endfacet
   facet normal -1.000000e+000 0.000000e+000 0.000000e+000
      outer loop
         vertex 1.200000e+000 -1.000000e+000 1.000000e+000
         vertex 1.200000e+000 9.500000e-001 1.200000e+000
         vertex 1.200000e+000 -1.000000e+000 -1.000000e+000
      endloop
   endfacet
   facet normal -1.000000e+000 0.000000e+000 0.000000e+000
      outer loop
         vertex 1.200000e+000 -1.000000e+000 -1.000000e+000
         vertex 1.200000e+000 9.500000e-001 1.200000e+000
         vertex 1.200000e+000 9.500000e-001 -1.200000e+000
      endloop
   endfacet
   facet normal -1.000000e+000 0.000000e+000 0.000000e+000
      outer loop
         vertex 1.200000e+000 -1.000000e+000 -1.000000e+000
         vertex 1.200000e+000 9.500000e-001 -1.200000e+000
         vertex 1.200000e+000 -1.200000e+000 -1.200000e+000
      endloop
   endfacet
   facet normal 0.000000e+000 0.000000e+000 1.000000e+000
      outer loop
         vertex -1.200000e+000 -1.200000e+000 -1.200000e+000
         vertex -1.000000e+000 -1.200000e+000 -1.200000e+000
         vertex -1.000000e+000 -1.000000e+000 -1.200000e+000
      endloop
   endfacet
   facet normal 0.000000e+000 0.000000e+000 1.000000e+000
      outer loop
         vertex 1.000000e+000 -1.200000e+000 -1.200000e+000
         vertex 1.200000e+000 -1.200000e+000 -1.200000e+000
         vertex 1.000000e+000 -1.000000e+000 -1.200000e+000
      endloop
   endfacet
   facet normal 0.000000e+000 0.000000e+000 1.000000e+000
      outer loop
         vertex 1.000000e+000 -1.000000e+000 -1.200000e+000
         vertex 1.200000e+000 -1.200000e+000 -1.200000e+000
         vertex 1.200000e+000 9.500000e-001 -1.200000e+000
      endloop
   endfacet
   facet normal 0.000000e+000 0.000000e+000 1.000000e+000
      outer loop
         vertex 1.000000e+000 -1.000000e+000 -1.200000e+000
         vertex 1.200000e+000 9.500000e-001 -1.200000e+000
         vertex -1.000000e+000 -1.000000e+000 -1.200000e+000
      endloop
   endfacet
   facet normal 0.000000e+000 0.000000e+000 1.000000e+000
      outer loop
         vertex -1.000000e+000 -1.000000e+000 -1.200000e+000
         vertex 1.200000e+000 9.500000e-001 -1.200000e+000
         vertex -1.200000e+000 9.500000e-001 -1.200000e+000
      endloop
   endfacet
   facet normal 0.000000e+000 0.000000e+000 1.000000e+000
      outer loop
         vertex -1.000000e+000 -1.000000e+000 -1.200000e+000
         vertex -1.200000e+000 9.500000e-001 -1.200000e+000
         vertex -1.200000e+000 -1.200000e+000 -1.200000e+000
      endloop
   endfacet
   facet normal 1.000000e+000 0.000000e+000 0.000000e+000
      outer loop
         vertex -1.200000e+000 -1.200000e+000 1.200000e+000
         vertex -1.200000e+000 -1.200000e+000 1.000000e+000
         vertex -1.200000e+000 -1.000000e+000 1.000000e+000
      endloop
   endfacet
   facet normal 1.000000e+000 0.000000e+000 0.000000e+000
      outer loop
         vertex -1.200000e+000 -1.200000e+000 -1.000000e+000
         vertex -1.200000e+000 -1.200000e+000 -1.200000e+000
         vertex -1.200000e+000 -1.000000e+000 -1.000000e+000
      endloop
   endfacet
   facet normal 1.000000e+000 0.000000e+000 0.000000e+000
      outer loop
         vertex -1.200000e+000 -1.000000e+000 -1.000000e+000
         vertex -1.200000e+000 -1.200000e+000 -1.200000e+000
         vertex -1.200000e+000 9.500000e-001 -1.200000e+000
      endloop
   endfacet
   facet normal 1.000000e+000 0.000000e+000 0.000000e+000
      outer loop
         vertex -1.200000e+000 -1.000000e+000 -1.000000e+000
         vertex -1.200000e+000 9.500000e-001 -1.200000e+000
         vertex -1.200000e+000 -1.000000e+000 1.000000e+000
      endloop
   endfacet
   facet normal 1.000000e+000 0.000000e+000 0.000000e+000
      outer loop
         vertex -1.200000e+000 -1.000000e+000 1.000000e+000
         vertex -1.200000e+000 9.500000e-001 -1.200000e+000
         vertex -1.200000e+000 9.500000e-001 1.200000e+000
      endloop
   endfacet
   facet normal 1.000000e+000 0.000000e+000 0.000000e+000
      outer loop
         vertex -1.200000e+000 -1.000000e+000 1.000000e+000
         vertex -1.200000e+000 9.500000e-001 1.200000e+000
         vertex -1.200000e+000 -1.200000e+000 1.200000e+000
      endloop
   endfacet
   facet normal 0.000000e+000 0.000000e+000 -1.000000e+000
      outer loop
         vertex 1.200000e+000 -1.200000e+000 1.200000e+000
         vertex 1.000000e+000 -1.200000e+000 1.200000e+000
         vertex 1.000000e+000 -1.000000e+000 1.200000e+000
      endloop
   endfacet
   facet normal 0.000000e+000 0.000000e+000 -1.000000e+000
      outer loop
         vertex -1.000000e+000 -1.200000e+000 1.200000e+000
         vertex -1.200000e+000 -1.200000e+000 1.200000e+000
         vertex -1.000000e+000 -1.000000e+000 1.200000e+000
      endloop
   endfacet
   facet normal 0.000000e+000 0.000000e+000 -1.000000e+000
      outer loop
         vertex -1.000000e+000 -1.000000e+000 1.200000e+000
         vertex -1.200000e+000 -1.200000e+000 1.200000e+000
         vertex -1.200000e+000 9.500000e-001 1.200000e+000
      endloop
   endfacet
   facet normal 0.000000e+000 0.000000e+000 -1.000000e+000
      outer loop
         vertex -1.000000e+000 -1.000000e+000 1.200000e+000
         vertex -1.200000e+000 9.500000e-001 1.200000e+000
         vertex 1.000000e+000 -1.000000e+000 1.200000e+000
      endloop
   endfacet
   facet normal 0.000000e+000 0.000000e+000 -1.000000e+000
      outer loop
         vertex 1.000000e+000 -1.000000e+000 1.200000e+000
         vertex -1.200000e+000 9.500000e-001 1.200000e+000
         vertex 1.200000e+000 9.500000e-001 1.200000e+000
      endloop
   endfacet
   facet normal 0.000000e+000 0.000000e+000 -1.000000e+000
      outer loop
         vertex 1.000000e+000 -1.000000e+000 1.200000e+000
         vertex 1.200000e+000 9.500000e-001 1.200000e+000
         vertex 1.200000e+000 -1.200000e+000 1.200000e+000
      endloop
   endfacet
   facet normal 0.000000e+000 -1.000000e+000 0.000000e+000
      outer loop
         vertex 1.854102e-001 9.500000e-001 -5.706339e-001
         vertex 9.386068e-002 9.500000e-001 -5.926130e-001
         vertex 1.200000e+000 9.500000e-001 -1.200000e+000
      endloop
   endfacet
   facet normal 0.000000e+000 -1.000000e+000 0.000000e+000
      outer loop
         vertex -9.386068e-002 9.500000e-001 -5.926130e-001
         vertex -1.854102e-001 9.500000e-001 -5.706339e-001
         vertex -1.200000e+000 9.500000e-001 -1.200000e+000
      endloop
   endfacet
   facet normal 0.000000e+000 -1.000000e+000 0.000000e+000
      outer loop
         vertex -1.200000e+000 9.500000e-001 -1.200000e+000
         vertex -1.854102e-001 9.500000e-001 -5.706339e-001
         vertex -2.723943e-001 9.500000e-001 -5.346039e-001
      endloop
   endfacet
   facet normal 0.000000e+000 -1.000000e+000 0.000000e+000
      outer loop
         vertex -1.200000e+000 9.500000e-001 -1.200000e+000
         vertex -2.723943e-001 9.500000e-001 -5.346039e-001
         vertex -3.526711e-001 9.500000e-001 -4.854102e-001
      endloop
   endfacet
   facet normal 0.000000e+000 -1.000000e+000 0.000000e+000
      outer loop
         vertex 1.200000e+000 9.500000e-001 -1.200000e+000
         vertex 9.386068e-002 9.500000e-001 -5.926130e-001
         vertex -1.200000e+000 9.500000e-001 -1.200000e+000
      endloop
   endfacet
   facet normal 0.000000e+000 -1.000000e+000 0.000000e+000
      outer loop
         vertex -1.200000e+000 9.500000e-001 -1.200000e+000
         vertex 9.386068e-002 9.500000e-001 -5.926130e-001
         vertex 0.000000e+000 9.500000e-001 -6.000000e-001
      endloop
   endfacet
   facet normal 0.000000e+000 -1.000000e+000 0.000000e+000
      outer loop
         vertex -1.200000e+000 9.500000e-001 -1.200000e+000
         vertex 0.000000e+000 9.500000e-001 -6.000000e-001
         vertex -9.386068e-002 9.500000e-001 -5.926130e-001
      endloop
   endfacet
   facet normal 0.000000e+000 -1.000000e+000 0.000000e+000
      outer loop
         vertex -5.926130e-001 9.500000e-001 9.386068e-002
         vertex -5.706339e-001 9.500000e-001 1.854102e-001
         vertex -1.200000e+000 9.500000e-001 1.200000e+000
      endloop
   endfacet
   facet normal 0.000000e+000 -1.000000e+000 0.000000e+000
      outer loop
         vertex -1.200000e+000 9.500000e-001 1.200000e+000
         vertex -5.706339e-001 9.500000e-001 1.854102e-001
         vertex -5.346039e-001 9.500000e-001 2.723943e-001
      endloop
   endfacet
   facet normal 0.000000e+000 -1.000000e+000 0.000000e+000
      outer loop
         vertex -1.200000e+000 9.500000e-001 1.200000e+000
         vertex -5.346039e-001 9.500000e-001 2.723943e-001
         vertex -4.854102e-001 9.500000e-001 3.526711e-001
      endloop
   endfacet
   facet normal 0.000000e+000 -1.000000e+000 0.000000e+000
      outer loop
         vertex -3.526711e-001 9.500000e-001 -4.854102e-001
         vertex -4.242641e-001 9.500000e-001 -4.242641e-001
         vertex -1.200000e+000 9.500000e-001 -1.200000e+000
      endloop
   endfacet
   facet normal 0.000000e+000 -1.000000e+000 0.000000e+000
      outer loop
         vertex -1.200000e+000 9.500000e-001 -1.200000e+000
         vertex -4.242641e-001 9.500000e-001 -4.242641e-001
         vertex -4.854102e-001 9.500000e-001 -3.526711e-001
      endloop
   endfacet
   facet normal 0.000000e+000 -1.000000e+000 0.000000e+000
      outer loop
         vertex -1.200000e+000 9.500000e-001 -1.200000e+000
         vertex -4.854102e-001 9.500000e-001 -3.526711e-001
         vertex -5.346039e-001 9.500000e-001 -2.723943e-001
      endloop
   endfacet
   facet normal 0.000000e+000 -1.000000e+000 0.000000e+000
      outer loop
         vertex -5.346039e-001 9.500000e-001 -2.723943e-001
         vertex -5.706339e-001 9.500000e-001 -1.854102e-001
         vertex -1.200000e+000 9.500000e-001 -1.200000e+000
      endloop
   endfacet
   facet normal 0.000000e+000 -1.000000e+000 0.000000e+000
      outer loop
         vertex -1.200000e+000 9.500000e-001 -1.200000e+000
         vertex -5.706339e-001 9.500000e-001 -1.854102e-001
         vertex -5.926130e-001 9.500000e-001 -9.386068e-002
      endloop
   endfacet
   facet normal 0.000000e+000 -1.000000e+000 0.000000e+000
      outer loop
         vertex -1.200000e+000 9.500000e-001 -1.200000e+000
         vertex -5.926130e-001 9.500000e-001 -9.386068e-002
         vertex -1.200000e+000 9.500000e-001 1.200000e+000
      endloop
   endfacet
   facet normal 0.000000e+000 -1.000000e+000 0.000000e+000
      outer loop
         vertex -1.200000e+000 9.500000e-001 1.200000e+000
         vertex -5.926130e-001 9.500000e-001 -9.386068e-002
         vertex -6.000000e-001 9.500000e-001 1.102182e-016
      endloop
   endfacet
   facet normal 0.000000e+000 -1.000000e+000 0.000000e+000
      outer loop
         vertex -1.200000e+000 9.500000e-001 1.200000e+000
         vertex -6.000000e-001 9.500000e-001 1.102182e-016
         vertex -5.926130e-001 9.500000e-001 9.386068e-002
      endloop
   endfacet
   facet normal 0.000000e+000 -1.000000e+000 0.000000e+000
      outer loop
         vertex 3.526711e-001 9.500000e-001 4.854102e-001
         vertex 4.242641e-001 9.500000e-001 4.242641e-001
         vertex 1.200000e+000 9.500000e-001 1.200000e+000
      endloop
   endfacet
   facet normal 0.000000e+000 -1.000000e+000 0.000000e+000
      outer loop
         vertex 5.706339e-001 9.500000e-001 -1.854102e-001
         vertex 5.346039e-001 9.500000e-001 -2.723943e-001
         vertex 1.200000e+000 9.500000e-001 -1.200000e+000
      endloop
   endfacet
   facet normal 0.000000e+000 -1.000000e+000 0.000000e+000
      outer loop
         vertex 1.200000e+000 9.500000e-001 -1.200000e+000
         vertex 5.346039e-001 9.500000e-001 -2.723943e-001
         vertex 4.854102e-001 9.500000e-001 -3.526711e-001
      endloop
   endfacet
   facet normal 0.000000e+000 -1.000000e+000 0.000000e+000
      outer loop
         vertex 1.200000e+000 9.500000e-001 -1.200000e+000
         vertex 4.854102e-001 9.500000e-001 -3.526711e-001
         vertex 4.242641e-001 9.500000e-001 -4.242641e-001
      endloop
   endfacet
   facet normal 0.000000e+000 -1.000000e+000 0.000000e+000
      outer loop
         vertex 4.242641e-001 9.500000e-001 -4.242641e-001
         vertex 3.526711e-001 9.500000e-001 -4.854102e-001
         vertex 1.200000e+000 9.500000e-001 -1.200000e+000
      endloop
   endfacet
   facet normal 0.000000e+000 -1.000000e+000 0.000000e+000
      outer loop
         vertex 1.200000e+000 9.500000e-001 -1.200000e+000
         vertex 3.526711e-001 9.500000e-001 -4.854102e-001
         vertex 2.723943e-001 9.500000e-001 -5.346039e-001
      endloop
   endfacet
   facet normal 0.000000e+000 -1.000000e+000 0.000000e+000
      outer loop
         vertex 1.200000e+000 9.500000e-001 -1.200000e+000
         vertex 2.723943e-001 9.500000e-001 -5.346039e-001
         vertex 1.854102e-001 9.500000e-001 -5.706339e-001
      endloop
   endfacet
   facet normal 0.000000e+000 -1.000000e+000 0.000000e+000
      outer loop
         vertex -4.854102e-001 9.500000e-001 3.526711e-001
         vertex -4.242641e-001 9.500000e-001 4.242641e-001
         vertex -1.200000e+000 9.500000e-001 1.200000e+000
      endloop
   endfacet
   facet normal 0.000000e+000 -1.000000e+000 0.000000e+000
      outer loop
         vertex -1.200000e+000 9.500000e-001 1.200000e+000
         vertex -4.242641e-001 9.500000e-001 4.242641e-001
         vertex -3.526711e-001 9.500000e-001 4.854102e-001
      endloop
   endfacet
   facet normal 0.000000e+000 -1.000000e+000 0.000000e+000
      outer loop
         vertex -1.200000e+000 9.500000e-001 1.200000e+000
         vertex -3.526711e-001 9.500000e-001 4.854102e-001
         vertex -2.723943e-001 9.500000e-001 5.346039e-001
      endloop
   endfacet
   facet normal 0.000000e+000 -1.000000e+000 0.000000e+000
      outer loop
         vertex 9.386068e-002 9.500000e-001 5.926130e-001
         vertex 1.854102e-001 9.500000e-001 5.706339e-001
         vertex 1.200000e+000 9.500000e-001 1.200000e+000
      endloop
   endfacet
   facet normal 0.000000e+000 -1.000000e+000 0.000000e+000
      outer loop
         vertex 1.200000e+000 9.500000e-001 1.200000e+000
         vertex 1.854102e-001 9.500000e-001 5.706339e-001
         vertex 2.723943e-001 9.500000e-001 5.346039e-001
      endloop
   endfacet
   facet normal 0.000000e+000 -1.000000e+000 0.000000e+000
      outer loop
         vertex 1.200000e+000 9.500000e-001 1.200000e+000
         vertex 2.723943e-001 9.500000e-001 5.346039e-001
         vertex 3.526711e-001 9.500000e-001 4.854102e-001
      endloop
   endfacet
   facet normal 0.000000e+000 -1.000000e+000 0.000000e+000
      outer loop
         vertex -2.723943e-001 9.500000e-001 5.346039e-001
         vertex -1.854102e-001 9.500000e-001 5.706339e-001
         vertex -1.200000e+000 9.500000e-001 1.200000e+000
      endloop
   endfacet
   facet normal 0.000000e+000 -1.000000e+000 0.000000e+000
      outer loop
         vertex -1.200000e+000 9.500000e-001 1.200000e+000
         vertex -1.854102e-001 9.500000e-001 5.706339e-001
         vertex -9.386068e-002 9.500000e-001 5.926130e-001
      endloop
   endfacet
   facet normal 0.000000e+000 -1.000000e+000 0.000000e+000
      outer loop
         vertex -1.200000e+000 9.500000e-001 1.200000e+000
         vertex -9.386068e-002 9.500000e-001 5.926130e-001
         vertex 1.200000e+000 9.500000e-001 1.200000e+000
      endloop
   endfacet
   facet normal 0.000000e+000 -1.000000e+000 0.000000e+000
      outer loop
         vertex 1.200000e+000 9.500000e-001 1.200000e+000
         vertex -9.386068e-002 9.500000e-001 5.926130e-001
         vertex 7.347881e-017 9.500000e-001 6.000000e-001
      endloop
   endfacet
   facet normal 0.000000e+000 -1.000000e+000 0.000000e+000
      outer loop
         vertex 1.200000e+000 9.500000e-001 1.200000e+000
         vertex 7.347881e-017 9.500000e-001 6.000000e-001
         vertex 9.386068e-002 9.500000e-001 5.926130e-001
      endloop
   endfacet
   facet normal 0.000000e+000 -1.000000e+000 0.000000e+000
      outer loop
         vertex 4.242641e-001 9.500000e-001 4.242641e-001
         vertex 4.854102e-001 9.500000e-001 3.526711e-001
         vertex 1.200000e+000 9.500000e-001 1.200000e+000
      endloop
   endfacet
   facet normal 0.000000e+000 -1.000000e+000 0.000000e+000
      outer loop
         vertex 1.200000e+000 9.500000e-001 1.200000e+000
         vertex 4.854102e-001 9.500000e-001 3.526711e-001
         vertex 5.346039e-001 9.500000e-001 2.723943e-001
      endloop
   endfacet
   facet normal 0.000000e+000 -1.000000e+000 0.000000e+000
      outer loop
         vertex 1.200000e+000 9.500000e-001 1.200000e+000
         vertex 5.346039e-001 9.500000e-001 2.723943e-001
         vertex 5.706339e-001 9.500000e-001 1.854102e-001
      endloop
   endfacet
   facet normal 0.000000e+000 -1.000000e+000 0.000000e+000
      outer loop
         vertex 5.706339e-001 9.500000e-001 1.854102e-001
         vertex 5.926130e-001 9.500000e-001 9.386068e-002
         vertex 1.200000e+000 9.500000e-001 1.200000e+000
      endloop
   endfacet
   facet normal 0.000000e+000 -1.000000e+000 0.000000e+000
      outer loop
         vertex 1.200000e+000 9.500000e-001 1.200000e+000
         vertex 5.926130e-001 9.500000e-001 9.386068e-002
         vertex 6.000000e-001 9.500000e-001 -3.673941e-017
      endloop
   endfacet
   facet normal 0.000000e+000 -1.000000e+000 0.000000e+000
      outer loop
         vertex 1.200000e+000 9.500000e-001 1.200000e+000
         vertex 6.000000e-001 9.500000e-001 -3.673941e-017
         vertex 1.200000e+000 9.500000e-001 -1.200000e+000
      endloop
   endfacet
   facet normal 0.000000e+000 -1.000000e+000 0.000000e+000
      outer loop
         vertex 1.200000e+000 9.500000e-001 -1.200000e+000
         vertex 6.000000e-001 9.500000e-001 -3.673941e-017
         vertex 5.926130e-001 9.500000e-001 -9.386068e-002
      endloop
   endfacet
   facet normal 0.000000e+000 -1.000000e+000 0.000000e+000
      outer loop
         vertex 1.200000e+000 9.500000e-001 -1.200000e+000
         vertex 5.926130e-001 9.500000e-001 -9.386068e-002
         vertex 5.706339e-001 9.500000e-001 -1.854102e-001
      endloop
   endfacet
   facet normal 4.440892e-015 0.000000e+000 -1.000000e+000
      outer loop
         vertex -1.200000e+000 -1.200000e+000 1.000000e+000
         vertex -1.250000e+000 -1.200000e+000 1.000000e+000
         vertex -1.200000e+000 -1.000000e+000 1.000000e+000
      endloop
   endfacet
   facet normal 4.440892e-015 0.000000e+000 -1.000000e+000
      outer loop
         vertex -1.200000e+000 -1.000000e+000 1.000000e+000
         vertex -1.250000e+000 -1.200000e+000 1.000000e+000
         vertex -1.250000e+000 -1.000000e+000 1.000000e+000
      endloop
   endfacet
   facet normal 1.000000e+000 0.000000e+000 0.000000e+000
      outer loop
         vertex -1.000000e+000 -1.200000e+000 1.250000e+000
         vertex -1.000000e+000 -1.200000e+000 1.200000e+000
         vertex -1.000000e+000 -1.000000e+000 1.250000e+000
      endloop
   endfacet
   facet normal 1.000000e+000 0.000000e+000 0.000000e+000
      outer loop
         vertex -1.000000e+000 -1.000000e+000 1.250000e+000
         vertex -1.000000e+000 -1.200000e+000 1.200000e+000
         vertex -1.000000e+000 -1.000000e+000 1.200000e+000
      endloop
   endfacet
   facet normal 0.000000e+000 -1.000000e+000 0.000000e+000
      outer loop
         vertex -1.000000e+000 -1.200000e+000 1.200000e+000
         vertex -1.000000e+000 -1.200000e+000 1.250000e+000
         vertex -1.200000e+000 -1.200000e+000 1.200000e+000
      endloop
   endfacet
   facet normal 0.000000e+000 -1.000000e+000 0.000000e+000
      outer loop
         vertex -1.200000e+000 -1.200000e+000 1.200000e+000
         vertex -1.000000e+000 -1.200000e+000 1.250000e+000
         vertex -1.250000e+000 -1.200000e+000 1.250000e+000
      endloop
   endfacet
   facet normal 0.000000e+000 -1.000000e+000 0.000000e+000
      outer loop
         vertex -1.200000e+000 -1.200000e+000 1.200000e+000
         vertex -1.250000e+000 -1.200000e+000 1.250000e+000
         vertex -1.200000e+000 -1.200000e+000 1.000000e+000
      endloop
   endfacet
   facet normal 0.000000e+000 -1.000000e+000 0.000000e+000
      outer loop
         vertex -1.200000e+000 -1.200000e+000 1.000000e+000
         vertex -1.250000e+000 -1.200000e+000 1.250000e+000
         vertex -1.250000e+000 -1.200000e+000 1.000000e+000
      endloop
   endfacet
   facet normal -1.000000e+000 0.000000e+000 0.000000e+000
      outer loop
         vertex 1.000000e+000 -1.200000e+000 1.200000e+000
         vertex 1.000000e+000 -1.200000e+000 1.250000e+000
         vertex 1.000000e+000 -1.000000e+000 1.200000e+000
      endloop
   endfacet
   facet normal -1.000000e+000 0.000000e+000 0.000000e+000
      outer loop
         vertex 1.000000e+000 -1.000000e+000 1.200000e+000
         vertex 1.000000e+000 -1.200000e+000 1.250000e+000
         vertex 1.000000e+000 -1.000000e+000 1.250000e+000
      endloop
   endfacet
   facet normal -4.440892e-015 0.000000e+000 -1.000000e+000
      outer loop
         vertex 1.250000e+000 -1.200000e+000 1.000000e+000
         vertex 1.200000e+000 -1.200000e+000 1.000000e+000
         vertex 1.250000e+000 -1.000000e+000 1.000000e+000
      endloop
   endfacet
   facet normal -4.440892e-015 0.000000e+000 -1.000000e+000
      outer loop
         vertex 1.250000e+000 -1.000000e+000 1.000000e+000
         vertex 1.200000e+000 -1.200000e+000 1.000000e+000
         vertex 1.200000e+000 -1.000000e+000 1.000000e+000
      endloop
   endfacet
   facet normal 0.000000e+000 -1.000000e+000 0.000000e+000
      outer loop
         vertex 1.200000e+000 -1.200000e+000 1.000000e+000
         vertex 1.250000e+000 -1.200000e+000 1.000000e+000
         vertex 1.200000e+000 -1.200000e+000 1.200000e+000
      endloop
   endfacet
   facet normal 0.000000e+000 -1.000000e+000 0.000000e+000
      outer loop
         vertex 1.200000e+000 -1.200000e+000 1.200000e+000
         vertex 1.250000e+000 -1.200000e+000 1.000000e+000
         vertex 1.250000e+000 -1.200000e+000 1.250000e+000
      endloop
   endfacet
   facet normal 0.000000e+000 -1.000000e+000 0.000000e+000
      outer loop
         vertex 1.200000e+000 -1.200000e+000 1.200000e+000
         vertex 1.250000e+000 -1.200000e+000 1.250000e+000
         vertex 1.000000e+000 -1.200000e+000 1.200000e+000
      endloop
   endfacet
   facet normal 0.000000e+000 -1.000000e+000 0.000000e+000
      outer loop
         vertex 1.000000e+000 -1.200000e+000 1.200000e+000
         vertex 1.250000e+000 -1.200000e+000 1.250000e+000
         vertex 1.000000e+000 -1.200000e+000 1.250000e+000
      endloop
   endfacet
   facet normal -4.440892e-015 0.000000e+000 1.000000e+000
      outer loop
         vertex 1.200000e+000 -1.200000e+000 -1.000000e+000
         vertex 1.250000e+000 -1.200000e+000 -1.000000e+000
         vertex 1.200000e+000 -1.000000e+000 -1.000000e+000
      endloop
   endfacet
   facet normal -4.440892e-015 0.000000e+000 1.000000e+000
      outer loop
         vertex 1.200000e+000 -1.000000e+000 -1.000000e+000
         vertex 1.250000e+000 -1.200000e+000 -1.000000e+000
         vertex 1.250000e+000 -1.000000e+000 -1.000000e+000
      endloop
   endfacet
   facet normal -1.000000e+000 0.000000e+000 0.000000e+000
      outer loop
         vertex 1.000000e+000 -1.200000e+000 -1.250000e+000
         vertex 1.000000e+000 -1.200000e+000 -1.200000e+000
         vertex 1.000000e+000 -1.000000e+000 -1.250000e+000
      endloop
   endfacet
   facet normal -1.000000e+000 0.000000e+000 0.000000e+000
      outer loop
         vertex 1.000000e+000 -1.000000e+000 -1.250000e+000
         vertex 1.000000e+000 -1.200000e+000 -1.200000e+000
         vertex 1.000000e+000 -1.000000e+000 -1.200000e+000
      endloop
   endfacet
   facet normal 0.000000e+000 -1.000000e+000 0.000000e+000
      outer loop
         vertex 1.000000e+000 -1.200000e+000 -1.200000e+000
         vertex 1.000000e+000 -1.200000e+000 -1.250000e+000
         vertex 1.200000e+000 -1.200000e+000 -1.200000e+000
      endloop
   endfacet
   facet normal 0.000000e+000 -1.000000e+000 0.000000e+000
      outer loop
         vertex 1.200000e+000 -1.200000e+000 -1.200000e+000
         vertex 1.000000e+000 -1.200000e+000 -1.250000e+000
         vertex 1.250000e+000 -1.200000e+000 -1.250000e+000
      endloop
   endfacet
   facet normal 0.000000e+000 -1.000000e+000 0.000000e+000
      outer loop
         vertex 1.200000e+000 -1.200000e+000 -1.200000e+000
         vertex 1.250000e+000 -1.200000e+000 -1.250000e+000
         vertex 1.200000e+000 -1.200000e+000 -1.000000e+000
      endloop
   endfacet
   facet normal 0.000000e+000 -1.000000e+000 0.000000e+000
      outer loop
         vertex 1.200000e+000 -1.200000e+000 -1.000000e+000
         vertex 1.250000e+000 -1.200000e+000 -1.250000e+000
         vertex 1.250000e+000 -1.200000e+000 -1.000000e+000
      endloop
   endfacet
   facet normal 1.000000e+000 0.000000e+000 0.000000e+000
      outer loop
         vertex -1.000000e+000 -1.200000e+000 -1.200000e+000
         vertex -1.000000e+000 -1.200000e+000 -1.250000e+000
         vertex -1.000000e+000 -1.000000e+000 -1.200000e+000
      endloop
   endfacet
   facet normal 1.000000e+000 0.000000e+000 0.000000e+000
      outer loop
         vertex -1.000000e+000 -1.000000e+000 -1.200000e+000
         vertex -1.000000e+000 -1.200000e+000 -1.250000e+000
         vertex -1.000000e+000 -1.000000e+000 -1.250000e+000
      endloop
   endfacet
   facet normal 4.440892e-015 0.000000e+000 1.000000e+000
      outer loop
         vertex -1.250000e+000 -1.200000e+000 -1.000000e+000
         vertex -1.200000e+000 -1.200000e+000 -1.000000e+000
         vertex -1.250000e+000 -1.000000e+000 -1.000000e+000
      endloop
   endfacet
   facet normal 4.440892e-015 0.000000e+000 1.000000e+000
      outer loop
         vertex -1.250000e+000 -1.000000e+000 -1.000000e+000
         vertex -1.200000e+000 -1.200000e+000 -1.000000e+000
         vertex -1.200000e+000 -1.000000e+000 -1.000000e+000
      endloop
   endfacet
   facet normal 0.000000e+000 -1.000000e+000 0.000000e+000
      outer loop
         vertex -1.200000e+000 -1.200000e+000 -1.000000e+000
         vertex -1.250000e+000 -1.200000e+000 -1.000000e+000
         vertex -1.200000e+000 -1.200000e+000 -1.200000e+000
      endloop
   endfacet
   facet normal 0.000000e+000 -1.000000e+000 0.000000e+000
      outer loop
         vertex -1.200000e+000 -1.200000e+000 -1.200000e+000
         vertex -1.250000e+000 -1.200000e+000 -1.000000e+000
         vertex -1.250000e+000 -1.200000e+000 -1.250000e+000
      endloop
   endfacet
   facet normal 0.000000e+000 -1.000000e+000 0.000000e+000
      outer loop
         vertex -1.200000e+000 -1.200000e+000 -1.200000e+000
         vertex -1.250000e+000 -1.200000e+000 -1.250000e+000
         vertex -1.000000e+000 -1.200000e+000 -1.200000e+000
      endloop
   endfacet
   facet normal 0.000000e+000 -1.000000e+000 0.000000e+000
      outer loop
         vertex -1.000000e+000 -1.200000e+000 -1.200000e+000
         vertex -1.250000e+000 -1.200000e+000 -1.250000e+000
         vertex -1.000000e+000 -1.200000e+000 -1.250000e+000
      endloop
   endfacet
endsolid