solid rotating_region
   facet normal 6.752258e-002 0.000000e+000 9.977177e-001
      outer loop
         vertex 0.000000e+000 1.125000e+000 6.250000e-001
         vertex 6.323020e-002 1.025000e+000 6.217933e-001
         vertex 6.323020e-002 1.125000e+000 6.217933e-001
      endloop
   endfacet
   facet normal 1.346987e-001 0.000000e+000 9.908866e-001
      outer loop
         vertex 6.323020e-002 1.125000e+000 6.217933e-001
         vertex 6.323020e-002 1.025000e+000 6.217933e-001
         vertex 1.258116e-001 1.025000e+000 6.122062e-001
      endloop
   endfacet
   facet normal 1.681136e-001 0.000000e+000 9.857677e-001
      outer loop
         vertex 6.323020e-002 1.125000e+000 6.217933e-001
         vertex 1.258116e-001 1.025000e+000 6.122062e-001
         vertex 1.258116e-001 1.125000e+000 6.122062e-001
      endloop
   endfacet
   facet normal 2.342540e-001 0.000000e+000 9.721754e-001
      outer loop
         vertex 1.258116e-001 1.125000e+000 6.122062e-001
         vertex 1.258116e-001 1.025000e+000 6.122062e-001
         vertex 1.871019e-001 1.025000e+000 5.963370e-001
      endloop
   endfacet
   facet normal 2.669795e-001 0.000000e+000 9.637022e-001
      outer loop
         vertex 1.258116e-001 1.125000e+000 6.122062e-001
         vertex 1.871019e-001 1.025000e+000 5.963370e-001
         vertex 1.871019e-001 1.125000e+000 5.963370e-001
      endloop
   endfacet
   facet normal 3.314055e-001 0.000000e+000 9.434884e-001
      outer loop
         vertex 1.871019e-001 1.125000e+000 5.963370e-001
         vertex 1.871019e-001 1.025000e+000 5.963370e-001
         vertex 2.464724e-001 1.025000e+000 5.743486e-001
      endloop
   endfacet
   facet normal 3.631059e-001 0.000000e+000 9.317479e-001
      outer loop
         vertex 1.871019e-001 1.125000e+000 5.963370e-001
         vertex 2.464724e-001 1.025000e+000 5.743486e-001
         vertex 2.464724e-001 1.125000e+000 5.743486e-001
      endloop
   endfacet
   facet normal 4.251563e-001 0.000000e+000 9.051200e-001
      outer loop
         vertex 2.464724e-001 1.125000e+000 5.743486e-001
         vertex 2.464724e-001 1.025000e+000 5.743486e-001
         vertex 3.033137e-001 1.025000e+000 5.464666e-001
      endloop
   endfacet
   facet normal 4.555062e-001 0.000000e+000 8.902326e-001
      outer loop
         vertex 2.464724e-001 1.125000e+000 5.743486e-001
         vertex 3.033137e-001 1.025000e+000 5.464666e-001
         vertex 3.033137e-001 1.125000e+000 5.464666e-001
      endloop
   endfacet
   facet normal 5.145444e-001 0.000000e+000 8.574638e-001
      outer loop
         vertex 3.033137e-001 1.125000e+000 5.464666e-001
         vertex 3.033137e-001 1.025000e+000 5.464666e-001
         vertex 3.570426e-001 1.025000e+000 5.129771e-001
      endloop
   endfacet
   facet normal 5.432325e-001 0.000000e+000 8.395823e-001
      outer loop
         vertex 3.033137e-001 1.125000e+000 5.464666e-001
         vertex 3.570426e-001 1.025000e+000 5.129771e-001
         vertex 3.570426e-001 1.125000e+000 5.129771e-001
      endloop
   endfacet
   facet normal 5.986525e-001 0.000000e+000 8.010088e-001
      outer loop
         vertex 3.570426e-001 1.125000e+000 5.129771e-001
         vertex 3.570426e-001 1.025000e+000 5.129771e-001
         vertex 4.071078e-001 1.025000e+000 4.742238e-001
      endloop
   endfacet
   facet normal 6.253844e-001 0.000000e+000 7.803167e-001
      outer loop
         vertex 3.570426e-001 1.125000e+000 5.129771e-001
         vertex 4.071078e-001 1.025000e+000 4.742238e-001
         vertex 4.071078e-001 1.125000e+000 4.742238e-001
      endloop
   endfacet
   facet normal 6.766178e-001 0.000000e+000 7.363344e-001
      outer loop
         vertex 4.071078e-001 1.125000e+000 4.742238e-001
         vertex 4.071078e-001 1.025000e+000 4.742238e-001
         vertex 4.529955e-001 1.025000e+000 4.306043e-001
      endloop
   endfacet
   facet normal 7.011192e-001 0.000000e+000 7.130441e-001
      outer loop
         vertex 4.071078e-001 1.125000e+000 4.742238e-001
         vertex 4.529955e-001 1.025000e+000 4.306043e-001
         vertex 4.529955e-001 1.125000e+000 4.306043e-001
      endloop
   endfacet
   facet normal 7.476400e-001 0.000000e+000 6.641042e-001
      outer loop
         vertex 4.529955e-001 1.125000e+000 4.306043e-001
         vertex 4.529955e-001 1.025000e+000 4.306043e-001
         vertex 4.942348e-001 1.025000e+000 3.825662e-001
      endloop
   endfacet
   facet normal 7.696595e-001 0.000000e+000 6.384546e-001
      outer loop
         vertex 4.529955e-001 1.125000e+000 4.306043e-001
         vertex 4.942348e-001 1.025000e+000 3.825662e-001
         vertex 4.942348e-001 1.125000e+000 3.825662e-001
      endloop
   endfacet
   facet normal 8.109905e-001 0.000000e+000 5.850594e-001
      outer loop
         vertex 4.942348e-001 1.125000e+000 3.825662e-001
         vertex 4.942348e-001 1.025000e+000 3.825662e-001
         vertex 5.304027e-001 1.025000e+000 3.306025e-001
      endloop
   endfacet
   facet normal 8.303019e-001 0.000000e+000 5.573137e-001
      outer loop
         vertex 4.942348e-001 1.125000e+000 3.825662e-001
         vertex 5.304027e-001 1.025000e+000 3.306025e-001
         vertex 5.304027e-001 1.125000e+000 3.306025e-001
      endloop
   endfacet
   facet normal 8.660190e-001 0.000000e+000 5.000111e-001
      outer loop
         vertex 5.304027e-001 1.125000e+000 3.306025e-001
         vertex 5.304027e-001 1.025000e+000 3.306025e-001
         vertex 5.611278e-001 1.025000e+000 2.752464e-001
      endloop
   endfacet
   facet normal 8.824245e-001 0.000000e+000 4.704542e-001
      outer loop
         vertex 5.304027e-001 1.125000e+000 3.306025e-001
         vertex 5.611278e-001 1.025000e+000 2.752464e-001
         vertex 5.611278e-001 1.125000e+000 2.752464e-001
      endloop
   endfacet
   facet normal 9.121610e-001 0.000000e+000 4.098321e-001
      outer loop
         vertex 5.611278e-001 1.125000e+000 2.752464e-001
         vertex 5.611278e-001 1.025000e+000 2.752464e-001
         vertex 5.860951e-001 1.025000e+000 2.170658e-001
      endloop
   endfacet
   facet normal 9.254920e-001 0.000000e+000 3.787670e-001
      outer loop
         vertex 5.611278e-001 1.125000e+000 2.752464e-001
         vertex 5.860951e-001 1.025000e+000 2.170658e-001
         vertex 5.860951e-001 1.125000e+000 2.170658e-001
      endloop
   endfacet
   facet normal 9.489430e-001 0.000000e+000 3.154475e-001
      outer loop
         vertex 5.860951e-001 1.125000e+000 2.170658e-001
         vertex 5.860951e-001 1.025000e+000 2.170658e-001
         vertex 6.050482e-001 1.025000e+000 1.566578e-001
      endloop
   endfacet
   facet normal 9.590629e-001 0.000000e+000 2.831932e-001
      outer loop
         vertex 5.860951e-001 1.125000e+000 2.170658e-001
         vertex 6.050482e-001 1.025000e+000 1.566578e-001
         vertex 6.050482e-001 1.125000e+000 1.566578e-001
      endloop
   endfacet
   facet normal 9.759876e-001 0.000000e+000 2.178261e-001
      outer loop
         vertex 6.050482e-001 1.125000e+000 1.566578e-001
         vertex 6.050482e-001 1.025000e+000 1.566578e-001
         vertex 6.177927e-001 1.025000e+000 9.464236e-002
      endloop
   endfacet
   facet normal 9.827924e-001 0.000000e+000 1.847134e-001
      outer loop
         vertex 6.050482e-001 1.125000e+000 1.566578e-001
         vertex 6.177927e-001 1.025000e+000 9.464236e-002
         vertex 6.177927e-001 1.125000e+000 9.464236e-002
      endloop
   endfacet
   facet normal 9.930172e-001 0.000000e+000 1.179695e-001
      outer loop
         vertex 6.177927e-001 1.125000e+000 9.464236e-002
         vertex 6.177927e-001 1.025000e+000 9.464236e-002
         vertex 6.241978e-001 1.025000e+000 3.165573e-002
      endloop
   endfacet
   facet normal 9.964372e-001 0.000000e+000 8.433825e-002
      outer loop
         vertex 6.177927e-001 1.125000e+000 9.464236e-002
         vertex 6.241978e-001 1.025000e+000 3.165573e-002
         vertex 6.241978e-001 1.125000e+000 3.165573e-002
      endloop
   endfacet
   facet normal 9.998571e-001 0.000000e+000 1.690234e-002
      outer loop
         vertex 6.241978e-001 1.125000e+000 3.165573e-002
         vertex 6.241978e-001 1.025000e+000 3.165573e-002
         vertex 6.241978e-001 1.025000e+000 -3.165573e-002
      endloop
   endfacet
   facet normal 9.998571e-001 0.000000e+000 -1.690234e-002
      outer loop
         vertex 6.241978e-001 1.125000e+000 3.165573e-002
         vertex 6.241978e-001 1.025000e+000 -3.165573e-002
         vertex 6.241978e-001 1.125000e+000 -3.165573e-002
      endloop
   endfacet
   facet normal 9.964372e-001 0.000000e+000 -8.433825e-002
      outer loop
         vertex 6.241978e-001 1.125000e+000 -3.165573e-002
         vertex 6.241978e-001 1.025000e+000 -3.165573e-002
         vertex 6.177927e-001 1.025000e+000 -9.464236e-002
      endloop
   endfacet
   facet normal 9.930172e-001 0.000000e+000 -1.179695e-001
      outer loop
         vertex 6.241978e-001 1.125000e+000 -3.165573e-002
         vertex 6.177927e-001 1.025000e+000 -9.464236e-002
         vertex 6.177927e-001 1.125000e+000 -9.464236e-002
      endloop
   endfacet
   facet normal 9.827924e-001 0.000000e+000 -1.847134e-001
      outer loop
         vertex 6.177927e-001 1.125000e+000 -9.464236e-002
         vertex 6.177927e-001 1.025000e+000 -9.464236e-002
         vertex 6.050482e-001 1.025000e+000 -1.566578e-001
      endloop
   endfacet
   facet normal 9.759876e-001 0.000000e+000 -2.178261e-001
      outer loop
         vertex 6.177927e-001 1.125000e+000 -9.464236e-002
         vertex 6.050482e-001 1.025000e+000 -1.566578e-001
         vertex 6.050482e-001 1.125000e+000 -1.566578e-001
      endloop
   endfacet
   facet normal 9.590629e-001 0.000000e+000 -2.831932e-001
      outer loop
         vertex 6.050482e-001 1.125000e+000 -1.566578e-001
         vertex 6.050482e-001 1.025000e+000 -1.566578e-001
         vertex 5.860951e-001 1.025000e+000 -2.170658e-001
      endloop
   endfacet
   facet normal 9.489430e-001 0.000000e+000 -3.154475e-001
      outer loop
         vertex 6.050482e-001 1.125000e+000 -1.566578e-001
         vertex 5.860951e-001 1.025000e+000 -2.170658e-001
         vertex 5.860951e-001 1.125000e+000 -2.170658e-001
      endloop
   endfacet
   facet normal 9.254920e-001 0.000000e+000 -3.787670e-001
      outer loop
         vertex 5.860951e-001 1.125000e+000 -2.170658e-001
         vertex 5.860951e-001 1.025000e+000 -2.170658e-001
         vertex 5.611278e-001 1.025000e+000 -2.752464e-001
      endloop
   endfacet
   facet normal 9.121610e-001 0.000000e+000 -4.098321e-001
      outer loop
         vertex 5.860951e-001 1.125000e+000 -2.170658e-001
         vertex 5.611278e-001 1.025000e+000 -2.752464e-001
         vertex 5.611278e-001 1.125000e+000 -2.752464e-001
      endloop
   endfacet
   facet normal 8.824245e-001 0.000000e+000 -4.704542e-001
      outer loop
         vertex 5.611278e-001 1.125000e+000 -2.752464e-001
         vertex 5.611278e-001 1.025000e+000 -2.752464e-001
         vertex 5.304027e-001 1.025000e+000 -3.306025e-001
      endloop
   endfacet
   facet normal 8.660190e-001 0.000000e+000 -5.000111e-001
      outer loop
         vertex 5.611278e-001 1.125000e+000 -2.752464e-001
         vertex 5.304027e-001 1.025000e+000 -3.306025e-001
         vertex 5.304027e-001 1.125000e+000 -3.306025e-001
      endloop
   endfacet
   facet normal 8.303019e-001 0.000000e+000 -5.573137e-001
      outer loop
         vertex 5.304027e-001 1.125000e+000 -3.306025e-001
         vertex 5.304027e-001 1.025000e+000 -3.306025e-001
         vertex 4.942348e-001 1.025000e+000 -3.825662e-001
      endloop
   endfacet
   facet normal 8.109905e-001 0.000000e+000 -5.850594e-001
      outer loop
         vertex 5.304027e-001 1.125000e+000 -3.306025e-001
         vertex 4.942348e-001 1.025000e+000 -3.825662e-001
         vertex 4.942348e-001 1.125000e+000 -3.825662e-001
      endloop
   endfacet
   facet normal 7.696595e-001 0.000000e+000 -6.384546e-001
      outer loop
         vertex 4.942348e-001 1.125000e+000 -3.825662e-001
         vertex 4.942348e-001 1.025000e+000 -3.825662e-001
         vertex 4.529955e-001 1.025000e+000 -4.306043e-001
      endloop
   endfacet
   facet normal 7.476400e-001 0.000000e+000 -6.641042e-001
      outer loop
         vertex 4.942348e-001 1.125000e+000 -3.825662e-001
         vertex 4.529955e-001 1.025000e+000 -4.306043e-001
         vertex 4.529955e-001 1.125000e+000 -4.306043e-001
      endloop
   endfacet
   facet normal 7.011192e-001 0.000000e+000 -7.130441e-001
      outer loop
         vertex 4.529955e-001 1.125000e+000 -4.306043e-001
         vertex 4.529955e-001 1.025000e+000 -4.306043e-001
         vertex 4.071078e-001 1.025000e+000 -4.742238e-001
      endloop
   endfacet
   facet normal 6.766178e-001 0.000000e+000 -7.363344e-001
      outer loop
         vertex 4.529955e-001 1.125000e+000 -4.306043e-001
         vertex 4.071078e-001 1.025000e+000 -4.742238e-001
         vertex 4.071078e-001 1.125000e+000 -4.742238e-001
      endloop
   endfacet
   facet normal 6.253844e-001 0.000000e+000 -7.803167e-001
      outer loop
         vertex 4.071078e-001 1.125000e+000 -4.742238e-001
         vertex 4.071078e-001 1.025000e+000 -4.742238e-001
         vertex 3.570426e-001 1.025000e+000 -5.129771e-001
      endloop
   endfacet
   facet normal 5.986525e-001 0.000000e+000 -8.010088e-001
      outer loop
         vertex 4.071078e-001 1.125000e+000 -4.742238e-001
         vertex 3.570426e-001 1.025000e+000 -5.129771e-001
         vertex 3.570426e-001 1.125000e+000 -5.129771e-001
      endloop
   endfacet
   facet normal 5.432325e-001 0.000000e+000 -8.395823e-001
      outer loop
         vertex 3.570426e-001 1.125000e+000 -5.129771e-001
         vertex 3.570426e-001 1.025000e+000 -5.129771e-001
         vertex 3.033137e-001 1.025000e+000 -5.464666e-001
      endloop
   endfacet
   facet normal 5.145444e-001 0.000000e+000 -8.574638e-001
      outer loop
         vertex 3.570426e-001 1.125000e+000 -5.129771e-001
         vertex 3.033137e-001 1.025000e+000 -5.464666e-001
         vertex 3.033137e-001 1.125000e+000 -5.464666e-001
      endloop
   endfacet
   facet normal 4.555062e-001 0.000000e+000 -8.902326e-001
      outer loop
         vertex 3.033137e-001 1.125000e+000 -5.464666e-001
         vertex 3.033137e-001 1.025000e+000 -5.464666e-001
         vertex 2.464724e-001 1.025000e+000 -5.743486e-001
      endloop
   endfacet
   facet normal 4.251563e-001 0.000000e+000 -9.051200e-001
      outer loop
         vertex 3.033137e-001 1.125000e+000 -5.464666e-001
         vertex 2.464724e-001 1.025000e+000 -5.743486e-001
         vertex 2.464724e-001 1.125000e+000 -5.743486e-001
      endloop
   endfacet
   facet normal 3.631059e-001 0.000000e+000 -9.317479e-001
      outer loop
         vertex 2.464724e-001 1.125000e+000 -5.743486e-001
         vertex 2.464724e-001 1.025000e+000 -5.743486e-001
         vertex 1.871019e-001 1.025000e+000 -5.963370e-001
      endloop
   endfacet
   facet normal 3.314055e-001 0.000000e+000 -9.434884e-001
      outer loop
         vertex 2.464724e-001 1.125000e+000 -5.743486e-001
         vertex 1.871019e-001 1.025000e+000 -5.963370e-001
         vertex 1.871019e-001 1.125000e+000 -5.963370e-001
      endloop
   endfacet
   facet normal 2.669795e-001 0.000000e+000 -9.637022e-001
      outer loop
         vertex 1.871019e-001 1.125000e+000 -5.963370e-001
         vertex 1.871019e-001 1.025000e+000 -5.963370e-001
         vertex 1.258116e-001 1.025000e+000 -6.122062e-001
      endloop
   endfacet
   facet normal 2.342540e-001 0.000000e+000 -9.721754e-001
      outer loop
         vertex 1.871019e-001 1.125000e+000 -5.963370e-001
         vertex 1.258116e-001 1.025000e+000 -6.122062e-001
         vertex 1.258116e-001 1.125000e+000 -6.122062e-001
      endloop
   endfacet
   facet normal 1.681136e-001 0.000000e+000 -9.857677e-001
      outer loop
         vertex 1.258116e-001 1.125000e+000 -6.122062e-001
         vertex 1.258116e-001 1.025000e+000 -6.122062e-001
         vertex 6.323020e-002 1.025000e+000 -6.217933e-001
      endloop
   endfacet
   facet normal 1.346987e-001 0.000000e+000 -9.908866e-001
      outer loop
         vertex 1.258116e-001 1.125000e+000 -6.122062e-001
         vertex 6.323020e-002 1.025000e+000 -6.217933e-001
         vertex 6.323020e-002 1.125000e+000 -6.217933e-001
      endloop
   endfacet
   facet normal 6.752258e-002 0.000000e+000 -9.977177e-001
      outer loop
         vertex 6.323020e-002 1.125000e+000 -6.217933e-001
         vertex 6.323020e-002 1.025000e+000 -6.217933e-001
         vertex 3.540962e-016 1.025000e+000 -6.250000e-001
      endloop
   endfacet
   facet normal 3.376129e-002 0.000000e+000 -9.994299e-001
      outer loop
         vertex 6.323020e-002 1.125000e+000 -6.217933e-001
         vertex 3.540962e-016 1.025000e+000 -6.250000e-001
         vertex 3.540962e-016 1.125000e+000 -6.250000e-001
      endloop
   endfacet
   facet normal -3.376129e-002 0.000000e+000 -9.994299e-001
      outer loop
         vertex 3.540962e-016 1.125000e+000 -6.250000e-001
         vertex 3.540962e-016 1.025000e+000 -6.250000e-001
         vertex -6.323020e-002 1.025000e+000 -6.217933e-001
      endloop
   endfacet
   facet normal -6.752258e-002 0.000000e+000 -9.977177e-001
      outer loop
         vertex 3.540962e-016 1.125000e+000 -6.250000e-001
         vertex -6.323020e-002 1.025000e+000 -6.217933e-001
         vertex -6.323020e-002 1.125000e+000 -6.217933e-001
      endloop
   endfacet
   facet normal -1.346987e-001 0.000000e+000 -9.908866e-001
      outer loop
         vertex -6.323020e-002 1.125000e+000 -6.217933e-001
         vertex -6.323020e-002 1.025000e+000 -6.217933e-001
         vertex -1.258116e-001 1.025000e+000 -6.122062e-001
      endloop
   endfacet
   facet normal -1.681136e-001 0.000000e+000 -9.857677e-001
      outer loop
         vertex -6.323020e-002 1.125000e+000 -6.217933e-001
         vertex -1.258116e-001 1.025000e+000 -6.122062e-001
         vertex -1.258116e-001 1.125000e+000 -6.122062e-001
      endloop
   endfacet
   facet normal -2.342540e-001 0.000000e+000 -9.721754e-001
      outer loop
         vertex -1.258116e-001 1.125000e+000 -6.122062e-001
         vertex -1.258116e-001 1.025000e+000 -6.122062e-001
         vertex -1.871019e-001 1.025000e+000 -5.963370e-001
      endloop
   endfacet
   facet normal -2.669795e-001 0.000000e+000 -9.637022e-001
      outer loop
         vertex -1.258116e-001 1.125000e+000 -6.122062e-001
         vertex -1.871019e-001 1.025000e+000 -5.963370e-001
         vertex -1.871019e-001 1.125000e+000 -5.963370e-001
      endloop
   endfacet
   facet normal -3.314055e-001 0.000000e+000 -9.434884e-001
      outer loop
         vertex -1.871019e-001 1.125000e+000 -5.963370e-001
         vertex -1.871019e-001 1.025000e+000 -5.963370e-001
         vertex -2.464724e-001 1.025000e+000 -5.743486e-001
      endloop
   endfacet
   facet normal -3.631059e-001 0.000000e+000 -9.317479e-001
      outer loop
         vertex -1.871019e-001 1.125000e+000 -5.963370e-001
         vertex -2.464724e-001 1.025000e+000 -5.743486e-001
         vertex -2.464724e-001 1.125000e+000 -5.743486e-001
      endloop
   endfacet
   facet normal -4.251563e-001 0.000000e+000 -9.051200e-001
      outer loop
         vertex -2.464724e-001 1.125000e+000 -5.743486e-001
         vertex -2.464724e-001 1.025000e+000 -5.743486e-001
         vertex -3.033137e-001 1.025000e+000 -5.464666e-001
      endloop
   endfacet
   facet normal -4.555062e-001 0.000000e+000 -8.902326e-001
      outer loop
         vertex -2.464724e-001 1.125000e+000 -5.743486e-001
         vertex -3.033137e-001 1.025000e+000 -5.464666e-001
         vertex -3.033137e-001 1.125000e+000 -5.464666e-001
      endloop
   endfacet
   facet normal -5.145444e-001 0.000000e+000 -8.574638e-001
      outer loop
         vertex -3.033137e-001 1.125000e+000 -5.464666e-001
         vertex -3.033137e-001 1.025000e+000 -5.464666e-001
         vertex -3.570426e-001 1.025000e+000 -5.129771e-001
      endloop
   endfacet
   facet normal -5.432325e-001 0.000000e+000 -8.395823e-001
      outer loop
         vertex -3.033137e-001 1.125000e+000 -5.464666e-001
         vertex -3.570426e-001 1.025000e+000 -5.129771e-001
         vertex -3.570426e-001 1.125000e+000 -5.129771e-001
      endloop
   endfacet
   facet normal -5.986525e-001 0.000000e+000 -8.010088e-001
      outer loop
         vertex -3.570426e-001 1.125000e+000 -5.129771e-001
         vertex -3.570426e-001 1.025000e+000 -5.129771e-001
         vertex -4.071078e-001 1.025000e+000 -4.742238e-001
      endloop
   endfacet
   facet normal -6.253844e-001 0.000000e+000 -7.803167e-001
      outer loop
         vertex -3.570426e-001 1.125000e+000 -5.129771e-001
         vertex -4.071078e-001 1.025000e+000 -4.742238e-001
         vertex -4.071078e-001 1.125000e+000 -4.742238e-001
      endloop
   endfacet
   facet normal -6.766178e-001 0.000000e+000 -7.363344e-001
      outer loop
         vertex -4.071078e-001 1.125000e+000 -4.742238e-001
         vertex -4.071078e-001 1.025000e+000 -4.742238e-001
         vertex -4.529955e-001 1.025000e+000 -4.306043e-001
      endloop
   endfacet
   facet normal -7.011192e-001 0.000000e+000 -7.130441e-001
      outer loop
         vertex -4.071078e-001 1.125000e+000 -4.742238e-001
         vertex -4.529955e-001 1.025000e+000 -4.306043e-001
         vertex -4.529955e-001 1.125000e+000 -4.306043e-001
      endloop
   endfacet
   facet normal -7.476400e-001 0.000000e+000 -6.641042e-001
      outer loop
         vertex -4.529955e-001 1.125000e+000 -4.306043e-001
         vertex -4.529955e-001 1.025000e+000 -4.306043e-001
         vertex -4.942348e-001 1.025000e+000 -3.825662e-001
      endloop
   endfacet
   facet normal -7.696595e-001 0.000000e+000 -6.384546e-001
      outer loop
         vertex -4.529955e-001 1.125000e+000 -4.306043e-001
         vertex -4.942348e-001 1.025000e+000 -3.825662e-001
         vertex -4.942348e-001 1.125000e+000 -3.825662e-001
      endloop
   endfacet
   facet normal -8.109905e-001 0.000000e+000 -5.850594e-001
      outer loop
         vertex -4.942348e-001 1.125000e+000 -3.825662e-001
         vertex -4.942348e-001 1.025000e+000 -3.825662e-001
         vertex -5.304027e-001 1.025000e+000 -3.306025e-001
      endloop
   endfacet
   facet normal -8.303019e-001 0.000000e+000 -5.573137e-001
      outer loop
         vertex -4.942348e-001 1.125000e+000 -3.825662e-001
         vertex -5.304027e-001 1.025000e+000 -3.306025e-001
         vertex -5.304027e-001 1.125000e+000 -3.306025e-001
      endloop
   endfacet
   facet normal -8.660190e-001 0.000000e+000 -5.000111e-001
      outer loop
         vertex -5.304027e-001 1.125000e+000 -3.306025e-001
         vertex -5.304027e-001 1.025000e+000 -3.306025e-001
         vertex -5.611278e-001 1.025000e+000 -2.752464e-001
      endloop
   endfacet
   facet normal -8.824245e-001 0.000000e+000 -4.704542e-001
      outer loop
         vertex -5.304027e-001 1.125000e+000 -3.306025e-001
         vertex -5.611278e-001 1.025000e+000 -2.752464e-001
         vertex -5.611278e-001 1.125000e+000 -2.752464e-001
      endloop
   endfacet
   facet normal -9.121610e-001 0.000000e+000 -4.098321e-001
      outer loop
         vertex -5.611278e-001 1.125000e+000 -2.752464e-001
         vertex -5.611278e-001 1.025000e+000 -2.752464e-001
         vertex -5.860951e-001 1.025000e+000 -2.170658e-001
      endloop
   endfacet
   facet normal -9.254920e-001 0.000000e+000 -3.787670e-001
      outer loop
         vertex -5.611278e-001 1.125000e+000 -2.752464e-001
         vertex -5.860951e-001 1.025000e+000 -2.170658e-001
         vertex -5.860951e-001 1.125000e+000 -2.170658e-001
      endloop
   endfacet
   facet normal -9.489430e-001 0.000000e+000 -3.154475e-001
      outer loop
         vertex -5.860951e-001 1.125000e+000 -2.170658e-001
         vertex -5.860951e-001 1.025000e+000 -2.170658e-001
         vertex -6.050482e-001 1.025000e+000 -1.566578e-001
      endloop
   endfacet
   facet normal -9.590629e-001 0.000000e+000 -2.831932e-001
      outer loop
         vertex -5.860951e-001 1.125000e+000 -2.170658e-001
         vertex -6.050482e-001 1.025000e+000 -1.566578e-001
         vertex -6.050482e-001 1.125000e+000 -1.566578e-001
      endloop
   endfacet
   facet normal -9.759876e-001 0.000000e+000 -2.178261e-001
      outer loop
         vertex -6.050482e-001 1.125000e+000 -1.566578e-001
         vertex -6.050482e-001 1.025000e+000 -1.566578e-001
         vertex -6.177927e-001 1.025000e+000 -9.464236e-002
      endloop
   endfacet
   facet normal -9.827924e-001 0.000000e+000 -1.847134e-001
      outer loop
         vertex -6.050482e-001 1.125000e+000 -1.566578e-001
         vertex -6.177927e-001 1.025000e+000 -9.464236e-002
         vertex -6.177927e-001 1.125000e+000 -9.464236e-002
      endloop
   endfacet
   facet normal -9.930172e-001 0.000000e+000 -1.179695e-001
      outer loop
         vertex -6.177927e-001 1.125000e+000 -9.464236e-002
         vertex -6.177927e-001 1.025000e+000 -9.464236e-002
         vertex -6.241978e-001 1.025000e+000 -3.165573e-002
      endloop
   endfacet
   facet normal -9.964372e-001 0.000000e+000 -8.433825e-002
      outer loop
         vertex -6.177927e-001 1.125000e+000 -9.464236e-002
         vertex -6.241978e-001 1.025000e+000 -3.165573e-002
         vertex -6.241978e-001 1.125000e+000 -3.165573e-002
      endloop
   endfacet
   facet normal -9.998571e-001 0.000000e+000 -1.690234e-002
      outer loop
         vertex -6.241978e-001 1.125000e+000 -3.165573e-002
         vertex -6.241978e-001 1.025000e+000 -3.165573e-002
         vertex -6.241978e-001 1.025000e+000 3.165573e-002
      endloop
   endfacet
   facet normal -9.998571e-001 0.000000e+000 1.690234e-002
      outer loop
         vertex -6.241978e-001 1.125000e+000 -3.165573e-002
         vertex -6.241978e-001 1.025000e+000 3.165573e-002
         vertex -6.241978e-001 1.125000e+000 3.165573e-002
      endloop
   endfacet
   facet normal -9.964372e-001 0.000000e+000 8.433825e-002
      outer loop
         vertex -6.241978e-001 1.125000e+000 3.165573e-002
         vertex -6.241978e-001 1.025000e+000 3.165573e-002
         vertex -6.177927e-001 1.025000e+000 9.464236e-002
      endloop
   endfacet
   facet normal -9.930172e-001 0.000000e+000 1.179695e-001
      outer loop
         vertex -6.241978e-001 1.125000e+000 3.165573e-002
         vertex -6.177927e-001 1.025000e+000 9.464236e-002
         vertex -6.177927e-001 1.125000e+000 9.464236e-002
      endloop
   endfacet
   facet normal -9.827924e-001 0.000000e+000 1.847134e-001
      outer loop
         vertex -6.177927e-001 1.125000e+000 9.464236e-002
         vertex -6.177927e-001 1.025000e+000 9.464236e-002
         vertex -6.050482e-001 1.025000e+000 1.566578e-001
      endloop
   endfacet
   facet normal -9.759876e-001 0.000000e+000 2.178261e-001
      outer loop
         vertex -6.177927e-001 1.125000e+000 9.464236e-002
         vertex -6.050482e-001 1.025000e+000 1.566578e-001
         vertex -6.050482e-001 1.125000e+000 1.566578e-001
      endloop
   endfacet
   facet normal -9.590629e-001 0.000000e+000 2.831932e-001
      outer loop
         vertex -6.050482e-001 1.125000e+000 1.566578e-001
         vertex -6.050482e-001 1.025000e+000 1.566578e-001
         vertex -5.860951e-001 1.025000e+000 2.170658e-001
      endloop
   endfacet
   facet normal -9.489430e-001 0.000000e+000 3.154475e-001
      outer loop
         vertex -6.050482e-001 1.125000e+000 1.566578e-001
         vertex -5.860951e-001 1.025000e+000 2.170658e-001
         vertex -5.860951e-001 1.125000e+000 2.170658e-001
      endloop
   endfacet
   facet normal -9.254920e-001 0.000000e+000 3.787670e-001
      outer loop
         vertex -5.860951e-001 1.125000e+000 2.170658e-001
         vertex -5.860951e-001 1.025000e+000 2.170658e-001
         vertex -5.611278e-001 1.025000e+000 2.752464e-001
      endloop
   endfacet
   facet normal -9.121610e-001 0.000000e+000 4.098321e-001
      outer loop
         vertex -5.860951e-001 1.125000e+000 2.170658e-001
         vertex -5.611278e-001 1.025000e+000 2.752464e-001
         vertex -5.611278e-001 1.125000e+000 2.752464e-001
      endloop
   endfacet
   facet normal -8.824245e-001 0.000000e+000 4.704542e-001
      outer loop
         vertex -5.611278e-001 1.125000e+000 2.752464e-001
         vertex -5.611278e-001 1.025000e+000 2.752464e-001
         vertex -5.304027e-001 1.025000e+000 3.306025e-001
      endloop
   endfacet
   facet normal -8.660190e-001 0.000000e+000 5.000111e-001
      outer loop
         vertex -5.611278e-001 1.125000e+000 2.752464e-001
         vertex -5.304027e-001 1.025000e+000 3.306025e-001
         vertex -5.304027e-001 1.125000e+000 3.306025e-001
      endloop
   endfacet
   facet normal -8.303019e-001 0.000000e+000 5.573137e-001
      outer loop
         vertex -5.304027e-001 1.125000e+000 3.306025e-001
         vertex -5.304027e-001 1.025000e+000 3.306025e-001
         vertex -4.942348e-001 1.025000e+000 3.825662e-001
      endloop
   endfacet
   facet normal -8.109905e-001 0.000000e+000 5.850594e-001
      outer loop
         vertex -5.304027e-001 1.125000e+000 3.306025e-001
         vertex -4.942348e-001 1.025000e+000 3.825662e-001
         vertex -4.942348e-001 1.125000e+000 3.825662e-001
      endloop
   endfacet
   facet normal -7.696595e-001 0.000000e+000 6.384546e-001
      outer loop
         vertex -4.942348e-001 1.125000e+000 3.825662e-001
         vertex -4.942348e-001 1.025000e+000 3.825662e-001
         vertex -4.529955e-001 1.025000e+000 4.306043e-001
      endloop
   endfacet
   facet normal -7.476400e-001 0.000000e+000 6.641042e-001
      outer loop
         vertex -4.942348e-001 1.125000e+000 3.825662e-001
         vertex -4.529955e-001 1.025000e+000 4.306043e-001
         vertex -4.529955e-001 1.125000e+000 4.306043e-001
      endloop
   endfacet
   facet normal -7.011192e-001 0.000000e+000 7.130441e-001
      outer loop
         vertex -4.529955e-001 1.125000e+000 4.306043e-001
         vertex -4.529955e-001 1.025000e+000 4.306043e-001
         vertex -4.071078e-001 1.025000e+000 4.742238e-001
      endloop
   endfacet
   facet normal -6.766178e-001 0.000000e+000 7.363344e-001
      outer loop
         vertex -4.529955e-001 1.125000e+000 4.306043e-001
         vertex -4.071078e-001 1.025000e+000 4.742238e-001
         vertex -4.071078e-001 1.125000e+000 4.742238e-001
      endloop
   endfacet
   facet normal -6.253844e-001 0.000000e+000 7.803167e-001
      outer loop
         vertex -4.071078e-001 1.125000e+000 4.742238e-001
         vertex -4.071078e-001 1.025000e+000 4.742238e-001
         vertex -3.570426e-001 1.025000e+000 5.129771e-001
      endloop
   endfacet
   facet normal -5.986525e-001 0.000000e+000 8.010088e-001
      outer loop
         vertex -4.071078e-001 1.125000e+000 4.742238e-001
         vertex -3.570426e-001 1.025000e+000 5.129771e-001
         vertex -3.570426e-001 1.125000e+000 5.129771e-001
      endloop
   endfacet
   facet normal -5.432325e-001 0.000000e+000 8.395823e-001
      outer loop
         vertex -3.570426e-001 1.125000e+000 5.129771e-001
         vertex -3.570426e-001 1.025000e+000 5.129771e-001
         vertex -3.033137e-001 1.025000e+000 5.464666e-001
      endloop
   endfacet
   facet normal -5.145444e-001 0.000000e+000 8.574638e-001
      outer loop
         vertex -3.570426e-001 1.125000e+000 5.129771e-001
         vertex -3.033137e-001 1.025000e+000 5.464666e-001
         vertex -3.033137e-001 1.125000e+000 5.464666e-001
      endloop
   endfacet
   facet normal -4.555062e-001 0.000000e+000 8.902326e-001
      outer loop
         vertex -3.033137e-001 1.125000e+000 5.464666e-001
         vertex -3.033137e-001 1.025000e+000 5.464666e-001
         vertex -2.464724e-001 1.025000e+000 5.743486e-001
      endloop
   endfacet
   facet normal -4.251563e-001 0.000000e+000 9.051200e-001
      outer loop
         vertex -3.033137e-001 1.125000e+000 5.464666e-001
         vertex -2.464724e-001 1.025000e+000 5.743486e-001
         vertex -2.464724e-001 1.125000e+000 5.743486e-001
      endloop
   endfacet
   facet normal -3.631059e-001 0.000000e+000 9.317479e-001
      outer loop
         vertex -2.464724e-001 1.125000e+000 5.743486e-001
         vertex -2.464724e-001 1.025000e+000 5.743486e-001
         vertex -1.871019e-001 1.025000e+000 5.963370e-001
      endloop
   endfacet
   facet normal -3.314055e-001 0.000000e+000 9.434884e-001
      outer loop
         vertex -2.464724e-001 1.125000e+000 5.743486e-001
         vertex -1.871019e-001 1.025000e+000 5.963370e-001
         vertex -1.871019e-001 1.125000e+000 5.963370e-001
      endloop
   endfacet
   facet normal -2.669795e-001 0.000000e+000 9.637022e-001
      outer loop
         vertex -1.871019e-001 1.125000e+000 5.963370e-001
         vertex -1.871019e-001 1.025000e+000 5.963370e-001
         vertex -1.258116e-001 1.025000e+000 6.122062e-001
      endloop
   endfacet
   facet normal -2.342540e-001 0.000000e+000 9.721754e-001
      outer loop
         vertex -1.871019e-001 1.125000e+000 5.963370e-001
         vertex -1.258116e-001 1.025000e+000 6.122062e-001
         vertex -1.258116e-001 1.125000e+000 6.122062e-001
      endloop
   endfacet
   facet normal -1.681136e-001 0.000000e+000 9.857677e-001
      outer loop
         vertex -1.258116e-001 1.125000e+000 6.122062e-001
         vertex -1.258116e-001 1.025000e+000 6.122062e-001
         vertex -6.323020e-002 1.025000e+000 6.217933e-001
      endloop
   endfacet
   facet normal -1.346987e-001 0.000000e+000 9.908866e-001
      outer loop
         vertex -1.258116e-001 1.125000e+000 6.122062e-001
         vertex -6.323020e-002 1.025000e+000 6.217933e-001
         vertex -6.323020e-002 1.125000e+000 6.217933e-001
      endloop
   endfacet
   facet normal -6.752258e-002 0.000000e+000 9.977177e-001
      outer loop
         vertex -6.323020e-002 1.125000e+000 6.217933e-001
         vertex -6.323020e-002 1.025000e+000 6.217933e-001
         vertex 0.000000e+000 1.025000e+000 6.250000e-001
      endloop
   endfacet
   facet normal -3.376129e-002 0.000000e+000 9.994299e-001
      outer loop
         vertex -6.323020e-002 1.125000e+000 6.217933e-001
         vertex 0.000000e+000 1.025000e+000 6.250000e-001
         vertex 0.000000e+000 1.125000e+000 6.250000e-001
      endloop
   endfacet
   facet normal 3.376129e-002 0.000000e+000 9.994299e-001
      outer loop
         vertex 0.000000e+000 1.125000e+000 6.250000e-001
         vertex 0.000000e+000 1.025000e+000 6.250000e-001
         vertex 6.323020e-002 1.025000e+000 6.217933e-001
      endloop
   endfacet
   facet normal 0.000000e+000 1.000000e+000 0.000000e+000
      outer loop
         vertex -1.530808e-016 1.125000e+000 6.250000e-001
         vertex 6.323020e-002 1.125000e+000 6.217933e-001
         vertex 0.000000e+000 1.125000e+000 0.000000e+000
      endloop
   endfacet
   facet normal 0.000000e+000 1.000000e+000 0.000000e+000
      outer loop
         vertex -1.530808e-016 1.125000e+000 6.250000e-001
         vertex 0.000000e+000 1.125000e+000 0.000000e+000
         vertex -6.323020e-002 1.125000e+000 6.217933e-001
      endloop
   endfacet
   facet normal 0.000000e+000 1.000000e+000 0.000000e+000
      outer loop
         vertex -2.464724e-001 1.125000e+000 5.743486e-001
         vertex -1.871019e-001 1.125000e+000 5.963370e-001
         vertex 0.000000e+000 1.125000e+000 0.000000e+000
      endloop
   endfacet
   facet normal 0.000000e+000 1.000000e+000 0.000000e+000
      outer loop
         vertex 0.000000e+000 1.125000e+000 0.000000e+000
         vertex -1.871019e-001 1.125000e+000 5.963370e-001
         vertex -1.258116e-001 1.125000e+000 6.122062e-001
      endloop
   endfacet
   facet normal 0.000000e+000 1.000000e+000 0.000000e+000
      outer loop
         vertex 0.000000e+000 1.125000e+000 0.000000e+000
         vertex -1.258116e-001 1.125000e+000 6.122062e-001
         vertex -6.323020e-002 1.125000e+000 6.217933e-001
      endloop
   endfacet
   facet normal 0.000000e+000 1.000000e+000 0.000000e+000
      outer loop
         vertex -4.071078e-001 1.125000e+000 4.742238e-001
         vertex -3.570426e-001 1.125000e+000 5.129771e-001
         vertex 0.000000e+000 1.125000e+000 0.000000e+000
      endloop
   endfacet
   facet normal 0.000000e+000 1.000000e+000 0.000000e+000
      outer loop
         vertex 0.000000e+000 1.125000e+000 0.000000e+000
         vertex -3.570426e-001 1.125000e+000 5.129771e-001
         vertex -3.033137e-001 1.125000e+000 5.464666e-001
      endloop
   endfacet
   facet normal 0.000000e+000 1.000000e+000 0.000000e+000
      outer loop
         vertex 0.000000e+000 1.125000e+000 0.000000e+000
         vertex -3.033137e-001 1.125000e+000 5.464666e-001
         vertex -2.464724e-001 1.125000e+000 5.743486e-001
      endloop
   endfacet
   facet normal 0.000000e+000 1.000000e+000 0.000000e+000
      outer loop
         vertex -5.304027e-001 1.125000e+000 3.306025e-001
         vertex -4.942348e-001 1.125000e+000 3.825662e-001
         vertex 0.000000e+000 1.125000e+000 0.000000e+000
      endloop
   endfacet
   facet normal 0.000000e+000 1.000000e+000 0.000000e+000
      outer loop
         vertex 0.000000e+000 1.125000e+000 0.000000e+000
         vertex -4.942348e-001 1.125000e+000 3.825662e-001
         vertex -4.529955e-001 1.125000e+000 4.306043e-001
      endloop
   endfacet
   facet normal 0.000000e+000 1.000000e+000 0.000000e+000
      outer loop
         vertex 0.000000e+000 1.125000e+000 0.000000e+000
         vertex -4.529955e-001 1.125000e+000 4.306043e-001
         vertex -4.071078e-001 1.125000e+000 4.742238e-001
      endloop
   endfacet
   facet normal 0.000000e+000 1.000000e+000 0.000000e+000
      outer loop
         vertex -6.050482e-001 1.125000e+000 1.566578e-001
         vertex -5.860951e-001 1.125000e+000 2.170658e-001
         vertex 0.000000e+000 1.125000e+000 0.000000e+000
      endloop
   endfacet
   facet normal 0.000000e+000 1.000000e+000 0.000000e+000
      outer loop
         vertex 0.000000e+000 1.125000e+000 0.000000e+000
         vertex -5.860951e-001 1.125000e+000 2.170658e-001
         vertex -5.611278e-001 1.125000e+000 2.752464e-001
      endloop
   endfacet
   facet normal 0.000000e+000 1.000000e+000 0.000000e+000
      outer loop
         vertex 0.000000e+000 1.125000e+000 0.000000e+000
         vertex -5.611278e-001 1.125000e+000 2.752464e-001
         vertex -5.304027e-001 1.125000e+000 3.306025e-001
      endloop
   endfacet
   facet normal 0.000000e+000 1.000000e+000 0.000000e+000
      outer loop
         vertex -6.241978e-001 1.125000e+000 -3.165573e-002
         vertex -6.241978e-001 1.125000e+000 3.165573e-002
         vertex 0.000000e+000 1.125000e+000 0.000000e+000
      endloop
   endfacet
   facet normal 0.000000e+000 1.000000e+000 0.000000e+000
      outer loop
         vertex 0.000000e+000 1.125000e+000 0.000000e+000
         vertex -6.241978e-001 1.125000e+000 3.165573e-002
         vertex -6.177927e-001 1.125000e+000 9.464236e-002
      endloop
   endfacet
   facet normal 0.000000e+000 1.000000e+000 0.000000e+000
      outer loop
         vertex 0.000000e+000 1.125000e+000 0.000000e+000
         vertex -6.177927e-001 1.125000e+000 9.464236e-002
         vertex -6.050482e-001 1.125000e+000 1.566578e-001
      endloop
   endfacet
   facet normal 0.000000e+000 1.000000e+000 0.000000e+000
      outer loop
         vertex -5.860951e-001 1.125000e+000 -2.170658e-001
         vertex -6.050482e-001 1.125000e+000 -1.566578e-001
         vertex 0.000000e+000 1.125000e+000 0.000000e+000
      endloop
   endfacet
   facet normal 0.000000e+000 1.000000e+000 0.000000e+000
      outer loop
         vertex 0.000000e+000 1.125000e+000 0.000000e+000
         vertex -6.050482e-001 1.125000e+000 -1.566578e-001
         vertex -6.177927e-001 1.125000e+000 -9.464236e-002
      endloop
   endfacet
   facet normal 0.000000e+000 1.000000e+000 0.000000e+000
      outer loop
         vertex 0.000000e+000 1.125000e+000 0.000000e+000
         vertex -6.177927e-001 1.125000e+000 -9.464236e-002
         vertex -6.241978e-001 1.125000e+000 -3.165573e-002
      endloop
   endfacet
   facet normal 0.000000e+000 1.000000e+000 0.000000e+000
      outer loop
         vertex -4.942348e-001 1.125000e+000 -3.825662e-001
         vertex -5.304027e-001 1.125000e+000 -3.306025e-001
         vertex 0.000000e+000 1.125000e+000 0.000000e+000
      endloop
   endfacet
   facet normal 0.000000e+000 1.000000e+000 0.000000e+000
      outer loop
         vertex 0.000000e+000 1.125000e+000 0.000000e+000
         vertex -5.304027e-001 1.125000e+000 -3.306025e-001
         vertex -5.611278e-001 1.125000e+000 -2.752464e-001
      endloop
   endfacet
   facet normal 0.000000e+000 1.000000e+000 0.000000e+000
      outer loop
         vertex 0.000000e+000 1.125000e+000 0.000000e+000
         vertex -5.611278e-001 1.125000e+000 -2.752464e-001
         vertex -5.860951e-001 1.125000e+000 -2.170658e-001
      endloop
   endfacet
   facet normal 0.000000e+000 1.000000e+000 0.000000e+000
      outer loop
         vertex -3.570426e-001 1.125000e+000 -5.129771e-001
         vertex -4.071078e-001 1.125000e+000 -4.742238e-001
         vertex 0.000000e+000 1.125000e+000 0.000000e+000
      endloop
   endfacet
   facet normal 0.000000e+000 1.000000e+000 0.000000e+000
      outer loop
         vertex 0.000000e+000 1.125000e+000 0.000000e+000
         vertex -4.071078e-001 1.125000e+000 -4.742238e-001
         vertex -4.529955e-001 1.125000e+000 -4.306043e-001
      endloop
   endfacet
   facet normal 0.000000e+000 1.000000e+000 0.000000e+000
      outer loop
         vertex 0.000000e+000 1.125000e+000 0.000000e+000
         vertex -4.529955e-001 1.125000e+000 -4.306043e-001
         vertex -4.942348e-001 1.125000e+000 -3.825662e-001
      endloop
   endfacet
   facet normal 0.000000e+000 1.000000e+000 0.000000e+000
      outer loop
         vertex -1.871019e-001 1.125000e+000 -5.963370e-001
         vertex -2.464724e-001 1.125000e+000 -5.743486e-001
         vertex 0.000000e+000 1.125000e+000 0.000000e+000
      endloop
   endfacet
   facet normal 0.000000e+000 1.000000e+000 0.000000e+000
      outer loop
         vertex 0.000000e+000 1.125000e+000 0.000000e+000
         vertex -2.464724e-001 1.125000e+000 -5.743486e-001
         vertex -3.033137e-001 1.125000e+000 -5.464666e-001
      endloop
   endfacet
   facet normal 0.000000e+000 1.000000e+000 0.000000e+000
      outer loop
         vertex 0.000000e+000 1.125000e+000 0.000000e+000
         vertex -3.033137e-001 1.125000e+000 -5.464666e-001
         vertex -3.570426e-001 1.125000e+000 -5.129771e-001
      endloop
   endfacet
   facet normal 0.000000e+000 1.000000e+000 0.000000e+000
      outer loop
         vertex 3.540962e-016 1.125000e+000 -6.250000e-001
         vertex -6.323020e-002 1.125000e+000 -6.217933e-001
         vertex 0.000000e+000 1.125000e+000 0.000000e+000
      endloop
   endfacet
   facet normal 0.000000e+000 1.000000e+000 0.000000e+000
      outer loop
         vertex 0.000000e+000 1.125000e+000 0.000000e+000
         vertex -6.323020e-002 1.125000e+000 -6.217933e-001
         vertex -1.258116e-001 1.125000e+000 -6.122062e-001
      endloop
   endfacet
   facet normal 0.000000e+000 1.000000e+000 0.000000e+000
      outer loop
         vertex 0.000000e+000 1.125000e+000 0.000000e+000
         vertex -1.258116e-001 1.125000e+000 -6.122062e-001
         vertex -1.871019e-001 1.125000e+000 -5.963370e-001
      endloop
   endfacet
   facet normal 0.000000e+000 1.000000e+000 0.000000e+000
      outer loop
         vertex 1.871019e-001 1.125000e+000 -5.963370e-001
         vertex 1.258116e-001 1.125000e+000 -6.122062e-001
         vertex 0.000000e+000 1.125000e+000 0.000000e+000
      endloop
   endfacet
   facet normal 0.000000e+000 1.000000e+000 0.000000e+000
      outer loop
         vertex 0.000000e+000 1.125000e+000 0.000000e+000
         vertex 1.258116e-001 1.125000e+000 -6.122062e-001
         vertex 6.323020e-002 1.125000e+000 -6.217933e-001
      endloop
   endfacet
   facet normal 0.000000e+000 1.000000e+000 0.000000e+000
      outer loop
         vertex 0.000000e+000 1.125000e+000 0.000000e+000
         vertex 6.323020e-002 1.125000e+000 -6.217933e-001
         vertex 3.540962e-016 1.125000e+000 -6.250000e-001
      endloop
   endfacet
   facet normal 0.000000e+000 1.000000e+000 0.000000e+000
      outer loop
         vertex 3.570426e-001 1.125000e+000 -5.129771e-001
         vertex 3.033137e-001 1.125000e+000 -5.464666e-001
         vertex 0.000000e+000 1.125000e+000 0.000000e+000
      endloop
   endfacet
   facet normal 0.000000e+000 1.000000e+000 0.000000e+000
      outer loop
         vertex 0.000000e+000 1.125000e+000 0.000000e+000
         vertex 3.033137e-001 1.125000e+000 -5.464666e-001
         vertex 2.464724e-001 1.125000e+000 -5.743486e-001
      endloop
   endfacet
   facet normal 0.000000e+000 1.000000e+000 0.000000e+000
      outer loop
         vertex 0.000000e+000 1.125000e+000 0.000000e+000
         vertex 2.464724e-001 1.125000e+000 -5.743486e-001
         vertex 1.871019e-001 1.125000e+000 -5.963370e-001
      endloop
   endfacet
   facet normal 0.000000e+000 1.000000e+000 0.000000e+000
      outer loop
         vertex 4.942348e-001 1.125000e+000 -3.825662e-001
         vertex 4.529955e-001 1.125000e+000 -4.306043e-001
         vertex 0.000000e+000 1.125000e+000 0.000000e+000
      endloop
   endfacet
   facet normal 0.000000e+000 1.000000e+000 0.000000e+000
      outer loop
         vertex 0.000000e+000 1.125000e+000 0.000000e+000
         vertex 4.529955e-001 1.125000e+000 -4.306043e-001
         vertex 4.071078e-001 1.125000e+000 -4.742238e-001
      endloop
   endfacet
   facet normal 0.000000e+000 1.000000e+000 0.000000e+000
      outer loop
         vertex 0.000000e+000 1.125000e+000 0.000000e+000
         vertex 4.071078e-001 1.125000e+000 -4.742238e-001
         vertex 3.570426e-001 1.125000e+000 -5.129771e-001
      endloop
   endfacet
   facet normal 0.000000e+000 1.000000e+000 0.000000e+000
      outer loop
         vertex 5.860951e-001 1.125000e+000 -2.170658e-001
         vertex 5.611278e-001 1.125000e+000 -2.752464e-001
         vertex 0.000000e+000 1.125000e+000 0.000000e+000
      endloop
   endfacet
   facet normal 0.000000e+000 1.000000e+000 0.000000e+000
      outer loop
         vertex 0.000000e+000 1.125000e+000 0.000000e+000
         vertex 5.611278e-001 1.125000e+000 -2.752464e-001
         vertex 5.304027e-001 1.125000e+000 -3.306025e-001
      endloop
   endfacet
   facet normal 0.000000e+000 1.000000e+000 0.000000e+000
      outer loop
         vertex 0.000000e+000 1.125000e+000 0.000000e+000
         vertex 5.304027e-001 1.125000e+000 -3.306025e-001
         vertex 4.942348e-001 1.125000e+000 -3.825662e-001
      endloop
   endfacet
   facet normal 0.000000e+000 1.000000e+000 0.000000e+000
      outer loop
         vertex 6.241978e-001 1.125000e+000 -3.165573e-002
         vertex 6.177927e-001 1.125000e+000 -9.464236e-002
         vertex 0.000000e+000 1.125000e+000 0.000000e+000
      endloop
   endfacet
   facet normal 0.000000e+000 1.000000e+000 0.000000e+000
      outer loop
         vertex 0.000000e+000 1.125000e+000 0.000000e+000
         vertex 6.177927e-001 1.125000e+000 -9.464236e-002
         vertex 6.050482e-001 1.125000e+000 -1.566578e-001
      endloop
   endfacet
   facet normal 0.000000e+000 1.000000e+000 0.000000e+000
      outer loop
         vertex 0.000000e+000 1.125000e+000 0.000000e+000
         vertex 6.050482e-001 1.125000e+000 -1.566578e-001
         vertex 5.860951e-001 1.125000e+000 -2.170658e-001
      endloop
   endfacet
   facet normal 0.000000e+000 1.000000e+000 0.000000e+000
      outer loop
         vertex 6.050482e-001 1.125000e+000 1.566578e-001
         vertex 6.177927e-001 1.125000e+000 9.464236e-002
         vertex 0.000000e+000 1.125000e+000 0.000000e+000
      endloop
   endfacet
   facet normal 0.000000e+000 1.000000e+000 0.000000e+000
      outer loop
         vertex 0.000000e+000 1.125000e+000 0.000000e+000
         vertex 6.177927e-001 1.125000e+000 9.464236e-002
         vertex 6.241978e-001 1.125000e+000 3.165573e-002
      endloop
   endfacet
   facet normal 0.000000e+000 1.000000e+000 0.000000e+000
      outer loop
         vertex 0.000000e+000 1.125000e+000 0.000000e+000
         vertex 6.241978e-001 1.125000e+000 3.165573e-002
         vertex 6.241978e-001 1.125000e+000 -3.165573e-002
      endloop
   endfacet
   facet normal 0.000000e+000 1.000000e+000 0.000000e+000
      outer loop
         vertex 5.304027e-001 1.125000e+000 3.306025e-001
         vertex 5.611278e-001 1.125000e+000 2.752464e-001
         vertex 0.000000e+000 1.125000e+000 0.000000e+000
      endloop
   endfacet
   facet normal 0.000000e+000 1.000000e+000 0.000000e+000
      outer loop
         vertex 0.000000e+000 1.125000e+000 0.000000e+000
         vertex 5.611278e-001 1.125000e+000 2.752464e-001
         vertex 5.860951e-001 1.125000e+000 2.170658e-001
      endloop
   endfacet
   facet normal 0.000000e+000 1.000000e+000 0.000000e+000
      outer loop
         vertex 0.000000e+000 1.125000e+000 0.000000e+000
         vertex 5.860951e-001 1.125000e+000 2.170658e-001
         vertex 6.050482e-001 1.125000e+000 1.566578e-001
      endloop
   endfacet
   facet normal 0.000000e+000 1.000000e+000 0.000000e+000
      outer loop
         vertex 4.071078e-001 1.125000e+000 4.742238e-001
         vertex 4.529955e-001 1.125000e+000 4.306043e-001
         vertex 0.000000e+000 1.125000e+000 0.000000e+000
      endloop
   endfacet
   facet normal 0.000000e+000 1.000000e+000 0.000000e+000
      outer loop
         vertex 0.000000e+000 1.125000e+000 0.000000e+000
         vertex 4.529955e-001 1.125000e+000 4.306043e-001
         vertex 4.942348e-001 1.125000e+000 3.825662e-001
      endloop
   endfacet
   facet normal 0.000000e+000 1.000000e+000 0.000000e+000
      outer loop
         vertex 0.000000e+000 1.125000e+000 0.000000e+000
         vertex 4.942348e-001 1.125000e+000 3.825662e-001
         vertex 5.304027e-001 1.125000e+000 3.306025e-001
      endloop
   endfacet
   facet normal 0.000000e+000 1.000000e+000 0.000000e+000
      outer loop
         vertex 2.464724e-001 1.125000e+000 5.743486e-001
         vertex 3.033137e-001 1.125000e+000 5.464666e-001
         vertex 0.000000e+000 1.125000e+000 0.000000e+000
      endloop
   endfacet
   facet normal 0.000000e+000 1.000000e+000 0.000000e+000
      outer loop
         vertex 0.000000e+000 1.125000e+000 0.000000e+000
         vertex 3.033137e-001 1.125000e+000 5.464666e-001
         vertex 3.570426e-001 1.125000e+000 5.129771e-001
      endloop
   endfacet
   facet normal 0.000000e+000 1.000000e+000 0.000000e+000
      outer loop
         vertex 0.000000e+000 1.125000e+000 0.000000e+000
         vertex 3.570426e-001 1.125000e+000 5.129771e-001
         vertex 4.071078e-001 1.125000e+000 4.742238e-001
      endloop
   endfacet
   facet normal 0.000000e+000 1.000000e+000 0.000000e+000
      outer loop
         vertex 6.323020e-002 1.125000e+000 6.217933e-001
         vertex 1.258116e-001 1.125000e+000 6.122062e-001
         vertex 0.000000e+000 1.125000e+000 0.000000e+000
      endloop
   endfacet
   facet normal 0.000000e+000 1.000000e+000 0.000000e+000
      outer loop
         vertex 0.000000e+000 1.125000e+000 0.000000e+000
         vertex 1.258116e-001 1.125000e+000 6.122062e-001
         vertex 1.871019e-001 1.125000e+000 5.963370e-001
      endloop
   endfacet
   facet normal 0.000000e+000 1.000000e+000 0.000000e+000
      outer loop
         vertex 0.000000e+000 1.125000e+000 0.000000e+000
         vertex 1.871019e-001 1.125000e+000 5.963370e-001
         vertex 2.464724e-001 1.125000e+000 5.743486e-001
      endloop
   endfacet
   facet normal 0.000000e+000 -1.000000e+000 0.000000e+000
      outer loop
         vertex 0.000000e+000 1.025000e+000 6.250000e-001
         vertex -6.323020e-002 1.025000e+000 6.217933e-001
         vertex 0.000000e+000 1.025000e+000 0.000000e+000
      endloop
   endfacet
   facet normal 0.000000e+000 -1.000000e+000 0.000000e+000
      outer loop
         vertex 0.000000e+000 1.025000e+000 6.250000e-001
         vertex 0.000000e+000 1.025000e+000 0.000000e+000
         vertex 6.323020e-002 1.025000e+000 6.217933e-001
      endloop
   endfacet
   facet normal 0.000000e+000 -1.000000e+000 0.000000e+000
      outer loop
         vertex 2.464724e-001 1.025000e+000 5.743486e-001
         vertex 1.871019e-001 1.025000e+000 5.963370e-001
         vertex 0.000000e+000 1.025000e+000 0.000000e+000
      endloop
   endfacet
   facet normal 0.000000e+000 -1.000000e+000 0.000000e+000
      outer loop
         vertex 0.000000e+000 1.025000e+000 0.000000e+000
         vertex 1.871019e-001 1.025000e+000 5.963370e-001
         vertex 1.258116e-001 1.025000e+000 6.122062e-001
      endloop
   endfacet
   facet normal 0.000000e+000 -1.000000e+000 0.000000e+000
      outer loop
         vertex 0.000000e+000 1.025000e+000 0.000000e+000
         vertex 1.258116e-001 1.025000e+000 6.122062e-001
         vertex 6.323020e-002 1.025000e+000 6.217933e-001
      endloop
   endfacet
   facet normal 0.000000e+000 -1.000000e+000 0.000000e+000
      outer loop
         vertex 4.071078e-001 1.025000e+000 4.742238e-001
         vertex 3.570426e-001 1.025000e+000 5.129771e-001
         vertex 0.000000e+000 1.025000e+000 0.000000e+000
      endloop
   endfacet
   facet normal 0.000000e+000 -1.000000e+000 0.000000e+000
      outer loop
         vertex 0.000000e+000 1.025000e+000 0.000000e+000
         vertex 3.570426e-001 1.025000e+000 5.129771e-001
         vertex 3.033137e-001 1.025000e+000 5.464666e-001
      endloop
   endfacet
   facet normal 0.000000e+000 -1.000000e+000 0.000000e+000
      outer loop
         vertex 0.000000e+000 1.025000e+000 0.000000e+000
         vertex 3.033137e-001 1.025000e+000 5.464666e-001
         vertex 2.464724e-001 1.025000e+000 5.743486e-001
      endloop
   endfacet
   facet normal 0.000000e+000 -1.000000e+000 0.000000e+000
      outer loop
         vertex 5.304027e-001 1.025000e+000 3.306025e-001
         vertex 4.942348e-001 1.025000e+000 3.825662e-001
         vertex 0.000000e+000 1.025000e+000 0.000000e+000
      endloop
   endfacet
   facet normal 0.000000e+000 -1.000000e+000 0.000000e+000
      outer loop
         vertex 0.000000e+000 1.025000e+000 0.000000e+000
         vertex 4.942348e-001 1.025000e+000 3.825662e-001
         vertex 4.529955e-001 1.025000e+000 4.306043e-001
      endloop
   endfacet
   facet normal 0.000000e+000 -1.000000e+000 0.000000e+000
      outer loop
         vertex 0.000000e+000 1.025000e+000 0.000000e+000
         vertex 4.529955e-001 1.025000e+000 4.306043e-001
         vertex 4.071078e-001 1.025000e+000 4.742238e-001
      endloop
   endfacet
   facet normal 0.000000e+000 -1.000000e+000 0.000000e+000
      outer loop
         vertex 6.050482e-001 1.025000e+000 1.566578e-001
         vertex 5.860951e-001 1.025000e+000 2.170658e-001
         vertex 0.000000e+000 1.025000e+000 0.000000e+000
      endloop
   endfacet
   facet normal 0.000000e+000 -1.000000e+000 0.000000e+000
      outer loop
         vertex 0.000000e+000 1.025000e+000 0.000000e+000
         vertex 5.860951e-001 1.025000e+000 2.170658e-001
         vertex 5.611278e-001 1.025000e+000 2.752464e-001
      endloop
   endfacet
   facet normal 0.000000e+000 -1.000000e+000 0.000000e+000
      outer loop
         vertex 0.000000e+000 1.025000e+000 0.000000e+000
         vertex 5.611278e-001 1.025000e+000 2.752464e-001
         vertex 5.304027e-001 1.025000e+000 3.306025e-001
      endloop
   endfacet
   facet normal 0.000000e+000 -1.000000e+000 0.000000e+000
      outer loop
         vertex 6.241978e-001 1.025000e+000 -3.165573e-002
         vertex 6.241978e-001 1.025000e+000 3.165573e-002
         vertex 0.000000e+000 1.025000e+000 0.000000e+000
      endloop
   endfacet
   facet normal 0.000000e+000 -1.000000e+000 0.000000e+000
      outer loop
         vertex 0.000000e+000 1.025000e+000 0.000000e+000
         vertex 6.241978e-001 1.025000e+000 3.165573e-002
         vertex 6.177927e-001 1.025000e+000 9.464236e-002
      endloop
   endfacet
   facet normal 0.000000e+000 -1.000000e+000 0.000000e+000
      outer loop
         vertex 0.000000e+000 1.025000e+000 0.000000e+000
         vertex 6.177927e-001 1.025000e+000 9.464236e-002
         vertex 6.050482e-001 1.025000e+000 1.566578e-001
      endloop
   endfacet
   facet normal 0.000000e+000 -1.000000e+000 0.000000e+000
      outer loop
         vertex 5.860951e-001 1.025000e+000 -2.170658e-001
         vertex 6.050482e-001 1.025000e+000 -1.566578e-001
         vertex 0.000000e+000 1.025000e+000 0.000000e+000
      endloop
   endfacet
   facet normal 0.000000e+000 -1.000000e+000 0.000000e+000
      outer loop
         vertex 0.000000e+000 1.025000e+000 0.000000e+000
         vertex 6.050482e-001 1.025000e+000 -1.566578e-001
         vertex 6.177927e-001 1.025000e+000 -9.464236e-002
      endloop
   endfacet
   facet normal 0.000000e+000 -1.000000e+000 0.000000e+000
      outer loop
         vertex 0.000000e+000 1.025000e+000 0.000000e+000
         vertex 6.177927e-001 1.025000e+000 -9.464236e-002
         vertex 6.241978e-001 1.025000e+000 -3.165573e-002
      endloop
   endfacet
   facet normal 0.000000e+000 -1.000000e+000 0.000000e+000
      outer loop
         vertex 4.942348e-001 1.025000e+000 -3.825662e-001
         vertex 5.304027e-001 1.025000e+000 -3.306025e-001
         vertex 0.000000e+000 1.025000e+000 0.000000e+000
      endloop
   endfacet
   facet normal 0.000000e+000 -1.000000e+000 0.000000e+000
      outer loop
         vertex 0.000000e+000 1.025000e+000 0.000000e+000
         vertex 5.304027e-001 1.025000e+000 -3.306025e-001
         vertex 5.611278e-001 1.025000e+000 -2.752464e-001
      endloop
   endfacet
   facet normal 0.000000e+000 -1.000000e+000 0.000000e+000
      outer loop
         vertex 0.000000e+000 1.025000e+000 0.000000e+000
         vertex 5.611278e-001 1.025000e+000 -2.752464e-001
         vertex 5.860951e-001 1.025000e+000 -2.170658e-001
      endloop
   endfacet
   facet normal 0.000000e+000 -1.000000e+000 0.000000e+000
      outer loop
         vertex 3.570426e-001 1.025000e+000 -5.129771e-001
         vertex 4.071078e-001 1.025000e+000 -4.742238e-001
         vertex 0.000000e+000 1.025000e+000 0.000000e+000
      endloop
   endfacet
   facet normal 0.000000e+000 -1.000000e+000 0.000000e+000
      outer loop
         vertex 0.000000e+000 1.025000e+000 0.000000e+000
         vertex 4.071078e-001 1.025000e+000 -4.742238e-001
         vertex 4.529955e-001 1.025000e+000 -4.306043e-001
      endloop
   endfacet
   facet normal 0.000000e+000 -1.000000e+000 0.000000e+000
      outer loop
         vertex 0.000000e+000 1.025000e+000 0.000000e+000
         vertex 4.529955e-001 1.025000e+000 -4.306043e-001
         vertex 4.942348e-001 1.025000e+000 -3.825662e-001
      endloop
   endfacet
   facet normal 0.000000e+000 -1.000000e+000 0.000000e+000
      outer loop
         vertex 1.871019e-001 1.025000e+000 -5.963370e-001
         vertex 2.464724e-001 1.025000e+000 -5.743486e-001
         vertex 0.000000e+000 1.025000e+000 0.000000e+000
      endloop
   endfacet
   facet normal 0.000000e+000 -1.000000e+000 0.000000e+000
      outer loop
         vertex 0.000000e+000 1.025000e+000 0.000000e+000
         vertex 2.464724e-001 1.025000e+000 -5.743486e-001
         vertex 3.033137e-001 1.025000e+000 -5.464666e-001
      endloop
   endfacet
   facet normal 0.000000e+000 -1.000000e+000 0.000000e+000
      outer loop
         vertex 0.000000e+000 1.025000e+000 0.000000e+000
         vertex 3.033137e-001 1.025000e+000 -5.464666e-001
         vertex 3.570426e-001 1.025000e+000 -5.129771e-001
      endloop
   endfacet
   facet normal 0.000000e+000 -1.000000e+000 0.000000e+000
      outer loop
         vertex 3.540962e-016 1.025000e+000 -6.250000e-001
         vertex 6.323020e-002 1.025000e+000 -6.217933e-001
         vertex 0.000000e+000 1.025000e+000 0.000000e+000
      endloop
   endfacet
   facet normal 0.000000e+000 -1.000000e+000 0.000000e+000
      outer loop
         vertex 0.000000e+000 1.025000e+000 0.000000e+000
         vertex 6.323020e-002 1.025000e+000 -6.217933e-001
         vertex 1.258116e-001 1.025000e+000 -6.122062e-001
      endloop
   endfacet
   facet normal 0.000000e+000 -1.000000e+000 0.000000e+000
      outer loop
         vertex 0.000000e+000 1.025000e+000 0.000000e+000
         vertex 1.258116e-001 1.025000e+000 -6.122062e-001
         vertex 1.871019e-001 1.025000e+000 -5.963370e-001
      endloop
   endfacet
   facet normal 0.000000e+000 -1.000000e+000 0.000000e+000
      outer loop
         vertex -1.871019e-001 1.025000e+000 -5.963370e-001
         vertex -1.258116e-001 1.025000e+000 -6.122062e-001
         vertex 0.000000e+000 1.025000e+000 0.000000e+000
      endloop
   endfacet
   facet normal 0.000000e+000 -1.000000e+000 0.000000e+000
      outer loop
         vertex 0.000000e+000 1.025000e+000 0.000000e+000
         vertex -1.258116e-001 1.025000e+000 -6.122062e-001
         vertex -6.323020e-002 1.025000e+000 -6.217933e-001
      endloop
   endfacet
   facet normal 0.000000e+000 -1.000000e+000 0.000000e+000
      outer loop
         vertex 0.000000e+000 1.025000e+000 0.000000e+000
         vertex -6.323020e-002 1.025000e+000 -6.217933e-001
         vertex 3.540962e-016 1.025000e+000 -6.250000e-001
      endloop
   endfacet
   facet normal 0.000000e+000 -1.000000e+000 0.000000e+000
      outer loop
         vertex -3.570426e-001 1.025000e+000 -5.129771e-001
         vertex -3.033137e-001 1.025000e+000 -5.464666e-001
         vertex 0.000000e+000 1.025000e+000 0.000000e+000
      endloop
   endfacet
   facet normal 0.000000e+000 -1.000000e+000 0.000000e+000
      outer loop
         vertex 0.000000e+000 1.025000e+000 0.000000e+000
         vertex -3.033137e-001 1.025000e+000 -5.464666e-001
         vertex -2.464724e-001 1.025000e+000 -5.743486e-001
      endloop
   endfacet
   facet normal 0.000000e+000 -1.000000e+000 0.000000e+000
      outer loop
         vertex 0.000000e+000 1.025000e+000 0.000000e+000
         vertex -2.464724e-001 1.025000e+000 -5.743486e-001
         vertex -1.871019e-001 1.025000e+000 -5.963370e-001
      endloop
   endfacet
   facet normal 0.000000e+000 -1.000000e+000 0.000000e+000
      outer loop
         vertex -4.942348e-001 1.025000e+000 -3.825662e-001
         vertex -4.529955e-001 1.025000e+000 -4.306043e-001
         vertex 0.000000e+000 1.025000e+000 0.000000e+000
      endloop
   endfacet
   facet normal 0.000000e+000 -1.000000e+000 0.000000e+000
      outer loop
         vertex 0.000000e+000 1.025000e+000 0.000000e+000
         vertex -4.529955e-001 1.025000e+000 -4.306043e-001
         vertex -4.071078e-001 1.025000e+000 -4.742238e-001
      endloop
   endfacet
   facet normal 0.000000e+000 -1.000000e+000 0.000000e+000
      outer loop
         vertex 0.000000e+000 1.025000e+000 0.000000e+000
         vertex -4.071078e-001 1.025000e+000 -4.742238e-001
         vertex -3.570426e-001 1.025000e+000 -5.129771e-001
      endloop
   endfacet
   facet normal 0.000000e+000 -1.000000e+000 0.000000e+000
      outer loop
         vertex -5.860951e-001 1.025000e+000 -2.170658e-001
         vertex -5.611278e-001 1.025000e+000 -2.752464e-001
         vertex 0.000000e+000 1.025000e+000 0.000000e+000
      endloop
   endfacet
   facet normal 0.000000e+000 -1.000000e+000 0.000000e+000
      outer loop
         vertex 0.000000e+000 1.025000e+000 0.000000e+000
         vertex -5.611278e-001 1.025000e+000 -2.752464e-001
         vertex -5.304027e-001 1.025000e+000 -3.306025e-001
      endloop
   endfacet
   facet normal 0.000000e+000 -1.000000e+000 0.000000e+000
      outer loop
         vertex 0.000000e+000 1.025000e+000 0.000000e+000
         vertex -5.304027e-001 1.025000e+000 -3.306025e-001
         vertex -4.942348e-001 1.025000e+000 -3.825662e-001
      endloop
   endfacet
   facet normal 0.000000e+000 -1.000000e+000 0.000000e+000
      outer loop
         vertex -6.241978e-001 1.025000e+000 -3.165573e-002
         vertex -6.177927e-001 1.025000e+000 -9.464236e-002
         vertex 0.000000e+000 1.025000e+000 0.000000e+000
      endloop
   endfacet
   facet normal 0.000000e+000 -1.000000e+000 0.000000e+000
      outer loop
         vertex 0.000000e+000 1.025000e+000 0.000000e+000
         vertex -6.177927e-001 1.025000e+000 -9.464236e-002
         vertex -6.050482e-001 1.025000e+000 -1.566578e-001
      endloop
   endfacet
   facet normal 0.000000e+000 -1.000000e+000 0.000000e+000
      outer loop
         vertex 0.000000e+000 1.025000e+000 0.000000e+000
         vertex -6.050482e-001 1.025000e+000 -1.566578e-001
         vertex -5.860951e-001 1.025000e+000 -2.170658e-001
      endloop
   endfacet
   facet normal 0.000000e+000 -1.000000e+000 0.000000e+000
      outer loop
         vertex -6.050482e-001 1.025000e+000 1.566578e-001
         vertex -6.177927e-001 1.025000e+000 9.464236e-002
         vertex 0.000000e+000 1.025000e+000 0.000000e+000
      endloop
   endfacet
   facet normal 0.000000e+000 -1.000000e+000 0.000000e+000
      outer loop
         vertex 0.000000e+000 1.025000e+000 0.000000e+000
         vertex -6.177927e-001 1.025000e+000 9.464236e-002
         vertex -6.241978e-001 1.025000e+000 3.165573e-002
      endloop
   endfacet
   facet normal 0.000000e+000 -1.000000e+000 0.000000e+000
      outer loop
         vertex 0.000000e+000 1.025000e+000 0.000000e+000
         vertex -6.241978e-001 1.025000e+000 3.165573e-002
         vertex -6.241978e-001 1.025000e+000 -3.165573e-002
      endloop
   endfacet
   facet normal 0.000000e+000 -1.000000e+000 0.000000e+000
      outer loop
         vertex -5.304027e-001 1.025000e+000 3.306025e-001
         vertex -5.611278e-001 1.025000e+000 2.752464e-001
         vertex 0.000000e+000 1.025000e+000 0.000000e+000
      endloop
   endfacet
   facet normal 0.000000e+000 -1.000000e+000 0.000000e+000
      outer loop
         vertex 0.000000e+000 1.025000e+000 0.000000e+000
         vertex -5.611278e-001 1.025000e+000 2.752464e-001
         vertex -5.860951e-001 1.025000e+000 2.170658e-001
      endloop
   endfacet
   facet normal 0.000000e+000 -1.000000e+000 0.000000e+000
      outer loop
         vertex 0.000000e+000 1.025000e+000 0.000000e+000
         vertex -5.860951e-001 1.025000e+000 2.170658e-001
         vertex -6.050482e-001 1.025000e+000 1.566578e-001
      endloop
   endfacet
   facet normal 0.000000e+000 -1.000000e+000 0.000000e+000
      outer loop
         vertex -4.071078e-001 1.025000e+000 4.742238e-001
         vertex -4.529955e-001 1.025000e+000 4.306043e-001
         vertex 0.000000e+000 1.025000e+000 0.000000e+000
      endloop
   endfacet
   facet normal 0.000000e+000 -1.000000e+000 0.000000e+000
      outer loop
         vertex 0.000000e+000 1.025000e+000 0.000000e+000
         vertex -4.529955e-001 1.025000e+000 4.306043e-001
         vertex -4.942348e-001 1.025000e+000 3.825662e-001
      endloop
   endfacet
   facet normal 0.000000e+000 -1.000000e+000 0.000000e+000
      outer loop
         vertex 0.000000e+000 1.025000e+000 0.000000e+000
         vertex -4.942348e-001 1.025000e+000 3.825662e-001
         vertex -5.304027e-001 1.025000e+000 3.306025e-001
      endloop
   endfacet
   facet normal 0.000000e+000 -1.000000e+000 0.000000e+000
      outer loop
         vertex -2.464724e-001 1.025000e+000 5.743486e-001
         vertex -3.033137e-001 1.025000e+000 5.464666e-001
         vertex 0.000000e+000 1.025000e+000 0.000000e+000
      endloop
   endfacet
   facet normal 0.000000e+000 -1.000000e+000 0.000000e+000
      outer loop
         vertex 0.000000e+000 1.025000e+000 0.000000e+000
         vertex -3.033137e-001 1.025000e+000 5.464666e-001
         vertex -3.570426e-001 1.025000e+000 5.129771e-001
      endloop
   endfacet
   facet normal 0.000000e+000 -1.000000e+000 0.000000e+000
      outer loop
         vertex 0.000000e+000 1.025000e+000 0.000000e+000
         vertex -3.570426e-001 1.025000e+000 5.129771e-001
         vertex -4.071078e-001 1.025000e+000 4.742238e-001
      endloop
   endfacet
   facet normal 0.000000e+000 -1.000000e+000 0.000000e+000
      outer loop
         vertex -6.323020e-002 1.025000e+000 6.217933e-001
         vertex -1.258116e-001 1.025000e+000 6.122062e-001
         vertex 0.000000e+000 1.025000e+000 0.000000e+000
      endloop
   endfacet
   facet normal 0.000000e+000 -1.000000e+000 0.000000e+000
      outer loop
         vertex 0.000000e+000 1.025000e+000 0.000000e+000
         vertex -1.258116e-001 1.025000e+000 6.122062e-001
         vertex -1.871019e-001 1.025000e+000 5.963370e-001
      endloop
   endfacet
   facet normal 0.000000e+000 -1.000000e+000 0.000000e+000
      outer loop
         vertex 0.000000e+000 1.025000e+000 0.000000e+000
         vertex -1.871019e-001 1.025000e+000 5.963370e-001
         vertex -2.464724e-001 1.025000e+000 5.743486e-001
      endloop
   endfacet
endsolid