solid CFan
   facet normal 5.527349e-001 0.000000e+000 -8.333572e-001
      outer loop
         vertex 4.820907e-002 1.050000e+000 -5.745333e-002
         vertex 3.750000e-002 1.050000e+000 -6.495190e-002
         vertex 3.826215e-002 1.058970e+000 -6.450588e-002
      endloop
   endfacet
   facet normal 4.445028e-001 0.000000e+000 -8.957774e-001
      outer loop
         vertex 3.750000e-002 1.064012e+000 -6.495190e-002
         vertex 3.654928e-002 1.063668e+000 -6.549160e-002
         vertex 2.565151e-002 1.100000e+000 -7.047695e-002
      endloop
   endfacet
   facet normal 4.488580e-001 0.000000e+000 -8.936031e-001
      outer loop
         vertex 2.565151e-002 1.100000e+000 -7.047695e-002
         vertex 3.750000e-002 1.100000e+000 -6.495190e-002
         vertex 3.750000e-002 1.064012e+000 -6.495190e-002
      endloop
   endfacet
   facet normal 5.494540e-001 0.000000e+000 -8.355240e-001
      outer loop
         vertex 3.750000e-002 1.064012e+000 -6.495190e-002
         vertex 3.750000e-002 1.100000e+000 -6.495190e-002
         vertex 4.820907e-002 1.100000e+000 -5.745333e-002
      endloop
   endfacet
   facet normal 5.972114e-001 0.000000e+000 -8.020838e-001
      outer loop
         vertex 3.750000e-002 1.064012e+000 -6.495190e-002
         vertex 4.820907e-002 1.100000e+000 -5.745333e-002
         vertex 4.820907e-002 1.068324e+000 -5.745333e-002
      endloop
   endfacet
   facet normal 6.861938e-001 0.000000e+000 -7.274188e-001
      outer loop
         vertex 4.820907e-002 1.068324e+000 -5.745333e-002
         vertex 4.820907e-002 1.100000e+000 -5.745333e-002
         vertex 5.745333e-002 1.100000e+000 -4.820907e-002
      endloop
   endfacet
   facet normal 7.274188e-001 0.000000e+000 -6.861938e-001
      outer loop
         vertex 4.820907e-002 1.068324e+000 -5.745333e-002
         vertex 5.745333e-002 1.100000e+000 -4.820907e-002
         vertex 5.745333e-002 1.072920e+000 -4.820907e-002
      endloop
   endfacet
   facet normal 8.020838e-001 0.000000e+000 -5.972114e-001
      outer loop
         vertex 5.745333e-002 1.072920e+000 -4.820907e-002
         vertex 5.745333e-002 1.100000e+000 -4.820907e-002
         vertex 6.495190e-002 1.100000e+000 -3.750000e-002
      endloop
   endfacet
   facet normal 8.355240e-001 0.000000e+000 -5.494540e-001
      outer loop
         vertex 5.745333e-002 1.072920e+000 -4.820907e-002
         vertex 6.495190e-002 1.100000e+000 -3.750000e-002
         vertex 6.495190e-002 1.077660e+000 -3.750000e-002
      endloop
   endfacet
   facet normal 8.936031e-001 0.000000e+000 -4.488580e-001
      outer loop
         vertex 6.495190e-002 1.077660e+000 -3.750000e-002
         vertex 6.495190e-002 1.100000e+000 -3.750000e-002
         vertex 7.047695e-002 1.100000e+000 -2.565151e-002
      endloop
   endfacet
   facet normal 9.182422e-001 0.000000e+000 -3.960194e-001
      outer loop
         vertex 6.495190e-002 1.077660e+000 -3.750000e-002
         vertex 7.047695e-002 1.100000e+000 -2.565151e-002
         vertex 7.047695e-002 1.082401e+000 -2.565151e-002
      endloop
   endfacet
   facet normal 9.579706e-001 0.000000e+000 -2.868663e-001
      outer loop
         vertex 7.047695e-002 1.082401e+000 -2.565151e-002
         vertex 7.047695e-002 1.100000e+000 -2.565151e-002
         vertex 7.386058e-002 1.100000e+000 -1.302361e-002
      endloop
   endfacet
   facet normal 9.730600e-001 0.000000e+000 -2.305519e-001
      outer loop
         vertex 7.047695e-002 1.082401e+000 -2.565151e-002
         vertex 7.386058e-002 1.100000e+000 -1.302361e-002
         vertex 7.386058e-002 1.086997e+000 -1.302361e-002
      endloop
   endfacet
   facet normal 9.927686e-001 0.000000e+000 -1.200432e-001
      outer loop
         vertex 7.386058e-002 1.086997e+000 -1.302361e-002
         vertex 7.386058e-002 1.100000e+000 -1.302361e-002
         vertex 7.499480e-002 1.091030e+000 -8.830528e-004
      endloop
   endfacet
   facet normal 9.980759e-001 0.000000e+000 -6.200391e-002
      outer loop
         vertex 7.499480e-002 1.091030e+000 -8.830528e-004
         vertex 7.386058e-002 1.100000e+000 -1.302361e-002
         vertex 7.500000e-002 1.100000e+000 -4.592426e-018
      endloop
   endfacet
   facet normal 9.999923e-001 0.000000e+000 -3.924768e-003
      outer loop
         vertex 7.499480e-002 1.091030e+000 -8.830528e-004
         vertex 7.500000e-002 1.100000e+000 -4.592426e-018
         vertex 7.499357e-002 1.088931e+000 -6.463474e-009
      endloop
   endfacet
   facet normal 9.980174e-001 0.000000e+000 6.293795e-002
      outer loop
         vertex 7.500000e-002 1.085988e+000 -4.592426e-018
         vertex 7.499203e-002 1.086332e+000 1.093200e-003
         vertex 7.386058e-002 1.050000e+000 1.302361e-002
      endloop
   endfacet
   facet normal 6.003449e-001 0.000000e+000 -7.997413e-001
      outer loop
         vertex 3.826215e-002 1.058970e+000 -6.450588e-002
         vertex 4.820907e-002 1.063003e+000 -5.745333e-002
         vertex 4.820907e-002 1.050000e+000 -5.745333e-002
      endloop
   endfacet
   facet normal 6.861938e-001 0.000000e+000 -7.274188e-001
      outer loop
         vertex 4.820907e-002 1.050000e+000 -5.745333e-002
         vertex 4.820907e-002 1.063003e+000 -5.745333e-002
         vertex 5.745333e-002 1.067599e+000 -4.820907e-002
      endloop
   endfacet
   facet normal 7.274188e-001 0.000000e+000 -6.861938e-001
      outer loop
         vertex 4.820907e-002 1.050000e+000 -5.745333e-002
         vertex 5.745333e-002 1.067599e+000 -4.820907e-002
         vertex 5.745333e-002 1.050000e+000 -4.820907e-002
      endloop
   endfacet
   facet normal 8.020838e-001 0.000000e+000 -5.972114e-001
      outer loop
         vertex 5.745333e-002 1.050000e+000 -4.820907e-002
         vertex 5.745333e-002 1.067599e+000 -4.820907e-002
         vertex 6.495190e-002 1.072340e+000 -3.750000e-002
      endloop
   endfacet
   facet normal 8.355240e-001 0.000000e+000 -5.494540e-001
      outer loop
         vertex 5.745333e-002 1.050000e+000 -4.820907e-002
         vertex 6.495190e-002 1.072340e+000 -3.750000e-002
         vertex 6.495190e-002 1.050000e+000 -3.750000e-002
      endloop
   endfacet
   facet normal 8.936031e-001 0.000000e+000 -4.488580e-001
      outer loop
         vertex 6.495190e-002 1.050000e+000 -3.750000e-002
         vertex 6.495190e-002 1.072340e+000 -3.750000e-002
         vertex 7.047695e-002 1.077080e+000 -2.565151e-002
      endloop
   endfacet
   facet normal 9.182422e-001 0.000000e+000 -3.960194e-001
      outer loop
         vertex 6.495190e-002 1.050000e+000 -3.750000e-002
         vertex 7.047695e-002 1.077080e+000 -2.565151e-002
         vertex 7.047695e-002 1.050000e+000 -2.565151e-002
      endloop
   endfacet
   facet normal 9.579706e-001 0.000000e+000 -2.868663e-001
      outer loop
         vertex 7.047695e-002 1.050000e+000 -2.565151e-002
         vertex 7.047695e-002 1.077080e+000 -2.565151e-002
         vertex 7.386058e-002 1.081676e+000 -1.302361e-002
      endloop
   endfacet
   facet normal 9.730600e-001 0.000000e+000 -2.305519e-001
      outer loop
         vertex 7.047695e-002 1.050000e+000 -2.565151e-002
         vertex 7.386058e-002 1.081676e+000 -1.302361e-002
         vertex 7.386058e-002 1.050000e+000 -1.302361e-002
      endloop
   endfacet
   facet normal 9.932307e-001 0.000000e+000 -1.161583e-001
      outer loop
         vertex 7.386058e-002 1.050000e+000 -1.302361e-002
         vertex 7.386058e-002 1.081676e+000 -1.302361e-002
         vertex 7.500000e-002 1.085988e+000 -4.592426e-018
      endloop
   endfacet
   facet normal 9.983119e-001 0.000000e+000 -5.807913e-002
      outer loop
         vertex 7.386058e-002 1.050000e+000 -1.302361e-002
         vertex 7.500000e-002 1.085988e+000 -4.592426e-018
         vertex 7.500000e-002 1.050000e+000 -4.592426e-018
      endloop
   endfacet
   facet normal 9.983119e-001 0.000000e+000 5.807913e-002
      outer loop
         vertex 7.500000e-002 1.050000e+000 -4.592426e-018
         vertex 7.500000e-002 1.085988e+000 -4.592426e-018
         vertex 7.386058e-002 1.050000e+000 1.302361e-002
      endloop
   endfacet
   facet normal 4.453410e-001 0.000000e+000 8.953610e-001
      outer loop
         vertex 2.565151e-002 1.050000e+000 7.047695e-002
         vertex 3.750000e-002 1.050000e+000 6.495190e-002
         vertex 3.673266e-002 1.058970e+000 6.538893e-002
      endloop
   endfacet
   facet normal 5.535147e-001 0.000000e+000 8.328394e-001
      outer loop
         vertex 3.750000e-002 1.064012e+000 6.495190e-002
         vertex 3.844276e-002 1.063668e+000 6.439841e-002
         vertex 4.820907e-002 1.100000e+000 5.745333e-002
      endloop
   endfacet
   facet normal 5.494540e-001 0.000000e+000 8.355240e-001
      outer loop
         vertex 4.820907e-002 1.100000e+000 5.745333e-002
         vertex 3.750000e-002 1.100000e+000 6.495190e-002
         vertex 3.750000e-002 1.064012e+000 6.495190e-002
      endloop
   endfacet
   facet normal 4.488580e-001 0.000000e+000 8.936031e-001
      outer loop
         vertex 3.750000e-002 1.064012e+000 6.495190e-002
         vertex 3.750000e-002 1.100000e+000 6.495190e-002
         vertex 2.565151e-002 1.100000e+000 7.047695e-002
      endloop
   endfacet
   facet normal 3.960194e-001 0.000000e+000 9.182422e-001
      outer loop
         vertex 3.750000e-002 1.064012e+000 6.495190e-002
         vertex 2.565151e-002 1.100000e+000 7.047695e-002
         vertex 2.565151e-002 1.068324e+000 7.047695e-002
      endloop
   endfacet
   facet normal 2.868663e-001 0.000000e+000 9.579706e-001
      outer loop
         vertex 2.565151e-002 1.068324e+000 7.047695e-002
         vertex 2.565151e-002 1.100000e+000 7.047695e-002
         vertex 1.302361e-002 1.100000e+000 7.386058e-002
      endloop
   endfacet
   facet normal 2.305519e-001 0.000000e+000 9.730600e-001
      outer loop
         vertex 2.565151e-002 1.068324e+000 7.047695e-002
         vertex 1.302361e-002 1.100000e+000 7.386058e-002
         vertex 1.302361e-002 1.072920e+000 7.386058e-002
      endloop
   endfacet
   facet normal 1.161583e-001 0.000000e+000 9.932307e-001
      outer loop
         vertex 1.302361e-002 1.072920e+000 7.386058e-002
         vertex 1.302361e-002 1.100000e+000 7.386058e-002
         vertex 9.184851e-018 1.100000e+000 7.500000e-002
      endloop
   endfacet
   facet normal 5.807913e-002 0.000000e+000 9.983119e-001
      outer loop
         vertex 1.302361e-002 1.072920e+000 7.386058e-002
         vertex 9.184851e-018 1.100000e+000 7.500000e-002
         vertex 9.184851e-018 1.077660e+000 7.500000e-002
      endloop
   endfacet
   facet normal -5.807913e-002 0.000000e+000 9.983119e-001
      outer loop
         vertex 9.184851e-018 1.077660e+000 7.500000e-002
         vertex 9.184851e-018 1.100000e+000 7.500000e-002
         vertex -1.302361e-002 1.100000e+000 7.386058e-002
      endloop
   endfacet
   facet normal -1.161583e-001 0.000000e+000 9.932307e-001
      outer loop
         vertex 9.184851e-018 1.077660e+000 7.500000e-002
         vertex -1.302361e-002 1.100000e+000 7.386058e-002
         vertex -1.302361e-002 1.082401e+000 7.386058e-002
      endloop
   endfacet
   facet normal -2.305519e-001 0.000000e+000 9.730600e-001
      outer loop
         vertex -1.302361e-002 1.082401e+000 7.386058e-002
         vertex -1.302361e-002 1.100000e+000 7.386058e-002
         vertex -2.565151e-002 1.100000e+000 7.047695e-002
      endloop
   endfacet
   facet normal -2.868663e-001 0.000000e+000 9.579706e-001
      outer loop
         vertex -1.302361e-002 1.082401e+000 7.386058e-002
         vertex -2.565151e-002 1.100000e+000 7.047695e-002
         vertex -2.565151e-002 1.086997e+000 7.047695e-002
      endloop
   endfacet
   facet normal -3.924239e-001 0.000000e+000 9.197845e-001
      outer loop
         vertex -2.565151e-002 1.086997e+000 7.047695e-002
         vertex -2.565151e-002 1.100000e+000 7.047695e-002
         vertex -3.673266e-002 1.091030e+000 6.538893e-002
      endloop
   endfacet
   facet normal -4.453410e-001 0.000000e+000 8.953610e-001
      outer loop
         vertex -3.673266e-002 1.091030e+000 6.538893e-002
         vertex -2.565151e-002 1.100000e+000 7.047695e-002
         vertex -3.750000e-002 1.100000e+000 6.495190e-002
      endloop
   endfacet
   facet normal -4.965972e-001 0.000000e+000 8.679811e-001
      outer loop
         vertex -3.673266e-002 1.091030e+000 6.538893e-002
         vertex -3.750000e-002 1.100000e+000 6.495190e-002
         vertex -3.749678e-002 1.088931e+000 6.494633e-002
      endloop
   endfacet
   facet normal -5.535147e-001 0.000000e+000 8.328394e-001
      outer loop
         vertex -3.750000e-002 1.085988e+000 6.495190e-002
         vertex -3.844276e-002 1.086332e+000 6.439841e-002
         vertex -4.820907e-002 1.050000e+000 5.745333e-002
      endloop
   endfacet
   facet normal 3.924239e-001 0.000000e+000 9.197845e-001
      outer loop
         vertex 3.673266e-002 1.058970e+000 6.538893e-002
         vertex 2.565151e-002 1.063003e+000 7.047695e-002
         vertex 2.565151e-002 1.050000e+000 7.047695e-002
      endloop
   endfacet
   facet normal 2.868663e-001 0.000000e+000 9.579706e-001
      outer loop
         vertex 2.565151e-002 1.050000e+000 7.047695e-002
         vertex 2.565151e-002 1.063003e+000 7.047695e-002
         vertex 1.302361e-002 1.067599e+000 7.386058e-002
      endloop
   endfacet
   facet normal 2.305519e-001 0.000000e+000 9.730600e-001
      outer loop
         vertex 2.565151e-002 1.050000e+000 7.047695e-002
         vertex 1.302361e-002 1.067599e+000 7.386058e-002
         vertex 1.302361e-002 1.050000e+000 7.386058e-002
      endloop
   endfacet
   facet normal 1.161583e-001 0.000000e+000 9.932307e-001
      outer loop
         vertex 1.302361e-002 1.050000e+000 7.386058e-002
         vertex 1.302361e-002 1.067599e+000 7.386058e-002
         vertex 9.184851e-018 1.072340e+000 7.500000e-002
      endloop
   endfacet
   facet normal 5.807913e-002 0.000000e+000 9.983119e-001
      outer loop
         vertex 1.302361e-002 1.050000e+000 7.386058e-002
         vertex 9.184851e-018 1.072340e+000 7.500000e-002
         vertex 9.184851e-018 1.050000e+000 7.500000e-002
      endloop
   endfacet
   facet normal -5.807913e-002 0.000000e+000 9.983119e-001
      outer loop
         vertex 9.184851e-018 1.050000e+000 7.500000e-002
         vertex 9.184851e-018 1.072340e+000 7.500000e-002
         vertex -1.302361e-002 1.077080e+000 7.386058e-002
      endloop
   endfacet
   facet normal -1.161583e-001 0.000000e+000 9.932307e-001
      outer loop
         vertex 9.184851e-018 1.050000e+000 7.500000e-002
         vertex -1.302361e-002 1.077080e+000 7.386058e-002
         vertex -1.302361e-002 1.050000e+000 7.386058e-002
      endloop
   endfacet
   facet normal -2.305519e-001 0.000000e+000 9.730600e-001
      outer loop
         vertex -1.302361e-002 1.050000e+000 7.386058e-002
         vertex -1.302361e-002 1.077080e+000 7.386058e-002
         vertex -2.565151e-002 1.081676e+000 7.047695e-002
      endloop
   endfacet
   facet normal -2.868663e-001 0.000000e+000 9.579706e-001
      outer loop
         vertex -1.302361e-002 1.050000e+000 7.386058e-002
         vertex -2.565151e-002 1.081676e+000 7.047695e-002
         vertex -2.565151e-002 1.050000e+000 7.047695e-002
      endloop
   endfacet
   facet normal -3.960194e-001 0.000000e+000 9.182422e-001
      outer loop
         vertex -2.565151e-002 1.050000e+000 7.047695e-002
         vertex -2.565151e-002 1.081676e+000 7.047695e-002
         vertex -3.750000e-002 1.085988e+000 6.495190e-002
      endloop
   endfacet
   facet normal -4.488580e-001 0.000000e+000 8.936031e-001
      outer loop
         vertex -2.565151e-002 1.050000e+000 7.047695e-002
         vertex -3.750000e-002 1.085988e+000 6.495190e-002
         vertex -3.750000e-002 1.050000e+000 6.495190e-002
      endloop
   endfacet
   facet normal -5.494540e-001 0.000000e+000 8.355240e-001
      outer loop
         vertex -3.750000e-002 1.050000e+000 6.495190e-002
         vertex -3.750000e-002 1.085988e+000 6.495190e-002
         vertex -4.820907e-002 1.050000e+000 5.745333e-002
      endloop
   endfacet
   facet normal -9.980759e-001 0.000000e+000 -6.200391e-002
      outer loop
         vertex -7.386058e-002 1.050000e+000 -1.302361e-002
         vertex -7.500000e-002 1.050000e+000 1.377728e-017
         vertex -7.499480e-002 1.058970e+000 -8.830528e-004
      endloop
   endfacet
   facet normal -9.980174e-001 0.000000e+000 6.293795e-002
      outer loop
         vertex -7.500000e-002 1.064012e+000 1.377728e-017
         vertex -7.499203e-002 1.063668e+000 1.093200e-003
         vertex -7.386058e-002 1.100000e+000 1.302361e-002
      endloop
   endfacet
   facet normal -9.983119e-001 0.000000e+000 5.807913e-002
      outer loop
         vertex -7.386058e-002 1.100000e+000 1.302361e-002
         vertex -7.500000e-002 1.100000e+000 1.377728e-017
         vertex -7.500000e-002 1.064012e+000 1.377728e-017
      endloop
   endfacet
   facet normal -9.983119e-001 0.000000e+000 -5.807913e-002
      outer loop
         vertex -7.500000e-002 1.064012e+000 1.377728e-017
         vertex -7.500000e-002 1.100000e+000 1.377728e-017
         vertex -7.386058e-002 1.100000e+000 -1.302361e-002
      endloop
   endfacet
   facet normal -9.932307e-001 0.000000e+000 -1.161583e-001
      outer loop
         vertex -7.500000e-002 1.064012e+000 1.377728e-017
         vertex -7.386058e-002 1.100000e+000 -1.302361e-002
         vertex -7.386058e-002 1.068324e+000 -1.302361e-002
      endloop
   endfacet
   facet normal -9.730600e-001 0.000000e+000 -2.305519e-001
      outer loop
         vertex -7.386058e-002 1.068324e+000 -1.302361e-002
         vertex -7.386058e-002 1.100000e+000 -1.302361e-002
         vertex -7.047695e-002 1.100000e+000 -2.565151e-002
      endloop
   endfacet
   facet normal -9.579706e-001 0.000000e+000 -2.868663e-001
      outer loop
         vertex -7.386058e-002 1.068324e+000 -1.302361e-002
         vertex -7.047695e-002 1.100000e+000 -2.565151e-002
         vertex -7.047695e-002 1.072920e+000 -2.565151e-002
      endloop
   endfacet
   facet normal -9.182422e-001 0.000000e+000 -3.960194e-001
      outer loop
         vertex -7.047695e-002 1.072920e+000 -2.565151e-002
         vertex -7.047695e-002 1.100000e+000 -2.565151e-002
         vertex -6.495190e-002 1.100000e+000 -3.750000e-002
      endloop
   endfacet
   facet normal -8.936031e-001 0.000000e+000 -4.488580e-001
      outer loop
         vertex -7.047695e-002 1.072920e+000 -2.565151e-002
         vertex -6.495190e-002 1.100000e+000 -3.750000e-002
         vertex -6.495190e-002 1.077660e+000 -3.750000e-002
      endloop
   endfacet
   facet normal -8.355240e-001 0.000000e+000 -5.494540e-001
      outer loop
         vertex -6.495190e-002 1.077660e+000 -3.750000e-002
         vertex -6.495190e-002 1.100000e+000 -3.750000e-002
         vertex -5.745333e-002 1.100000e+000 -4.820907e-002
      endloop
   endfacet
   facet normal -8.020838e-001 0.000000e+000 -5.972114e-001
      outer loop
         vertex -6.495190e-002 1.077660e+000 -3.750000e-002
         vertex -5.745333e-002 1.100000e+000 -4.820907e-002
         vertex -5.745333e-002 1.082401e+000 -4.820907e-002
      endloop
   endfacet
   facet normal -7.274188e-001 0.000000e+000 -6.861938e-001
      outer loop
         vertex -5.745333e-002 1.082401e+000 -4.820907e-002
         vertex -5.745333e-002 1.100000e+000 -4.820907e-002
         vertex -4.820907e-002 1.100000e+000 -5.745333e-002
      endloop
   endfacet
   facet normal -6.861938e-001 0.000000e+000 -7.274188e-001
      outer loop
         vertex -5.745333e-002 1.082401e+000 -4.820907e-002
         vertex -4.820907e-002 1.100000e+000 -5.745333e-002
         vertex -4.820907e-002 1.086997e+000 -5.745333e-002
      endloop
   endfacet
   facet normal -6.003449e-001 0.000000e+000 -7.997413e-001
      outer loop
         vertex -4.820907e-002 1.086997e+000 -5.745333e-002
         vertex -4.820907e-002 1.100000e+000 -5.745333e-002
         vertex -3.826215e-002 1.091030e+000 -6.450588e-002
      endloop
   endfacet
   facet normal -5.527349e-001 0.000000e+000 -8.333572e-001
      outer loop
         vertex -3.826215e-002 1.091030e+000 -6.450588e-002
         vertex -4.820907e-002 1.100000e+000 -5.745333e-002
         vertex -3.750000e-002 1.100000e+000 -6.495190e-002
      endloop
   endfacet
   facet normal -5.033950e-001 0.000000e+000 -8.640564e-001
      outer loop
         vertex -3.826215e-002 1.091030e+000 -6.450588e-002
         vertex -3.750000e-002 1.100000e+000 -6.495190e-002
         vertex -3.749679e-002 1.088931e+000 -6.494633e-002
      endloop
   endfacet
   facet normal -4.445028e-001 0.000000e+000 -8.957774e-001
      outer loop
         vertex -3.750000e-002 1.085988e+000 -6.495190e-002
         vertex -3.654928e-002 1.086332e+000 -6.549160e-002
         vertex -2.565151e-002 1.050000e+000 -7.047695e-002
      endloop
   endfacet
   facet normal -9.927686e-001 0.000000e+000 -1.200432e-001
      outer loop
         vertex -7.499480e-002 1.058970e+000 -8.830528e-004
         vertex -7.386058e-002 1.063003e+000 -1.302361e-002
         vertex -7.386058e-002 1.050000e+000 -1.302361e-002
      endloop
   endfacet
   facet normal -9.730600e-001 0.000000e+000 -2.305519e-001
      outer loop
         vertex -7.386058e-002 1.050000e+000 -1.302361e-002
         vertex -7.386058e-002 1.063003e+000 -1.302361e-002
         vertex -7.047695e-002 1.067599e+000 -2.565151e-002
      endloop
   endfacet
   facet normal -9.579706e-001 0.000000e+000 -2.868663e-001
      outer loop
         vertex -7.386058e-002 1.050000e+000 -1.302361e-002
         vertex -7.047695e-002 1.067599e+000 -2.565151e-002
         vertex -7.047695e-002 1.050000e+000 -2.565151e-002
      endloop
   endfacet
   facet normal -9.182422e-001 0.000000e+000 -3.960194e-001
      outer loop
         vertex -7.047695e-002 1.050000e+000 -2.565151e-002
         vertex -7.047695e-002 1.067599e+000 -2.565151e-002
         vertex -6.495190e-002 1.072340e+000 -3.750000e-002
      endloop
   endfacet
   facet normal -8.936031e-001 0.000000e+000 -4.488580e-001
      outer loop
         vertex -7.047695e-002 1.050000e+000 -2.565151e-002
         vertex -6.495190e-002 1.072340e+000 -3.750000e-002
         vertex -6.495190e-002 1.050000e+000 -3.750000e-002
      endloop
   endfacet
   facet normal -8.355240e-001 0.000000e+000 -5.494540e-001
      outer loop
         vertex -6.495190e-002 1.050000e+000 -3.750000e-002
         vertex -6.495190e-002 1.072340e+000 -3.750000e-002
         vertex -5.745333e-002 1.077080e+000 -4.820907e-002
      endloop
   endfacet
   facet normal -8.020838e-001 0.000000e+000 -5.972114e-001
      outer loop
         vertex -6.495190e-002 1.050000e+000 -3.750000e-002
         vertex -5.745333e-002 1.077080e+000 -4.820907e-002
         vertex -5.745333e-002 1.050000e+000 -4.820907e-002
      endloop
   endfacet
   facet normal -7.274188e-001 0.000000e+000 -6.861938e-001
      outer loop
         vertex -5.745333e-002 1.050000e+000 -4.820907e-002
         vertex -5.745333e-002 1.077080e+000 -4.820907e-002
         vertex -4.820907e-002 1.081676e+000 -5.745333e-002
      endloop
   endfacet
   facet normal -6.861938e-001 0.000000e+000 -7.274188e-001
      outer loop
         vertex -5.745333e-002 1.050000e+000 -4.820907e-002
         vertex -4.820907e-002 1.081676e+000 -5.745333e-002
         vertex -4.820907e-002 1.050000e+000 -5.745333e-002
      endloop
   endfacet
   facet normal -5.972114e-001 0.000000e+000 -8.020838e-001
      outer loop
         vertex -4.820907e-002 1.050000e+000 -5.745333e-002
         vertex -4.820907e-002 1.081676e+000 -5.745333e-002
         vertex -3.750000e-002 1.085988e+000 -6.495190e-002
      endloop
   endfacet
   facet normal -5.494540e-001 0.000000e+000 -8.355240e-001
      outer loop
         vertex -4.820907e-002 1.050000e+000 -5.745333e-002
         vertex -3.750000e-002 1.085988e+000 -6.495190e-002
         vertex -3.750000e-002 1.050000e+000 -6.495190e-002
      endloop
   endfacet
   facet normal -4.488580e-001 0.000000e+000 -8.936031e-001
      outer loop
         vertex -3.750000e-002 1.050000e+000 -6.495190e-002
         vertex -3.750000e-002 1.085988e+000 -6.495190e-002
         vertex -2.565151e-002 1.050000e+000 -7.047695e-002
      endloop
   endfacet
   facet normal -5.042019e-001 0.000000e+000 8.635858e-001
      outer loop
         vertex -3.749678e-002 1.088931e+000 6.494633e-002
         vertex -3.750000e-002 1.100000e+000 6.495190e-002
         vertex -3.844276e-002 1.086332e+000 6.439841e-002
      endloop
   endfacet
   facet normal -5.535147e-001 0.000000e+000 8.328394e-001
      outer loop
         vertex -3.844276e-002 1.086332e+000 6.439841e-002
         vertex -3.750000e-002 1.100000e+000 6.495190e-002
         vertex -4.820907e-002 1.100000e+000 5.745333e-002
      endloop
   endfacet
   facet normal -6.010894e-001 0.000000e+000 7.991818e-001
      outer loop
         vertex -3.844276e-002 1.086332e+000 6.439841e-002
         vertex -4.820907e-002 1.100000e+000 5.745333e-002
         vertex -4.820907e-002 1.050000e+000 5.745333e-002
      endloop
   endfacet
   facet normal -6.861938e-001 0.000000e+000 7.274188e-001
      outer loop
         vertex -4.820907e-002 1.050000e+000 5.745333e-002
         vertex -4.820907e-002 1.100000e+000 5.745333e-002
         vertex -5.745333e-002 1.100000e+000 4.820907e-002
      endloop
   endfacet
   facet normal -7.274188e-001 0.000000e+000 6.861938e-001
      outer loop
         vertex -4.820907e-002 1.050000e+000 5.745333e-002
         vertex -5.745333e-002 1.100000e+000 4.820907e-002
         vertex -5.745333e-002 1.050000e+000 4.820907e-002
      endloop
   endfacet
   facet normal -8.020838e-001 0.000000e+000 5.972114e-001
      outer loop
         vertex -5.745333e-002 1.050000e+000 4.820907e-002
         vertex -5.745333e-002 1.100000e+000 4.820907e-002
         vertex -6.495190e-002 1.100000e+000 3.750000e-002
      endloop
   endfacet
   facet normal -8.355240e-001 0.000000e+000 5.494540e-001
      outer loop
         vertex -5.745333e-002 1.050000e+000 4.820907e-002
         vertex -6.495190e-002 1.100000e+000 3.750000e-002
         vertex -6.495190e-002 1.050000e+000 3.750000e-002
      endloop
   endfacet
   facet normal -8.936031e-001 0.000000e+000 4.488580e-001
      outer loop
         vertex -6.495190e-002 1.050000e+000 3.750000e-002
         vertex -6.495190e-002 1.100000e+000 3.750000e-002
         vertex -7.047695e-002 1.100000e+000 2.565151e-002
      endloop
   endfacet
   facet normal -9.182422e-001 0.000000e+000 3.960194e-001
      outer loop
         vertex -6.495190e-002 1.050000e+000 3.750000e-002
         vertex -7.047695e-002 1.100000e+000 2.565151e-002
         vertex -7.047695e-002 1.050000e+000 2.565151e-002
      endloop
   endfacet
   facet normal -9.579706e-001 0.000000e+000 2.868663e-001
      outer loop
         vertex -7.047695e-002 1.050000e+000 2.565151e-002
         vertex -7.047695e-002 1.100000e+000 2.565151e-002
         vertex -7.386058e-002 1.100000e+000 1.302361e-002
      endloop
   endfacet
   facet normal -9.730600e-001 0.000000e+000 2.305519e-001
      outer loop
         vertex -7.047695e-002 1.050000e+000 2.565151e-002
         vertex -7.386058e-002 1.100000e+000 1.302361e-002
         vertex -7.386058e-002 1.050000e+000 1.302361e-002
      endloop
   endfacet
   facet normal -9.926565e-001 0.000000e+000 1.209678e-001
      outer loop
         vertex -7.386058e-002 1.050000e+000 1.302361e-002
         vertex -7.386058e-002 1.100000e+000 1.302361e-002
         vertex -7.499203e-002 1.063668e+000 1.093200e-003
      endloop
   endfacet
   facet normal -9.980174e-001 0.000000e+000 6.293795e-002
      outer loop
         vertex -7.386058e-002 1.050000e+000 1.302361e-002
         vertex -7.499203e-002 1.063668e+000 1.093200e-003
         vertex -7.500000e-002 1.050000e+000 1.377728e-017
      endloop
   endfacet
   facet normal -9.999882e-001 0.000000e+000 4.858753e-003
      outer loop
         vertex -7.500000e-002 1.050000e+000 1.377728e-017
         vertex -7.499203e-002 1.063668e+000 1.093200e-003
         vertex -7.499357e-002 1.061069e+000 -6.463474e-009
      endloop
   endfacet
   facet normal -9.999923e-001 0.000000e+000 -3.924768e-003
      outer loop
         vertex -7.500000e-002 1.050000e+000 1.377728e-017
         vertex -7.499357e-002 1.061069e+000 -6.463474e-009
         vertex -7.499480e-002 1.058970e+000 -8.830528e-004
      endloop
   endfacet
   facet normal 9.999882e-001 0.000000e+000 4.858753e-003
      outer loop
         vertex 7.499357e-002 1.088931e+000 -6.463474e-009
         vertex 7.500000e-002 1.100000e+000 -4.592426e-018
         vertex 7.499203e-002 1.086332e+000 1.093200e-003
      endloop
   endfacet
   facet normal 9.980174e-001 0.000000e+000 6.293795e-002
      outer loop
         vertex 7.499203e-002 1.086332e+000 1.093200e-003
         vertex 7.500000e-002 1.100000e+000 -4.592426e-018
         vertex 7.386058e-002 1.100000e+000 1.302361e-002
      endloop
   endfacet
   facet normal 9.926565e-001 0.000000e+000 1.209678e-001
      outer loop
         vertex 7.499203e-002 1.086332e+000 1.093200e-003
         vertex 7.386058e-002 1.100000e+000 1.302361e-002
         vertex 7.386058e-002 1.050000e+000 1.302361e-002
      endloop
   endfacet
   facet normal 9.730600e-001 0.000000e+000 2.305519e-001
      outer loop
         vertex 7.386058e-002 1.050000e+000 1.302361e-002
         vertex 7.386058e-002 1.100000e+000 1.302361e-002
         vertex 7.047695e-002 1.100000e+000 2.565151e-002
      endloop
   endfacet
   facet normal 9.579706e-001 0.000000e+000 2.868663e-001
      outer loop
         vertex 7.386058e-002 1.050000e+000 1.302361e-002
         vertex 7.047695e-002 1.100000e+000 2.565151e-002
         vertex 7.047695e-002 1.050000e+000 2.565151e-002
      endloop
   endfacet
   facet normal 9.182422e-001 0.000000e+000 3.960194e-001
      outer loop
         vertex 7.047695e-002 1.050000e+000 2.565151e-002
         vertex 7.047695e-002 1.100000e+000 2.565151e-002
         vertex 6.495190e-002 1.100000e+000 3.750000e-002
      endloop
   endfacet
   facet normal 8.936031e-001 0.000000e+000 4.488580e-001
      outer loop
         vertex 7.047695e-002 1.050000e+000 2.565151e-002
         vertex 6.495190e-002 1.100000e+000 3.750000e-002
         vertex 6.495190e-002 1.050000e+000 3.750000e-002
      endloop
   endfacet
   facet normal 8.355240e-001 0.000000e+000 5.494540e-001
      outer loop
         vertex 6.495190e-002 1.050000e+000 3.750000e-002
         vertex 6.495190e-002 1.100000e+000 3.750000e-002
         vertex 5.745333e-002 1.100000e+000 4.820907e-002
      endloop
   endfacet
   facet normal 8.020838e-001 0.000000e+000 5.972114e-001
      outer loop
         vertex 6.495190e-002 1.050000e+000 3.750000e-002
         vertex 5.745333e-002 1.100000e+000 4.820907e-002
         vertex 5.745333e-002 1.050000e+000 4.820907e-002
      endloop
   endfacet
   facet normal 7.274188e-001 0.000000e+000 6.861938e-001
      outer loop
         vertex 5.745333e-002 1.050000e+000 4.820907e-002
         vertex 5.745333e-002 1.100000e+000 4.820907e-002
         vertex 4.820907e-002 1.100000e+000 5.745333e-002
      endloop
   endfacet
   facet normal 6.861938e-001 0.000000e+000 7.274188e-001
      outer loop
         vertex 5.745333e-002 1.050000e+000 4.820907e-002
         vertex 4.820907e-002 1.100000e+000 5.745333e-002
         vertex 4.820907e-002 1.050000e+000 5.745333e-002
      endloop
   endfacet
   facet normal 6.010894e-001 0.000000e+000 7.991818e-001
      outer loop
         vertex 4.820907e-002 1.050000e+000 5.745333e-002
         vertex 4.820907e-002 1.100000e+000 5.745333e-002
         vertex 3.844276e-002 1.063668e+000 6.439841e-002
      endloop
   endfacet
   facet normal 5.535146e-001 0.000000e+000 8.328394e-001
      outer loop
         vertex 4.820907e-002 1.050000e+000 5.745333e-002
         vertex 3.844276e-002 1.063668e+000 6.439841e-002
         vertex 3.750000e-002 1.050000e+000 6.495190e-002
      endloop
   endfacet
   facet normal 5.042019e-001 0.000000e+000 8.635858e-001
      outer loop
         vertex 3.750000e-002 1.050000e+000 6.495190e-002
         vertex 3.844276e-002 1.063668e+000 6.439841e-002
         vertex 3.749678e-002 1.061069e+000 6.494633e-002
      endloop
   endfacet
   facet normal 4.965972e-001 0.000000e+000 8.679811e-001
      outer loop
         vertex 3.750000e-002 1.050000e+000 6.495190e-002
         vertex 3.749678e-002 1.061069e+000 6.494633e-002
         vertex 3.673266e-002 1.058970e+000 6.538893e-002
      endloop
   endfacet
   facet normal -4.957863e-001 0.000000e+000 -8.684446e-001
      outer loop
         vertex -3.749679e-002 1.088931e+000 -6.494633e-002
         vertex -3.750000e-002 1.100000e+000 -6.495190e-002
         vertex -3.654928e-002 1.086332e+000 -6.549160e-002
      endloop
   endfacet
   facet normal -4.445028e-001 0.000000e+000 -8.957774e-001
      outer loop
         vertex -3.654928e-002 1.086332e+000 -6.549160e-002
         vertex -3.750000e-002 1.100000e+000 -6.495190e-002
         vertex -2.565151e-002 1.100000e+000 -7.047695e-002
      endloop
   endfacet
   facet normal -3.915671e-001 0.000000e+000 -9.201496e-001
      outer loop
         vertex -3.654928e-002 1.086332e+000 -6.549160e-002
         vertex -2.565151e-002 1.100000e+000 -7.047695e-002
         vertex -2.565151e-002 1.050000e+000 -7.047695e-002
      endloop
   endfacet
   facet normal -2.868663e-001 0.000000e+000 -9.579706e-001
      outer loop
         vertex -2.565151e-002 1.050000e+000 -7.047695e-002
         vertex -2.565151e-002 1.100000e+000 -7.047695e-002
         vertex -1.302361e-002 1.100000e+000 -7.386058e-002
      endloop
   endfacet
   facet normal -2.305519e-001 0.000000e+000 -9.730600e-001
      outer loop
         vertex -2.565151e-002 1.050000e+000 -7.047695e-002
         vertex -1.302361e-002 1.100000e+000 -7.386058e-002
         vertex -1.302361e-002 1.050000e+000 -7.386058e-002
      endloop
   endfacet
   facet normal -1.161583e-001 0.000000e+000 -9.932307e-001
      outer loop
         vertex -1.302361e-002 1.050000e+000 -7.386058e-002
         vertex -1.302361e-002 1.100000e+000 -7.386058e-002
         vertex 0.000000e+000 1.100000e+000 -7.500000e-002
      endloop
   endfacet
   facet normal -5.807913e-002 0.000000e+000 -9.983119e-001
      outer loop
         vertex -1.302361e-002 1.050000e+000 -7.386058e-002
         vertex 0.000000e+000 1.100000e+000 -7.500000e-002
         vertex 0.000000e+000 1.050000e+000 -7.500000e-002
      endloop
   endfacet
   facet normal 5.807913e-002 0.000000e+000 -9.983119e-001
      outer loop
         vertex 0.000000e+000 1.050000e+000 -7.500000e-002
         vertex 0.000000e+000 1.100000e+000 -7.500000e-002
         vertex 1.302361e-002 1.100000e+000 -7.386058e-002
      endloop
   endfacet
   facet normal 1.161583e-001 0.000000e+000 -9.932307e-001
      outer loop
         vertex 0.000000e+000 1.050000e+000 -7.500000e-002
         vertex 1.302361e-002 1.100000e+000 -7.386058e-002
         vertex 1.302361e-002 1.050000e+000 -7.386058e-002
      endloop
   endfacet
   facet normal 2.305519e-001 0.000000e+000 -9.730600e-001
      outer loop
         vertex 1.302361e-002 1.050000e+000 -7.386058e-002
         vertex 1.302361e-002 1.100000e+000 -7.386058e-002
         vertex 2.565151e-002 1.100000e+000 -7.047695e-002
      endloop
   endfacet
   facet normal 2.868663e-001 0.000000e+000 -9.579706e-001
      outer loop
         vertex 1.302361e-002 1.050000e+000 -7.386058e-002
         vertex 2.565151e-002 1.100000e+000 -7.047695e-002
         vertex 2.565151e-002 1.050000e+000 -7.047695e-002
      endloop
   endfacet
   facet normal 3.915671e-001 0.000000e+000 -9.201496e-001
      outer loop
         vertex 2.565151e-002 1.050000e+000 -7.047695e-002
         vertex 2.565151e-002 1.100000e+000 -7.047695e-002
         vertex 3.654928e-002 1.063668e+000 -6.549160e-002
      endloop
   endfacet
   facet normal 4.445028e-001 0.000000e+000 -8.957774e-001
      outer loop
         vertex 2.565151e-002 1.050000e+000 -7.047695e-002
         vertex 3.654928e-002 1.063668e+000 -6.549160e-002
         vertex 3.750000e-002 1.050000e+000 -6.495190e-002
      endloop
   endfacet
   facet normal 4.957863e-001 0.000000e+000 -8.684446e-001
      outer loop
         vertex 3.750000e-002 1.050000e+000 -6.495190e-002
         vertex 3.654928e-002 1.063668e+000 -6.549160e-002
         vertex 3.749679e-002 1.061069e+000 -6.494633e-002
      endloop
   endfacet
   facet normal 5.033950e-001 0.000000e+000 -8.640564e-001
      outer loop
         vertex 3.750000e-002 1.050000e+000 -6.495190e-002
         vertex 3.749679e-002 1.061069e+000 -6.494633e-002
         vertex 3.826215e-002 1.058970e+000 -6.450588e-002
      endloop
   endfacet
   facet normal 0.000000e+000 1.000000e+000 0.000000e+000
      outer loop
         vertex -2.565151e-002 1.100000e+000 7.047695e-002
         vertex -1.302361e-002 1.100000e+000 7.386058e-002
         vertex 0.000000e+000 1.100000e+000 0.000000e+000
      endloop
   endfacet
   facet normal 0.000000e+000 1.000000e+000 0.000000e+000
      outer loop
         vertex 0.000000e+000 1.100000e+000 0.000000e+000
         vertex -1.302361e-002 1.100000e+000 7.386058e-002
         vertex 9.184851e-018 1.100000e+000 7.500000e-002
      endloop
   endfacet
   facet normal 0.000000e+000 1.000000e+000 0.000000e+000
      outer loop
         vertex 0.000000e+000 1.100000e+000 0.000000e+000
         vertex 9.184851e-018 1.100000e+000 7.500000e-002
         vertex 1.302361e-002 1.100000e+000 7.386058e-002
      endloop
   endfacet
   facet normal 0.000000e+000 1.000000e+000 0.000000e+000
      outer loop
         vertex -5.745333e-002 1.100000e+000 4.820907e-002
         vertex -4.820907e-002 1.100000e+000 5.745333e-002
         vertex 0.000000e+000 1.100000e+000 0.000000e+000
      endloop
   endfacet
   facet normal 0.000000e+000 1.000000e+000 0.000000e+000
      outer loop
         vertex 0.000000e+000 1.100000e+000 0.000000e+000
         vertex -4.820907e-002 1.100000e+000 5.745333e-002
         vertex -3.750000e-002 1.100000e+000 6.495190e-002
      endloop
   endfacet
   facet normal 0.000000e+000 1.000000e+000 0.000000e+000
      outer loop
         vertex 0.000000e+000 1.100000e+000 0.000000e+000
         vertex -3.750000e-002 1.100000e+000 6.495190e-002
         vertex -2.565151e-002 1.100000e+000 7.047695e-002
      endloop
   endfacet
   facet normal 0.000000e+000 1.000000e+000 0.000000e+000
      outer loop
         vertex -7.386058e-002 1.100000e+000 1.302361e-002
         vertex -7.047695e-002 1.100000e+000 2.565151e-002
         vertex 0.000000e+000 1.100000e+000 0.000000e+000
      endloop
   endfacet
   facet normal 0.000000e+000 1.000000e+000 0.000000e+000
      outer loop
         vertex 0.000000e+000 1.100000e+000 0.000000e+000
         vertex -7.047695e-002 1.100000e+000 2.565151e-002
         vertex -6.495190e-002 1.100000e+000 3.750000e-002
      endloop
   endfacet
   facet normal 0.000000e+000 1.000000e+000 0.000000e+000
      outer loop
         vertex 0.000000e+000 1.100000e+000 0.000000e+000
         vertex -6.495190e-002 1.100000e+000 3.750000e-002
         vertex -5.745333e-002 1.100000e+000 4.820907e-002
      endloop
   endfacet
   facet normal 0.000000e+000 1.000000e+000 0.000000e+000
      outer loop
         vertex -7.047695e-002 1.100000e+000 -2.565151e-002
         vertex -7.386058e-002 1.100000e+000 -1.302361e-002
         vertex 0.000000e+000 1.100000e+000 0.000000e+000
      endloop
   endfacet
   facet normal 0.000000e+000 1.000000e+000 0.000000e+000
      outer loop
         vertex 0.000000e+000 1.100000e+000 0.000000e+000
         vertex -7.386058e-002 1.100000e+000 -1.302361e-002
         vertex -7.500000e-002 1.100000e+000 1.377728e-017
      endloop
   endfacet
   facet normal 0.000000e+000 1.000000e+000 0.000000e+000
      outer loop
         vertex 0.000000e+000 1.100000e+000 0.000000e+000
         vertex -7.500000e-002 1.100000e+000 1.377728e-017
         vertex -7.386058e-002 1.100000e+000 1.302361e-002
      endloop
   endfacet
   facet normal 0.000000e+000 1.000000e+000 0.000000e+000
      outer loop
         vertex -4.820907e-002 1.100000e+000 -5.745333e-002
         vertex -5.745333e-002 1.100000e+000 -4.820907e-002
         vertex 0.000000e+000 1.100000e+000 0.000000e+000
      endloop
   endfacet
   facet normal 0.000000e+000 1.000000e+000 0.000000e+000
      outer loop
         vertex 0.000000e+000 1.100000e+000 0.000000e+000
         vertex -5.745333e-002 1.100000e+000 -4.820907e-002
         vertex -6.495190e-002 1.100000e+000 -3.750000e-002
      endloop
   endfacet
   facet normal 0.000000e+000 1.000000e+000 0.000000e+000
      outer loop
         vertex 0.000000e+000 1.100000e+000 0.000000e+000
         vertex -6.495190e-002 1.100000e+000 -3.750000e-002
         vertex -7.047695e-002 1.100000e+000 -2.565151e-002
      endloop
   endfacet
   facet normal 0.000000e+000 1.000000e+000 0.000000e+000
      outer loop
         vertex -1.302361e-002 1.100000e+000 -7.386058e-002
         vertex -2.565151e-002 1.100000e+000 -7.047695e-002
         vertex 0.000000e+000 1.100000e+000 0.000000e+000
      endloop
   endfacet
   facet normal 0.000000e+000 1.000000e+000 0.000000e+000
      outer loop
         vertex 0.000000e+000 1.100000e+000 0.000000e+000
         vertex -2.565151e-002 1.100000e+000 -7.047695e-002
         vertex -3.750000e-002 1.100000e+000 -6.495190e-002
      endloop
   endfacet
   facet normal 0.000000e+000 1.000000e+000 0.000000e+000
      outer loop
         vertex 0.000000e+000 1.100000e+000 0.000000e+000
         vertex -3.750000e-002 1.100000e+000 -6.495190e-002
         vertex -4.820907e-002 1.100000e+000 -5.745333e-002
      endloop
   endfacet
   facet normal 0.000000e+000 1.000000e+000 0.000000e+000
      outer loop
         vertex 2.565151e-002 1.100000e+000 -7.047695e-002
         vertex 1.302361e-002 1.100000e+000 -7.386058e-002
         vertex 0.000000e+000 1.100000e+000 0.000000e+000
      endloop
   endfacet
   facet normal 0.000000e+000 1.000000e+000 0.000000e+000
      outer loop
         vertex 0.000000e+000 1.100000e+000 0.000000e+000
         vertex 1.302361e-002 1.100000e+000 -7.386058e-002
         vertex 0.000000e+000 1.100000e+000 -7.500000e-002
      endloop
   endfacet
   facet normal 0.000000e+000 1.000000e+000 0.000000e+000
      outer loop
         vertex 0.000000e+000 1.100000e+000 0.000000e+000
         vertex 0.000000e+000 1.100000e+000 -7.500000e-002
         vertex -1.302361e-002 1.100000e+000 -7.386058e-002
      endloop
   endfacet
   facet normal 0.000000e+000 1.000000e+000 0.000000e+000
      outer loop
         vertex 5.745333e-002 1.100000e+000 -4.820907e-002
         vertex 4.820907e-002 1.100000e+000 -5.745333e-002
         vertex 0.000000e+000 1.100000e+000 0.000000e+000
      endloop
   endfacet
   facet normal 0.000000e+000 1.000000e+000 0.000000e+000
      outer loop
         vertex 0.000000e+000 1.100000e+000 0.000000e+000
         vertex 4.820907e-002 1.100000e+000 -5.745333e-002
         vertex 3.750000e-002 1.100000e+000 -6.495190e-002
      endloop
   endfacet
   facet normal 0.000000e+000 1.000000e+000 0.000000e+000
      outer loop
         vertex 0.000000e+000 1.100000e+000 0.000000e+000
         vertex 3.750000e-002 1.100000e+000 -6.495190e-002
         vertex 2.565151e-002 1.100000e+000 -7.047695e-002
      endloop
   endfacet
   facet normal 0.000000e+000 1.000000e+000 0.000000e+000
      outer loop
         vertex 7.386058e-002 1.100000e+000 -1.302361e-002
         vertex 7.047695e-002 1.100000e+000 -2.565151e-002
         vertex 0.000000e+000 1.100000e+000 0.000000e+000
      endloop
   endfacet
   facet normal 0.000000e+000 1.000000e+000 0.000000e+000
      outer loop
         vertex 0.000000e+000 1.100000e+000 0.000000e+000
         vertex 7.047695e-002 1.100000e+000 -2.565151e-002
         vertex 6.495190e-002 1.100000e+000 -3.750000e-002
      endloop
   endfacet
   facet normal 0.000000e+000 1.000000e+000 0.000000e+000
      outer loop
         vertex 0.000000e+000 1.100000e+000 0.000000e+000
         vertex 6.495190e-002 1.100000e+000 -3.750000e-002
         vertex 5.745333e-002 1.100000e+000 -4.820907e-002
      endloop
   endfacet
   facet normal 0.000000e+000 1.000000e+000 0.000000e+000
      outer loop
         vertex 7.047695e-002 1.100000e+000 2.565151e-002
         vertex 7.386058e-002 1.100000e+000 1.302361e-002
         vertex 0.000000e+000 1.100000e+000 0.000000e+000
      endloop
   endfacet
   facet normal 0.000000e+000 1.000000e+000 0.000000e+000
      outer loop
         vertex 0.000000e+000 1.100000e+000 0.000000e+000
         vertex 7.386058e-002 1.100000e+000 1.302361e-002
         vertex 7.500000e-002 1.100000e+000 -4.592426e-018
      endloop
   endfacet
   facet normal 0.000000e+000 1.000000e+000 0.000000e+000
      outer loop
         vertex 0.000000e+000 1.100000e+000 0.000000e+000
         vertex 7.500000e-002 1.100000e+000 -4.592426e-018
         vertex 7.386058e-002 1.100000e+000 -1.302361e-002
      endloop
   endfacet
   facet normal 0.000000e+000 1.000000e+000 0.000000e+000
      outer loop
         vertex 4.820907e-002 1.100000e+000 5.745333e-002
         vertex 5.745333e-002 1.100000e+000 4.820907e-002
         vertex 0.000000e+000 1.100000e+000 0.000000e+000
      endloop
   endfacet
   facet normal 0.000000e+000 1.000000e+000 0.000000e+000
      outer loop
         vertex 0.000000e+000 1.100000e+000 0.000000e+000
         vertex 5.745333e-002 1.100000e+000 4.820907e-002
         vertex 6.495190e-002 1.100000e+000 3.750000e-002
      endloop
   endfacet
   facet normal 0.000000e+000 1.000000e+000 0.000000e+000
      outer loop
         vertex 0.000000e+000 1.100000e+000 0.000000e+000
         vertex 6.495190e-002 1.100000e+000 3.750000e-002
         vertex 7.047695e-002 1.100000e+000 2.565151e-002
      endloop
   endfacet
   facet normal 0.000000e+000 1.000000e+000 0.000000e+000
      outer loop
         vertex 1.302361e-002 1.100000e+000 7.386058e-002
         vertex 2.565151e-002 1.100000e+000 7.047695e-002
         vertex 0.000000e+000 1.100000e+000 0.000000e+000
      endloop
   endfacet
   facet normal 0.000000e+000 1.000000e+000 0.000000e+000
      outer loop
         vertex 0.000000e+000 1.100000e+000 0.000000e+000
         vertex 2.565151e-002 1.100000e+000 7.047695e-002
         vertex 3.750000e-002 1.100000e+000 6.495190e-002
      endloop
   endfacet
   facet normal 0.000000e+000 1.000000e+000 0.000000e+000
      outer loop
         vertex 0.000000e+000 1.100000e+000 0.000000e+000
         vertex 3.750000e-002 1.100000e+000 6.495190e-002
         vertex 4.820907e-002 1.100000e+000 5.745333e-002
      endloop
   endfacet
   facet normal 0.000000e+000 -1.000000e+000 0.000000e+000
      outer loop
         vertex 2.565151e-002 1.050000e+000 7.047695e-002
         vertex 1.302361e-002 1.050000e+000 7.386058e-002
         vertex 0.000000e+000 1.050000e+000 0.000000e+000
      endloop
   endfacet
   facet normal 0.000000e+000 -1.000000e+000 0.000000e+000
      outer loop
         vertex 0.000000e+000 1.050000e+000 0.000000e+000
         vertex 1.302361e-002 1.050000e+000 7.386058e-002
         vertex 2.755455e-017 1.050000e+000 7.500000e-002
      endloop
   endfacet
   facet normal 0.000000e+000 -1.000000e+000 0.000000e+000
      outer loop
         vertex 0.000000e+000 1.050000e+000 0.000000e+000
         vertex 2.755455e-017 1.050000e+000 7.500000e-002
         vertex -1.302361e-002 1.050000e+000 7.386058e-002
      endloop
   endfacet
   facet normal 0.000000e+000 -1.000000e+000 0.000000e+000
      outer loop
         vertex 5.745333e-002 1.050000e+000 4.820907e-002
         vertex 4.820907e-002 1.050000e+000 5.745333e-002
         vertex 0.000000e+000 1.050000e+000 0.000000e+000
      endloop
   endfacet
   facet normal 0.000000e+000 -1.000000e+000 0.000000e+000
      outer loop
         vertex 0.000000e+000 1.050000e+000 0.000000e+000
         vertex 4.820907e-002 1.050000e+000 5.745333e-002
         vertex 3.750000e-002 1.050000e+000 6.495190e-002
      endloop
   endfacet
   facet normal 0.000000e+000 -1.000000e+000 0.000000e+000
      outer loop
         vertex 0.000000e+000 1.050000e+000 0.000000e+000
         vertex 3.750000e-002 1.050000e+000 6.495190e-002
         vertex 2.565151e-002 1.050000e+000 7.047695e-002
      endloop
   endfacet
   facet normal 0.000000e+000 -1.000000e+000 0.000000e+000
      outer loop
         vertex 7.386058e-002 1.050000e+000 1.302361e-002
         vertex 7.047695e-002 1.050000e+000 2.565151e-002
         vertex 0.000000e+000 1.050000e+000 0.000000e+000
      endloop
   endfacet
   facet normal 0.000000e+000 -1.000000e+000 0.000000e+000
      outer loop
         vertex 0.000000e+000 1.050000e+000 0.000000e+000
         vertex 7.047695e-002 1.050000e+000 2.565151e-002
         vertex 6.495190e-002 1.050000e+000 3.750000e-002
      endloop
   endfacet
   facet normal 0.000000e+000 -1.000000e+000 0.000000e+000
      outer loop
         vertex 0.000000e+000 1.050000e+000 0.000000e+000
         vertex 6.495190e-002 1.050000e+000 3.750000e-002
         vertex 5.745333e-002 1.050000e+000 4.820907e-002
      endloop
   endfacet
   facet normal 0.000000e+000 -1.000000e+000 0.000000e+000
      outer loop
         vertex 7.047695e-002 1.050000e+000 -2.565151e-002
         vertex 7.386058e-002 1.050000e+000 -1.302361e-002
         vertex 0.000000e+000 1.050000e+000 0.000000e+000
      endloop
   endfacet
   facet normal 0.000000e+000 -1.000000e+000 0.000000e+000
      outer loop
         vertex 0.000000e+000 1.050000e+000 0.000000e+000
         vertex 7.386058e-002 1.050000e+000 -1.302361e-002
         vertex 7.500000e-002 1.050000e+000 -4.592426e-018
      endloop
   endfacet
   facet normal 0.000000e+000 -1.000000e+000 0.000000e+000
      outer loop
         vertex 0.000000e+000 1.050000e+000 0.000000e+000
         vertex 7.500000e-002 1.050000e+000 -4.592426e-018
         vertex 7.386058e-002 1.050000e+000 1.302361e-002
      endloop
   endfacet
   facet normal 0.000000e+000 -1.000000e+000 0.000000e+000
      outer loop
         vertex 4.820907e-002 1.050000e+000 -5.745333e-002
         vertex 5.745333e-002 1.050000e+000 -4.820907e-002
         vertex 0.000000e+000 1.050000e+000 0.000000e+000
      endloop
   endfacet
   facet normal 0.000000e+000 -1.000000e+000 0.000000e+000
      outer loop
         vertex 0.000000e+000 1.050000e+000 0.000000e+000
         vertex 5.745333e-002 1.050000e+000 -4.820907e-002
         vertex 6.495190e-002 1.050000e+000 -3.750000e-002
      endloop
   endfacet
   facet normal 0.000000e+000 -1.000000e+000 0.000000e+000
      outer loop
         vertex 0.000000e+000 1.050000e+000 0.000000e+000
         vertex 6.495190e-002 1.050000e+000 -3.750000e-002
         vertex 7.047695e-002 1.050000e+000 -2.565151e-002
      endloop
   endfacet
   facet normal 0.000000e+000 -1.000000e+000 0.000000e+000
      outer loop
         vertex 1.302361e-002 1.050000e+000 -7.386058e-002
         vertex 2.565151e-002 1.050000e+000 -7.047695e-002
         vertex 0.000000e+000 1.050000e+000 0.000000e+000
      endloop
   endfacet
   facet normal 0.000000e+000 -1.000000e+000 0.000000e+000
      outer loop
         vertex 0.000000e+000 1.050000e+000 0.000000e+000
         vertex 2.565151e-002 1.050000e+000 -7.047695e-002
         vertex 3.750000e-002 1.050000e+000 -6.495190e-002
      endloop
   endfacet
   facet normal 0.000000e+000 -1.000000e+000 0.000000e+000
      outer loop
         vertex 0.000000e+000 1.050000e+000 0.000000e+000
         vertex 3.750000e-002 1.050000e+000 -6.495190e-002
         vertex 4.820907e-002 1.050000e+000 -5.745333e-002
      endloop
   endfacet
   facet normal 0.000000e+000 -1.000000e+000 0.000000e+000
      outer loop
         vertex -2.565151e-002 1.050000e+000 -7.047695e-002
         vertex -1.302361e-002 1.050000e+000 -7.386058e-002
         vertex 0.000000e+000 1.050000e+000 0.000000e+000
      endloop
   endfacet
   facet normal 0.000000e+000 -1.000000e+000 0.000000e+000
      outer loop
         vertex 0.000000e+000 1.050000e+000 0.000000e+000
         vertex -1.302361e-002 1.050000e+000 -7.386058e-002
         vertex 0.000000e+000 1.050000e+000 -7.500000e-002
      endloop
   endfacet
   facet normal 0.000000e+000 -1.000000e+000 0.000000e+000
      outer loop
         vertex 0.000000e+000 1.050000e+000 0.000000e+000
         vertex 0.000000e+000 1.050000e+000 -7.500000e-002
         vertex 1.302361e-002 1.050000e+000 -7.386058e-002
      endloop
   endfacet
   facet normal 0.000000e+000 -1.000000e+000 0.000000e+000
      outer loop
         vertex -5.745333e-002 1.050000e+000 -4.820907e-002
         vertex -4.820907e-002 1.050000e+000 -5.745333e-002
         vertex 0.000000e+000 1.050000e+000 0.000000e+000
      endloop
   endfacet
   facet normal 0.000000e+000 -1.000000e+000 0.000000e+000
      outer loop
         vertex 0.000000e+000 1.050000e+000 0.000000e+000
         vertex -4.820907e-002 1.050000e+000 -5.745333e-002
         vertex -3.750000e-002 1.050000e+000 -6.495190e-002
      endloop
   endfacet
   facet normal 0.000000e+000 -1.000000e+000 0.000000e+000
      outer loop
         vertex 0.000000e+000 1.050000e+000 0.000000e+000
         vertex -3.750000e-002 1.050000e+000 -6.495190e-002
         vertex -2.565151e-002 1.050000e+000 -7.047695e-002
      endloop
   endfacet
   facet normal 0.000000e+000 -1.000000e+000 0.000000e+000
      outer loop
         vertex -7.386058e-002 1.050000e+000 -1.302361e-002
         vertex -7.047695e-002 1.050000e+000 -2.565151e-002
         vertex 0.000000e+000 1.050000e+000 0.000000e+000
      endloop
   endfacet
   facet normal 0.000000e+000 -1.000000e+000 0.000000e+000
      outer loop
         vertex 0.000000e+000 1.050000e+000 0.000000e+000
         vertex -7.047695e-002 1.050000e+000 -2.565151e-002
         vertex -6.495190e-002 1.050000e+000 -3.750000e-002
      endloop
   endfacet
   facet normal 0.000000e+000 -1.000000e+000 0.000000e+000
      outer loop
         vertex 0.000000e+000 1.050000e+000 0.000000e+000
         vertex -6.495190e-002 1.050000e+000 -3.750000e-002
         vertex -5.745333e-002 1.050000e+000 -4.820907e-002
      endloop
   endfacet
   facet normal 0.000000e+000 -1.000000e+000 0.000000e+000
      outer loop
         vertex -7.047695e-002 1.050000e+000 2.565151e-002
         vertex -7.386058e-002 1.050000e+000 1.302361e-002
         vertex 0.000000e+000 1.050000e+000 0.000000e+000
      endloop
   endfacet
   facet normal 0.000000e+000 -1.000000e+000 0.000000e+000
      outer loop
         vertex 0.000000e+000 1.050000e+000 0.000000e+000
         vertex -7.386058e-002 1.050000e+000 1.302361e-002
         vertex -7.500000e-002 1.050000e+000 1.377728e-017
      endloop
   endfacet
   facet normal 0.000000e+000 -1.000000e+000 0.000000e+000
      outer loop
         vertex 0.000000e+000 1.050000e+000 0.000000e+000
         vertex -7.500000e-002 1.050000e+000 1.377728e-017
         vertex -7.386058e-002 1.050000e+000 -1.302361e-002
      endloop
   endfacet
   facet normal 0.000000e+000 -1.000000e+000 0.000000e+000
      outer loop
         vertex -4.820907e-002 1.050000e+000 5.745333e-002
         vertex -5.745333e-002 1.050000e+000 4.820907e-002
         vertex 0.000000e+000 1.050000e+000 0.000000e+000
      endloop
   endfacet
   facet normal 0.000000e+000 -1.000000e+000 0.000000e+000
      outer loop
         vertex 0.000000e+000 1.050000e+000 0.000000e+000
         vertex -5.745333e-002 1.050000e+000 4.820907e-002
         vertex -6.495190e-002 1.050000e+000 3.750000e-002
      endloop
   endfacet
   facet normal 0.000000e+000 -1.000000e+000 0.000000e+000
      outer loop
         vertex 0.000000e+000 1.050000e+000 0.000000e+000
         vertex -6.495190e-002 1.050000e+000 3.750000e-002
         vertex -7.047695e-002 1.050000e+000 2.565151e-002
      endloop
   endfacet
   facet normal 0.000000e+000 -1.000000e+000 0.000000e+000
      outer loop
         vertex -1.302361e-002 1.050000e+000 7.386058e-002
         vertex -2.565151e-002 1.050000e+000 7.047695e-002
         vertex 0.000000e+000 1.050000e+000 0.000000e+000
      endloop
   endfacet
   facet normal 0.000000e+000 -1.000000e+000 0.000000e+000
      outer loop
         vertex 0.000000e+000 1.050000e+000 0.000000e+000
         vertex -2.565151e-002 1.050000e+000 7.047695e-002
         vertex -3.750000e-002 1.050000e+000 6.495190e-002
      endloop
   endfacet
   facet normal 0.000000e+000 -1.000000e+000 0.000000e+000
      outer loop
         vertex 0.000000e+000 1.050000e+000 0.000000e+000
         vertex -3.750000e-002 1.050000e+000 6.495190e-002
         vertex -4.820907e-002 1.050000e+000 5.745333e-002
      endloop
   endfacet
   facet normal -3.420202e-001 -9.396927e-001 0.000000e+000
      outer loop
         vertex -3.844276e-002 1.086332e+000 5.000000e-001
         vertex -3.844276e-002 1.086332e+000 6.439841e-002
         vertex -3.750000e-002 1.085988e+000 6.495190e-002
      endloop
   endfacet
   facet normal -3.420202e-001 -9.396927e-001 0.000000e+000
      outer loop
         vertex 3.673266e-002 1.058970e+000 6.538893e-002
         vertex 3.673266e-002 1.058970e+000 5.000000e-001
         vertex 2.565151e-002 1.063003e+000 7.047695e-002
      endloop
   endfacet
   facet normal -3.420202e-001 -9.396927e-001 0.000000e+000
      outer loop
         vertex 2.565151e-002 1.063003e+000 7.047695e-002
         vertex 3.673266e-002 1.058970e+000 5.000000e-001
         vertex 1.302361e-002 1.067599e+000 7.386058e-002
      endloop
   endfacet
   facet normal -3.420202e-001 -9.396927e-001 0.000000e+000
      outer loop
         vertex -3.750000e-002 1.085988e+000 6.495190e-002
         vertex -2.565151e-002 1.081676e+000 7.047695e-002
         vertex -3.844276e-002 1.086332e+000 5.000000e-001
      endloop
   endfacet
   facet normal -3.420202e-001 -9.396927e-001 0.000000e+000
      outer loop
         vertex -3.844276e-002 1.086332e+000 5.000000e-001
         vertex -2.565151e-002 1.081676e+000 7.047695e-002
         vertex -1.302361e-002 1.077080e+000 7.386058e-002
      endloop
   endfacet
   facet normal -3.420202e-001 -9.396927e-001 0.000000e+000
      outer loop
         vertex -3.844276e-002 1.086332e+000 5.000000e-001
         vertex -1.302361e-002 1.077080e+000 7.386058e-002
         vertex 3.673266e-002 1.058970e+000 5.000000e-001
      endloop
   endfacet
   facet normal -3.420202e-001 -9.396927e-001 0.000000e+000
      outer loop
         vertex 3.673266e-002 1.058970e+000 5.000000e-001
         vertex -1.302361e-002 1.077080e+000 7.386058e-002
         vertex -2.081668e-017 1.072340e+000 7.500000e-002
      endloop
   endfacet
   facet normal -3.420202e-001 -9.396927e-001 0.000000e+000
      outer loop
         vertex 3.673266e-002 1.058970e+000 5.000000e-001
         vertex -2.081668e-017 1.072340e+000 7.500000e-002
         vertex 1.302361e-002 1.067599e+000 7.386058e-002
      endloop
   endfacet
   facet normal 9.396927e-001 -3.420202e-001 0.000000e+000
      outer loop
         vertex 3.844276e-002 1.063668e+000 6.439841e-002
         vertex 3.844276e-002 1.063668e+000 5.000000e-001
         vertex 3.749678e-002 1.061069e+000 6.494633e-002
      endloop
   endfacet
   facet normal 9.396927e-001 -3.420202e-001 0.000000e+000
      outer loop
         vertex 3.749678e-002 1.061069e+000 6.494633e-002
         vertex 3.844276e-002 1.063668e+000 5.000000e-001
         vertex 3.673266e-002 1.058970e+000 5.000000e-001
      endloop
   endfacet
   facet normal 9.396927e-001 -3.420202e-001 0.000000e+000
      outer loop
         vertex 3.749678e-002 1.061069e+000 6.494633e-002
         vertex 3.673266e-002 1.058970e+000 5.000000e-001
         vertex 3.673266e-002 1.058970e+000 6.538893e-002
      endloop
   endfacet
   facet normal 3.420202e-001 9.396927e-001 0.000000e+000
      outer loop
         vertex 3.844276e-002 1.063668e+000 5.000000e-001
         vertex 3.844276e-002 1.063668e+000 6.439841e-002
         vertex 3.750000e-002 1.064012e+000 6.495190e-002
      endloop
   endfacet
   facet normal 3.420202e-001 9.396927e-001 0.000000e+000
      outer loop
         vertex -3.673266e-002 1.091030e+000 6.538893e-002
         vertex -3.673266e-002 1.091030e+000 5.000000e-001
         vertex -2.565151e-002 1.086997e+000 7.047695e-002
      endloop
   endfacet
   facet normal 3.420202e-001 9.396927e-001 0.000000e+000
      outer loop
         vertex -2.565151e-002 1.086997e+000 7.047695e-002
         vertex -3.673266e-002 1.091030e+000 5.000000e-001
         vertex -1.302361e-002 1.082401e+000 7.386058e-002
      endloop
   endfacet
   facet normal 3.420202e-001 9.396927e-001 0.000000e+000
      outer loop
         vertex 3.750000e-002 1.064012e+000 6.495190e-002
         vertex 2.565151e-002 1.068324e+000 7.047695e-002
         vertex 3.844276e-002 1.063668e+000 5.000000e-001
      endloop
   endfacet
   facet normal 3.420202e-001 9.396927e-001 0.000000e+000
      outer loop
         vertex 3.844276e-002 1.063668e+000 5.000000e-001
         vertex 2.565151e-002 1.068324e+000 7.047695e-002
         vertex 1.302361e-002 1.072920e+000 7.386058e-002
      endloop
   endfacet
   facet normal 3.420202e-001 9.396927e-001 0.000000e+000
      outer loop
         vertex 3.844276e-002 1.063668e+000 5.000000e-001
         vertex 1.302361e-002 1.072920e+000 7.386058e-002
         vertex -3.673266e-002 1.091030e+000 5.000000e-001
      endloop
   endfacet
   facet normal 3.420202e-001 9.396927e-001 0.000000e+000
      outer loop
         vertex -3.673266e-002 1.091030e+000 5.000000e-001
         vertex 1.302361e-002 1.072920e+000 7.386058e-002
         vertex 6.938894e-018 1.077660e+000 7.500000e-002
      endloop
   endfacet
   facet normal 3.420202e-001 9.396927e-001 0.000000e+000
      outer loop
         vertex -3.673266e-002 1.091030e+000 5.000000e-001
         vertex 6.938894e-018 1.077660e+000 7.500000e-002
         vertex -1.302361e-002 1.082401e+000 7.386058e-002
      endloop
   endfacet
   facet normal -9.396927e-001 3.420202e-001 0.000000e+000
      outer loop
         vertex -3.844276e-002 1.086332e+000 6.439841e-002
         vertex -3.844276e-002 1.086332e+000 5.000000e-001
         vertex -3.749678e-002 1.088931e+000 6.494633e-002
      endloop
   endfacet
   facet normal -9.396927e-001 3.420202e-001 0.000000e+000
      outer loop
         vertex -3.749678e-002 1.088931e+000 6.494633e-002
         vertex -3.844276e-002 1.086332e+000 5.000000e-001
         vertex -3.673266e-002 1.091030e+000 5.000000e-001
      endloop
   endfacet
   facet normal -9.396927e-001 3.420202e-001 0.000000e+000
      outer loop
         vertex -3.749678e-002 1.088931e+000 6.494633e-002
         vertex -3.673266e-002 1.091030e+000 5.000000e-001
         vertex -3.673266e-002 1.091030e+000 6.538893e-002
      endloop
   endfacet
   facet normal 0.000000e+000 0.000000e+000 1.000000e+000
      outer loop
         vertex 3.844276e-002 1.063668e+000 5.000000e-001
         vertex -3.673266e-002 1.091030e+000 5.000000e-001
         vertex 3.673266e-002 1.058970e+000 5.000000e-001
      endloop
   endfacet
   facet normal 0.000000e+000 0.000000e+000 1.000000e+000
      outer loop
         vertex 3.673266e-002 1.058970e+000 5.000000e-001
         vertex -3.673266e-002 1.091030e+000 5.000000e-001
         vertex -3.844276e-002 1.086332e+000 5.000000e-001
      endloop
   endfacet
   facet normal 1.710101e-001 -9.396927e-001 -2.961981e-001
      outer loop
         vertex -4.137913e-001 1.086332e+000 -2.832924e-001
         vertex -3.654928e-002 1.086332e+000 -6.549160e-002
         vertex -3.750000e-002 1.085988e+000 -6.495190e-002
      endloop
   endfacet
   facet normal 1.710101e-001 -9.396927e-001 -2.961981e-001
      outer loop
         vertex -7.499480e-002 1.058970e+000 -8.830528e-004
         vertex -4.513790e-001 1.058970e+000 -2.181886e-001
         vertex -7.386058e-002 1.063003e+000 -1.302361e-002
      endloop
   endfacet
   facet normal 1.710101e-001 -9.396927e-001 -2.961981e-001
      outer loop
         vertex -7.386058e-002 1.063003e+000 -1.302361e-002
         vertex -4.513790e-001 1.058970e+000 -2.181886e-001
         vertex -7.047695e-002 1.067599e+000 -2.565151e-002
      endloop
   endfacet
   facet normal 1.710101e-001 -9.396927e-001 -2.961981e-001
      outer loop
         vertex -3.750000e-002 1.085988e+000 -6.495190e-002
         vertex -4.820907e-002 1.081676e+000 -5.745333e-002
         vertex -4.137913e-001 1.086332e+000 -2.832924e-001
      endloop
   endfacet
   facet normal 1.710101e-001 -9.396927e-001 -2.961981e-001
      outer loop
         vertex -4.137913e-001 1.086332e+000 -2.832924e-001
         vertex -4.820907e-002 1.081676e+000 -5.745333e-002
         vertex -5.745333e-002 1.077080e+000 -4.820907e-002
      endloop
   endfacet
   facet normal 1.710101e-001 -9.396927e-001 -2.961981e-001
      outer loop
         vertex -4.137913e-001 1.086332e+000 -2.832924e-001
         vertex -5.745333e-002 1.077080e+000 -4.820907e-002
         vertex -4.513790e-001 1.058970e+000 -2.181886e-001
      endloop
   endfacet
   facet normal 1.710101e-001 -9.396927e-001 -2.961981e-001
      outer loop
         vertex -4.513790e-001 1.058970e+000 -2.181886e-001
         vertex -5.745333e-002 1.077080e+000 -4.820907e-002
         vertex -6.495190e-002 1.072340e+000 -3.750000e-002
      endloop
   endfacet
   facet normal 1.710101e-001 -9.396927e-001 -2.961981e-001
      outer loop
         vertex -4.513790e-001 1.058970e+000 -2.181886e-001
         vertex -6.495190e-002 1.072340e+000 -3.750000e-002
         vertex -7.047695e-002 1.067599e+000 -2.565151e-002
      endloop
   endfacet
   facet normal -4.698463e-001 -3.420202e-001 8.137977e-001
      outer loop
         vertex -7.499203e-002 1.063668e+000 1.093200e-003
         vertex -4.522341e-001 1.063668e+000 -2.167076e-001
         vertex -7.499357e-002 1.061069e+000 -6.463474e-009
      endloop
   endfacet
   facet normal -4.698463e-001 -3.420202e-001 8.137977e-001
      outer loop
         vertex -7.499357e-002 1.061069e+000 -6.463474e-009
         vertex -4.522341e-001 1.063668e+000 -2.167076e-001
         vertex -4.513790e-001 1.058970e+000 -2.181886e-001
      endloop
   endfacet
   facet normal -4.698463e-001 -3.420202e-001 8.137977e-001
      outer loop
         vertex -7.499357e-002 1.061069e+000 -6.463474e-009
         vertex -4.513790e-001 1.058970e+000 -2.181886e-001
         vertex -7.499480e-002 1.058970e+000 -8.830528e-004
      endloop
   endfacet
   facet normal -1.710101e-001 9.396927e-001 2.961981e-001
      outer loop
         vertex -4.522341e-001 1.063668e+000 -2.167076e-001
         vertex -7.499203e-002 1.063668e+000 1.093200e-003
         vertex -7.500000e-002 1.064012e+000 1.665335e-016
      endloop
   endfacet
   facet normal -1.710101e-001 9.396927e-001 2.961981e-001
      outer loop
         vertex -3.826215e-002 1.091030e+000 -6.450588e-002
         vertex -4.146464e-001 1.091030e+000 -2.818114e-001
         vertex -4.820907e-002 1.086997e+000 -5.745333e-002
      endloop
   endfacet
   facet normal -1.710101e-001 9.396927e-001 2.961981e-001
      outer loop
         vertex -4.820907e-002 1.086997e+000 -5.745333e-002
         vertex -4.146464e-001 1.091030e+000 -2.818114e-001
         vertex -5.745333e-002 1.082401e+000 -4.820907e-002
      endloop
   endfacet
   facet normal -1.710101e-001 9.396927e-001 2.961981e-001
      outer loop
         vertex -7.500000e-002 1.064012e+000 1.665335e-016
         vertex -7.386058e-002 1.068324e+000 -1.302361e-002
         vertex -4.522341e-001 1.063668e+000 -2.167076e-001
      endloop
   endfacet
   facet normal -1.710101e-001 9.396927e-001 2.961981e-001
      outer loop
         vertex -4.522341e-001 1.063668e+000 -2.167076e-001
         vertex -7.386058e-002 1.068324e+000 -1.302361e-002
         vertex -7.047695e-002 1.072920e+000 -2.565151e-002
      endloop
   endfacet
   facet normal -1.710101e-001 9.396927e-001 2.961981e-001
      outer loop
         vertex -4.522341e-001 1.063668e+000 -2.167076e-001
         vertex -7.047695e-002 1.072920e+000 -2.565151e-002
         vertex -4.146464e-001 1.091030e+000 -2.818114e-001
      endloop
   endfacet
   facet normal -1.710101e-001 9.396927e-001 2.961981e-001
      outer loop
         vertex -4.146464e-001 1.091030e+000 -2.818114e-001
         vertex -7.047695e-002 1.072920e+000 -2.565151e-002
         vertex -6.495190e-002 1.077660e+000 -3.750000e-002
      endloop
   endfacet
   facet normal -1.710101e-001 9.396927e-001 2.961981e-001
      outer loop
         vertex -4.146464e-001 1.091030e+000 -2.818114e-001
         vertex -6.495190e-002 1.077660e+000 -3.750000e-002
         vertex -5.745333e-002 1.082401e+000 -4.820907e-002
      endloop
   endfacet
   facet normal 4.698463e-001 3.420202e-001 -8.137977e-001
      outer loop
         vertex -3.654928e-002 1.086332e+000 -6.549160e-002
         vertex -4.137913e-001 1.086332e+000 -2.832924e-001
         vertex -3.749679e-002 1.088931e+000 -6.494633e-002
      endloop
   endfacet
   facet normal 4.698463e-001 3.420202e-001 -8.137977e-001
      outer loop
         vertex -3.749679e-002 1.088931e+000 -6.494633e-002
         vertex -4.137913e-001 1.086332e+000 -2.832924e-001
         vertex -4.146464e-001 1.091030e+000 -2.818114e-001
      endloop
   endfacet
   facet normal 4.698463e-001 3.420202e-001 -8.137977e-001
      outer loop
         vertex -3.749679e-002 1.088931e+000 -6.494633e-002
         vertex -4.146464e-001 1.091030e+000 -2.818114e-001
         vertex -3.826215e-002 1.091030e+000 -6.450588e-002
      endloop
   endfacet
   facet normal -8.660254e-001 0.000000e+000 -5.000000e-001
      outer loop
         vertex -4.522341e-001 1.063668e+000 -2.167076e-001
         vertex -4.146464e-001 1.091030e+000 -2.818114e-001
         vertex -4.513790e-001 1.058970e+000 -2.181886e-001
      endloop
   endfacet
   facet normal -8.660254e-001 0.000000e+000 -5.000000e-001
      outer loop
         vertex -4.513790e-001 1.058970e+000 -2.181886e-001
         vertex -4.146464e-001 1.091030e+000 -2.818114e-001
         vertex -4.137913e-001 1.086332e+000 -2.832924e-001
      endloop
   endfacet
   facet normal 1.710101e-001 -9.396927e-001 2.961981e-001
      outer loop
         vertex 4.522341e-001 1.086332e+000 -2.167076e-001
         vertex 7.499203e-002 1.086332e+000 1.093200e-003
         vertex 7.500000e-002 1.085988e+000 5.551115e-017
      endloop
   endfacet
   facet normal 1.710101e-001 -9.396927e-001 2.961981e-001
      outer loop
         vertex 3.826215e-002 1.058970e+000 -6.450588e-002
         vertex 4.146464e-001 1.058970e+000 -2.818114e-001
         vertex 4.820907e-002 1.063003e+000 -5.745333e-002
      endloop
   endfacet
   facet normal 1.710101e-001 -9.396927e-001 2.961981e-001
      outer loop
         vertex 4.820907e-002 1.063003e+000 -5.745333e-002
         vertex 4.146464e-001 1.058970e+000 -2.818114e-001
         vertex 5.745333e-002 1.067599e+000 -4.820907e-002
      endloop
   endfacet
   facet normal 1.710101e-001 -9.396927e-001 2.961981e-001
      outer loop
         vertex 7.500000e-002 1.085988e+000 5.551115e-017
         vertex 7.386058e-002 1.081676e+000 -1.302361e-002
         vertex 4.522341e-001 1.086332e+000 -2.167076e-001
      endloop
   endfacet
   facet normal 1.710101e-001 -9.396927e-001 2.961981e-001
      outer loop
         vertex 4.522341e-001 1.086332e+000 -2.167076e-001
         vertex 7.386058e-002 1.081676e+000 -1.302361e-002
         vertex 7.047695e-002 1.077080e+000 -2.565151e-002
      endloop
   endfacet
   facet normal 1.710101e-001 -9.396927e-001 2.961981e-001
      outer loop
         vertex 4.522341e-001 1.086332e+000 -2.167076e-001
         vertex 7.047695e-002 1.077080e+000 -2.565151e-002
         vertex 4.146464e-001 1.058970e+000 -2.818114e-001
      endloop
   endfacet
   facet normal 1.710101e-001 -9.396927e-001 2.961981e-001
      outer loop
         vertex 4.146464e-001 1.058970e+000 -2.818114e-001
         vertex 7.047695e-002 1.077080e+000 -2.565151e-002
         vertex 6.495190e-002 1.072340e+000 -3.750000e-002
      endloop
   endfacet
   facet normal 1.710101e-001 -9.396927e-001 2.961981e-001
      outer loop
         vertex 4.146464e-001 1.058970e+000 -2.818114e-001
         vertex 6.495190e-002 1.072340e+000 -3.750000e-002
         vertex 5.745333e-002 1.067599e+000 -4.820907e-002
      endloop
   endfacet
   facet normal -4.698463e-001 -3.420202e-001 -8.137977e-001
      outer loop
         vertex 3.654928e-002 1.063668e+000 -6.549160e-002
         vertex 4.137913e-001 1.063668e+000 -2.832924e-001
         vertex 3.749679e-002 1.061069e+000 -6.494633e-002
      endloop
   endfacet
   facet normal -4.698463e-001 -3.420202e-001 -8.137977e-001
      outer loop
         vertex 3.749679e-002 1.061069e+000 -6.494633e-002
         vertex 4.137913e-001 1.063668e+000 -2.832924e-001
         vertex 4.146464e-001 1.058970e+000 -2.818114e-001
      endloop
   endfacet
   facet normal -4.698463e-001 -3.420202e-001 -8.137977e-001
      outer loop
         vertex 3.749679e-002 1.061069e+000 -6.494633e-002
         vertex 4.146464e-001 1.058970e+000 -2.818114e-001
         vertex 3.826215e-002 1.058970e+000 -6.450588e-002
      endloop
   endfacet
   facet normal -1.710101e-001 9.396927e-001 -2.961981e-001
      outer loop
         vertex 4.137913e-001 1.063668e+000 -2.832924e-001
         vertex 3.654928e-002 1.063668e+000 -6.549160e-002
         vertex 3.750000e-002 1.064012e+000 -6.495190e-002
      endloop
   endfacet
   facet normal -1.710101e-001 9.396927e-001 -2.961981e-001
      outer loop
         vertex 7.499480e-002 1.091030e+000 -8.830528e-004
         vertex 4.513790e-001 1.091030e+000 -2.181886e-001
         vertex 7.386058e-002 1.086997e+000 -1.302361e-002
      endloop
   endfacet
   facet normal -1.710101e-001 9.396927e-001 -2.961981e-001
      outer loop
         vertex 7.386058e-002 1.086997e+000 -1.302361e-002
         vertex 4.513790e-001 1.091030e+000 -2.181886e-001
         vertex 7.047695e-002 1.082401e+000 -2.565151e-002
      endloop
   endfacet
   facet normal -1.710101e-001 9.396927e-001 -2.961981e-001
      outer loop
         vertex 3.750000e-002 1.064012e+000 -6.495190e-002
         vertex 4.820907e-002 1.068324e+000 -5.745333e-002
         vertex 4.137913e-001 1.063668e+000 -2.832924e-001
      endloop
   endfacet
   facet normal -1.710101e-001 9.396927e-001 -2.961981e-001
      outer loop
         vertex 4.137913e-001 1.063668e+000 -2.832924e-001
         vertex 4.820907e-002 1.068324e+000 -5.745333e-002
         vertex 5.745333e-002 1.072920e+000 -4.820907e-002
      endloop
   endfacet
   facet normal -1.710101e-001 9.396927e-001 -2.961981e-001
      outer loop
         vertex 4.137913e-001 1.063668e+000 -2.832924e-001
         vertex 5.745333e-002 1.072920e+000 -4.820907e-002
         vertex 4.513790e-001 1.091030e+000 -2.181886e-001
      endloop
   endfacet
   facet normal -1.710101e-001 9.396927e-001 -2.961981e-001
      outer loop
         vertex 4.513790e-001 1.091030e+000 -2.181886e-001
         vertex 5.745333e-002 1.072920e+000 -4.820907e-002
         vertex 6.495190e-002 1.077660e+000 -3.750000e-002
      endloop
   endfacet
   facet normal -1.710101e-001 9.396927e-001 -2.961981e-001
      outer loop
         vertex 4.513790e-001 1.091030e+000 -2.181886e-001
         vertex 6.495190e-002 1.077660e+000 -3.750000e-002
         vertex 7.047695e-002 1.082401e+000 -2.565151e-002
      endloop
   endfacet
   facet normal 4.698463e-001 3.420202e-001 8.137977e-001
      outer loop
         vertex 7.499203e-002 1.086332e+000 1.093200e-003
         vertex 4.522341e-001 1.086332e+000 -2.167076e-001
         vertex 7.499357e-002 1.088931e+000 -6.463474e-009
      endloop
   endfacet
   facet normal 4.698463e-001 3.420202e-001 8.137977e-001
      outer loop
         vertex 7.499357e-002 1.088931e+000 -6.463474e-009
         vertex 4.522341e-001 1.086332e+000 -2.167076e-001
         vertex 4.513790e-001 1.091030e+000 -2.181886e-001
      endloop
   endfacet
   facet normal 4.698463e-001 3.420202e-001 8.137977e-001
      outer loop
         vertex 7.499357e-002 1.088931e+000 -6.463474e-009
         vertex 4.513790e-001 1.091030e+000 -2.181886e-001
         vertex 7.499480e-002 1.091030e+000 -8.830528e-004
      endloop
   endfacet
   facet normal 8.660254e-001 0.000000e+000 -5.000000e-001
      outer loop
         vertex 4.137913e-001 1.063668e+000 -2.832924e-001
         vertex 4.513790e-001 1.091030e+000 -2.181886e-001
         vertex 4.146464e-001 1.058970e+000 -2.818114e-001
      endloop
   endfacet
   facet normal 8.660254e-001 0.000000e+000 -5.000000e-001
      outer loop
         vertex 4.146464e-001 1.058970e+000 -2.818114e-001
         vertex 4.513790e-001 1.091030e+000 -2.181886e-001
         vertex 4.522341e-001 1.086332e+000 -2.167076e-001
      endloop
   endfacet
endsolid